<svg version="1.1" viewBox="0.0 0.0 612.0971128608924 501.71128608923885" fill="none" stroke="none" stroke-linecap="square" stroke-miterlimit="10" xmlns:xlink="http://www.w3.org/1999/xlink" xmlns="http://www.w3.org/2000/svg"><clipPath id="p.0"><path d="m0 0l612.0971 0l0 501.71127l-612.0971 0l0 -501.71127z" clip-rule="nonzero"/></clipPath><g clip-path="url(#p.0)"><path fill="#000000" fill-opacity="0.0" d="m0 0l612.0971 0l0 501.71127l-612.0971 0z" fill-rule="evenodd"/><path fill="#ffffff" d="m271.98163 285.92914l159.18109 0l0 24.440948l-159.18109 0z" fill-rule="evenodd"/><path stroke="#000000" stroke-width="1.0" stroke-linejoin="round" stroke-linecap="butt" d="m271.98163 285.92914l159.18109 0l0 24.440948l-159.18109 0z" fill-rule="evenodd"/><path fill="#000000" fill-opacity="0.0" d="m263.98163 247.25197l174.07874 0l0 38.67717l-174.07874 0z" fill-rule="evenodd"/><path fill="#000000" d="m274.20038 271.90634q0 -0.390625 0.265625 -0.625q0.265625 -0.25 0.65625 -0.25q0.453125 0 0.78125 0.515625q0.46875 0.6875 0.828125 0.9375q0.78125 0.515625 2.25 0.515625q1.421875 0 2.625 -0.609375q1.546875 -0.78125 1.546875 -2.1875q0 -1.140625 -1.296875 -1.8125q-1.109375 -0.5625 -2.71875 -0.609375q-1.453125 -0.0625 -2.453125 -0.625q-1.296875 -0.75 -1.296875 -2.125q0 -1.625 1.84375 -2.953125q1.75 -1.265625 3.625 -1.265625q0.890625 0 2.0 0.296875q1.46875 0.390625 1.46875 1.0q0 0.796875 -0.8125 0.796875q-0.359375 0 -1.28125 -0.1875q-0.90625 -0.203125 -1.40625 -0.1875q-1.421875 0.015625 -2.421875 0.703125q-1.015625 0.703125 -1.015625 1.703125q0 0.75 1.34375 1.0625q0.515625 0.125 1.953125 0.21875q2.078125 0.15625 3.25 1.3125q1.078125 1.0625 1.078125 2.578125q0 2.171875 -2.0 3.46875q-1.734375 1.109375 -4.03125 1.109375q-1.671875 0 -3.0625 -0.640625q-1.6875 -0.78125 -1.71875 -2.140625zm20.41986 -3.046875q0 0.640625 0 1.953125q0.015625 1.3125 0.015625 1.96875q0 0.203125 0.03125 0.625q0.03125 0.40625 0.03125 0.609375q0 0.390625 -0.265625 0.640625q-0.265625 0.25 -0.640625 0.25q-0.703125 0 -0.890625 -0.875q-1.140625 0.59375 -2.625 0.59375q-1.203125 0 -1.984375 -0.53125q-0.859375 -0.578125 -1.03125 -1.703125q-0.34375 -2.40625 -0.34375 -4.296875q0 -1.25 0.265625 -2.84375q0.125 -0.78125 0.859375 -0.78125q0.390625 0 0.65625 0.25q0.265625 0.25 0.265625 0.640625q0 0.40625 -0.140625 1.328125q-0.125 0.921875 -0.125 1.40625q0 1.515625 0.09375 2.609375q0.109375 1.078125 0.3125 1.734375q0.296875 0.171875 0.59375 0.265625q0.296875 0.078125 0.578125 0.078125q1.21875 0 2.578125 -0.390625l-0.015625 -1.859375l-0.015625 -1.765625q0 -1.96875 0.171875 -3.40625q0.09375 -0.84375 0.890625 -0.84375q0.390625 0 0.640625 0.265625q0.265625 0.25 0.25 0.625l-0.15625 3.453125zm9.357849 -1.421875q-0.0625 1.140625 -0.921875 1.140625q-0.78125 0 -0.78125 -0.90625q0 -0.171875 -0.03125 -0.625l-0.015625 -0.765625q-1.4375 0.171875 -2.3125 0.796875q-0.8125 0.59375 -1.34375 1.796875l0.015625 4.984375q0 0.921875 -0.90625 0.921875q-0.796875 0 -0.796875 -0.921875l0 -6.390625q0 -0.296875 0.015625 -0.890625q0.03125 -0.609375 0.03125 -0.921875q0 -0.90625 0.796875 -0.90625q0.890625 0 0.90625 1.5q1.75 -1.671875 3.875 -1.671875q0.75 0 1.109375 0.5625q0.359375 0.546875 0.359375 1.65625q0 0.484375 0 0.640625zm8.85437 7.375q-0.78125 0 -0.875 -0.84375l-0.265625 -2.0q-0.125 -1.0625 -0.125 -2.0q0 -0.25 0.03125 -0.859375q0.03125 -0.609375 0.03125 -0.875q0 -1.953125 -0.71875 -1.953125q-1.03125 0 -1.953125 1.203125q-0.84375 1.109375 -1.3125 2.78125q-0.015625 0.359375 -0.078125 0.90625q-0.0625 0.453125 -0.0625 0.875q0 0.28125 0.046875 0.828125q0.0625 0.546875 0.0625 0.8125q0 0.40625 -0.25 0.65625q-0.25 0.265625 -0.640625 0.265625q-0.40625 0 -0.65625 -0.265625q-0.234375 -0.25 -0.234375 -0.65625q0 -0.265625 -0.0625 -0.8125q-0.0625 -0.546875 -0.0625 -0.828125q0 -0.9375 0.125 -2.59375q0.140625 -1.671875 0.140625 -2.609375q0 -0.28125 -0.03125 -0.859375q-0.03125 -0.578125 -0.03125 -0.875q0 -0.390625 0.25 -0.640625q0.265625 -0.25 0.65625 -0.25q0.828125 0 0.921875 1.1875l0.015625 1.0625q1.53125 -2.03125 3.15625 -2.03125q1.453125 0 2.03125 1.28125q0.390625 0.859375 0.421875 2.53125l0 0.921875l-0.015625 0.84375q0 0.765625 0.203125 1.96875q0.203125 1.1875 0.203125 1.9375q0 0.390625 -0.265625 0.640625q-0.265625 0.25 -0.65625 0.25zm9.890381 -0.046875q-0.171875 0 -0.625 -0.390625q-0.40625 -0.375 -0.609375 -0.671875q-0.875 0.484375 -1.546875 0.71875q-0.65625 0.234375 -1.109375 0.234375q-2.125 0 -3.09375 -1.1875q-0.921875 -1.140625 -0.921875 -3.46875q0 -2.203125 1.515625 -3.765625q1.515625 -1.578125 3.625 -1.578125q0.78125 0 1.765625 0.421875q1.25 0.5 1.25 1.21875q0 0.25 -0.1875 0.4375q-0.09375 0.34375 -0.140625 1.140625q-0.046875 0.796875 -0.0625 2.03125q-0.015625 1.125 0.15625 1.78125q0.09375 0.40625 0.578125 1.609375q0.0625 0.171875 0.203125 0.484375l0.0625 0.15625q0 0.359375 -0.265625 0.59375q-0.25 0.234375 -0.59375 0.234375zm-1.890625 -6.328125q0 -0.390625 0.046875 -0.84375q0.0625 -0.46875 0.15625 -0.984375q-0.34375 -0.171875 -0.59375 -0.25q-0.234375 -0.078125 -0.375 -0.078125q-1.40625 0 -2.4375 1.15625q-1.015625 1.140625 -1.015625 2.640625q0 1.5 0.515625 2.25q0.53125 0.734375 1.59375 0.734375q0.875 0 1.484375 -0.3125q0.328125 -0.171875 0.921875 -0.6875q-0.296875 -2.421875 -0.296875 -3.625zm15.890503 6.484375q-0.734375 0 -0.875 -0.78125q-0.15625 -1.0 -0.3125 -2.828125l-0.3125 -2.828125q-0.09375 -0.625 -0.3125 -1.234375q-0.3125 -0.8125 -0.671875 -0.8125q-0.34375 0 -1.265625 0.578125q-0.875 0.53125 -1.140625 0.84375q-0.015625 0.859375 0.046875 1.71875l0.265625 2.421875q0.171875 1.4375 0.171875 2.375q0 0.40625 -0.25 0.65625q-0.25 0.265625 -0.640625 0.265625q-0.390625 0 -0.640625 -0.265625q-0.25 -0.25 -0.25 -0.65625q0 -1.09375 -0.234375 -3.25q-0.21875 -2.15625 -0.21875 -3.25q0 -0.96875 -0.265625 -1.515625q-0.640625 0.296875 -1.296875 0.953125l-1.078125 1.203125q-0.140625 0.21875 -0.453125 0.578125q0 0.546875 -0.109375 1.609375q-0.09375 1.0625 -0.09375 1.578125q0 0.265625 0.078125 0.765625q0.09375 0.484375 0.09375 0.703125q0 0.375 -0.28125 0.625q-0.28125 0.265625 -0.65625 0.265625q-1.015625 0 -1.015625 -2.34375q0 -0.546875 0.09375 -1.625q0.09375 -1.09375 0.09375 -1.640625q0 -0.484375 -0.09375 -1.4375q-0.078125 -0.96875 -0.078125 -1.46875q0 -2.0625 0.9375 -2.0625q0.34375 0 0.640625 0.3125q0.296875 0.3125 0.296875 0.671875q0 0.171875 -0.046875 0.546875q-0.03125 0.359375 -0.03125 0.546875l0.015625 0.953125q0.46875 -0.96875 1.390625 -1.75q0.921875 -0.796875 1.5625 -0.796875q1.4375 0 1.96875 1.421875q0.5 -0.671875 1.1875 -1.0q0.703125 -0.328125 1.59375 -0.328125q1.515625 0 2.078125 1.640625q0.109375 0.328125 0.375 2.546875q0.25 1.578125 0.65625 5.21875q0.03125 0.375 -0.25 0.625q-0.265625 0.25 -0.671875 0.25zm7.180725 -0.328125q-2.046875 0 -3.328125 -1.03125q-1.390625 -1.140625 -1.390625 -3.1875q0 -2.375 1.140625 -3.96875q1.25 -1.75 3.34375 -1.75q1.5 0 2.46875 0.5q1.171875 0.640625 1.171875 1.9375q0 0.90625 -1.03125 1.65625q-0.453125 0.328125 -1.9375 1.015625l-3.46875 1.65625q0.5 0.75 1.265625 1.140625q0.765625 0.375 1.765625 0.375q0.640625 0 1.484375 -0.234375q1.078125 -0.296875 1.375 -0.78125q0.3125 -0.484375 0.671875 -0.484375q0.3125 0 0.5625 0.234375q0.25 0.234375 0.25 0.5625q0 1.015625 -1.625 1.734375q-1.390625 0.625 -2.71875 0.625zm-0.234375 -8.296875q-1.125 0 -1.859375 0.859375q-0.734375 0.859375 -1.09375 2.59375l2.796875 -1.328125q1.640625 -0.8125 2.34375 -1.40625q-0.78125 -0.71875 -2.1875 -0.71875zm8.705231 5.8125q0 0.40625 -0.265625 0.671875q-0.25 0.265625 -0.671875 0.265625q-0.40625 0 -0.65625 -0.265625q-0.265625 -0.265625 -0.265625 -0.671875q0 -0.171875 -0.0625 -0.5q-0.0625 -0.328125 -0.0625 -0.5q0 -0.375 0.28125 -0.625q0.296875 -0.265625 0.6875 -0.265625q1.015625 0 1.015625 1.890625zm-0.15625 -6.640625q0 0.40625 -0.265625 0.671875q-0.25 0.265625 -0.65625 0.265625q-0.40625 0 -0.671875 -0.265625q-0.265625 -0.265625 -0.265625 -0.671875q0 -0.109375 -0.046875 -0.328125q-0.03125 -0.234375 -0.03125 -0.34375q0 -0.40625 0.265625 -0.65625q0.28125 -0.25 0.671875 -0.25q1.0 0 1.0 1.578125z" fill-rule="nonzero"/><path fill="#ffffff" d="m274.83203 205.92914l159.18109 0l0 24.440933l-159.18109 0z" fill-rule="evenodd"/><path stroke="#000000" stroke-width="1.0" stroke-linejoin="round" stroke-linecap="butt" d="m274.83203 205.92914l159.18109 0l0 24.440933l-159.18109 0z" fill-rule="evenodd"/><path fill="#000000" fill-opacity="0.0" d="m263.98163 167.25197l174.07874 0l0 38.67717l-174.07874 0z" fill-rule="evenodd"/><path fill="#000000" d="m284.82538 188.65634q-0.5625 2.796875 -2.375 4.46875q-1.8125 1.671875 -4.265625 1.671875q-2.25 0 -3.375 -1.25q-1.109375 -1.25 -1.109375 -3.75q0 -2.359375 1.109375 -4.859375q1.125 -2.5 2.875 -4.046875q1.15625 -1.03125 2.46875 -1.03125q0.828125 0 2.1875 0.546875q1.65625 0.65625 1.65625 1.453125q0 0.375 -0.28125 0.671875q-0.265625 0.28125 -0.65625 0.28125q-0.1875 0 -0.5625 -0.234375q-1.390625 -0.84375 -2.34375 -0.84375q-0.6875 0 -1.4375 0.71875q-0.375 0.34375 -1.0625 1.28125q-2.109375 2.796875 -2.109375 6.0625q0 1.703125 0.53125 2.390625q0.5625 0.75 2.109375 0.75q1.625 0 2.828125 -1.03125q1.265625 -1.09375 1.765625 -3.125q-2.515625 0.125 -4.328125 0.96875q-0.203125 0.109375 -0.40625 0.109375q-0.390625 0 -0.65625 -0.3125q-0.25 -0.28125 -0.25 -0.65625q0 -0.5 0.484375 -0.796875q1.96875 -1.203125 6.78125 -1.203125q0.390625 0 0.65625 0.265625q0.265625 0.25 0.265625 0.65625q0 0.59375 -0.5 0.84375zm3.83667 -6.015625q-0.4375 0 -0.75 -0.3125q-0.3125 -0.3125 -0.3125 -0.75q0 -0.4375 0.3125 -0.734375q0.3125 -0.3125 0.75 -0.3125q0.4375 0 0.75 0.3125q0.328125 0.296875 0.328125 0.734375q0 0.4375 -0.328125 0.75q-0.3125 0.3125 -0.75 0.3125zm0.421875 7.390625q0 0.546875 0.03125 1.640625q0.03125 1.09375 0.03125 1.640625q0 0.390625 -0.25 0.65625q-0.25 0.25 -0.640625 0.25q-0.390625 0 -0.65625 -0.25q-0.25 -0.265625 -0.25 -0.65625q0 -0.546875 -0.03125 -1.640625q-0.03125 -1.09375 -0.03125 -1.640625q0 -0.84375 0.09375 -2.125q0.09375 -1.28125 0.09375 -2.140625q0 -0.40625 0.25 -0.65625q0.25 -0.265625 0.640625 -0.265625q0.390625 0 0.640625 0.265625q0.25 0.25 0.25 0.65625q0 0.859375 -0.09375 2.140625q-0.078125 1.28125 -0.078125 2.125zm7.2757263 3.671875q-0.03125 0.828125 -0.828125 0.828125q-0.671875 0 -0.96875 -0.78125l-1.390625 -3.703125l-1.625 -4.171875q-0.09375 -0.234375 -0.09375 -0.421875q0 -0.375 0.28125 -0.640625q0.28125 -0.265625 0.65625 -0.265625q0.546875 0 0.78125 0.5625l2.3125 6.359375q0.6875 -1.453125 1.734375 -4.21875q0.234375 -0.734375 0.765625 -2.0625q0.28125 -0.578125 0.796875 -0.578125q0.375 0 0.65625 0.265625q0.296875 0.265625 0.296875 0.625q0 0.34375 -1.515625 3.90625l-1.859375 4.296875zm9.119934 0.890625q-2.046875 0 -3.328125 -1.03125q-1.390625 -1.140625 -1.390625 -3.1875q0 -2.375 1.140625 -3.96875q1.25 -1.75 3.34375 -1.75q1.5 0 2.46875 0.5q1.171875 0.640625 1.171875 1.9375q0 0.90625 -1.03125 1.65625q-0.453125 0.328125 -1.9375 1.015625l-3.46875 1.65625q0.5 0.75 1.265625 1.140625q0.765625 0.375 1.765625 0.375q0.640625 0 1.484375 -0.234375q1.078125 -0.296875 1.375 -0.78125q0.3125 -0.484375 0.671875 -0.484375q0.3125 0 0.5625 0.234375q0.25 0.234375 0.25 0.5625q0 1.015625 -1.625 1.734375q-1.390625 0.625 -2.71875 0.625zm-0.234375 -8.296875q-1.125 0 -1.859375 0.859375q-0.734375 0.859375 -1.09375 2.59375l2.796875 -1.328125q1.640625 -0.8125 2.34375 -1.40625q-0.78125 -0.71875 -2.1875 -0.71875zm13.189606 8.515625q-0.78125 0 -0.875 -0.84375l-0.265625 -2.0q-0.125 -1.0625 -0.125 -2.0q0 -0.25 0.03125 -0.859375q0.03125 -0.609375 0.03125 -0.875q0 -1.953125 -0.71875 -1.953125q-1.03125 0 -1.953125 1.203125q-0.84375 1.109375 -1.3125 2.78125q-0.015625 0.359375 -0.078125 0.90625q-0.0625 0.453125 -0.0625 0.875q0 0.28125 0.046875 0.828125q0.0625 0.546875 0.0625 0.8125q0 0.40625 -0.25 0.65625q-0.25 0.265625 -0.640625 0.265625q-0.40625 0 -0.65625 -0.265625q-0.234375 -0.25 -0.234375 -0.65625q0 -0.265625 -0.0625 -0.8125q-0.0625 -0.546875 -0.0625 -0.828125q0 -0.9375 0.125 -2.59375q0.140625 -1.671875 0.140625 -2.609375q0 -0.28125 -0.03125 -0.859375q-0.03125 -0.578125 -0.03125 -0.875q0 -0.390625 0.25 -0.640625q0.265625 -0.25 0.65625 -0.25q0.828125 0 0.921875 1.1875l0.015625 1.0625q1.53125 -2.03125 3.15625 -2.03125q1.453125 0 2.03125 1.28125q0.390625 0.859375 0.421875 2.53125l0 0.921875l-0.015625 0.84375q0 0.765625 0.203125 1.96875q0.203125 1.1875 0.203125 1.9375q0 0.390625 -0.265625 0.640625q-0.265625 0.25 -0.65625 0.25zm21.121643 -2.65625q0 0.4375 -0.140625 1.453125q-0.140625 0.921875 -0.96875 0.921875q-0.5 0 -1.203125 -0.65625q-3.703125 -3.515625 -8.5 -10.125l-0.046875 2.0625l-0.03125 2.078125q0 0.765625 0.03125 2.28125q0.03125 1.5 0.03125 2.265625q0 2.453125 -0.9375 2.453125q-0.5 0 -0.796875 -0.3125q-0.265625 -0.28125 -0.265625 -0.671875q0 -0.390625 0.0625 -1.15625q0.0625 -0.78125 0.0625 -1.171875q0 -0.5625 0.03125 -1.6875q0.03125 -1.125 0.03125 -1.6875q0 -0.59375 -0.03125 -1.8125q-0.015625 -1.21875 -0.015625 -1.8125q0 -0.578125 -0.109375 -1.703125q-0.109375 -1.140625 -0.109375 -1.71875q0 -0.421875 0.359375 -0.765625q0.359375 -0.34375 0.8125 -0.34375q0.484375 0 1.1875 1.046875q2.265625 3.40625 4.078125 5.65625q2.171875 2.671875 4.75 5.09375q0.015625 -0.390625 0 -1.15625l-0.03125 -1.140625q0 -4.0 -0.3125 -6.375q-0.03125 -0.234375 -0.25 -0.953125q-0.171875 -0.625 -0.171875 -0.96875q0 -1.046875 0.953125 -1.046875q1.59375 0 1.59375 5.90625q0 1.015625 -0.03125 3.03125q-0.03125 2.0 -0.03125 3.015625zm9.210449 2.609375q-0.171875 0 -0.625 -0.390625q-0.40625 -0.375 -0.609375 -0.671875q-0.875 0.484375 -1.546875 0.71875q-0.65625 0.234375 -1.109375 0.234375q-2.125 0 -3.09375 -1.1875q-0.921875 -1.140625 -0.921875 -3.46875q0 -2.203125 1.515625 -3.765625q1.515625 -1.578125 3.625 -1.578125q0.78125 0 1.765625 0.421875q1.25 0.5 1.25 1.21875q0 0.25 -0.1875 0.4375q-0.09375 0.34375 -0.140625 1.140625q-0.046875 0.796875 -0.0625 2.03125q-0.015625 1.125 0.15625 1.78125q0.09375 0.40625 0.578125 1.609375q0.0625 0.171875 0.203125 0.484375l0.0625 0.15625q0 0.359375 -0.265625 0.59375q-0.25 0.234375 -0.59375 0.234375zm-1.890625 -6.328125q0 -0.390625 0.046875 -0.84375q0.0625 -0.46875 0.15625 -0.984375q-0.34375 -0.171875 -0.59375 -0.25q-0.234375 -0.078125 -0.375 -0.078125q-1.40625 0 -2.4375 1.15625q-1.015625 1.140625 -1.015625 2.640625q0 1.5 0.515625 2.25q0.53125 0.734375 1.59375 0.734375q0.875 0 1.484375 -0.3125q0.328125 -0.171875 0.921875 -0.6875q-0.296875 -2.421875 -0.296875 -3.625zm15.890503 6.484375q-0.734375 0 -0.875 -0.78125q-0.15625 -1.0 -0.3125 -2.828125l-0.3125 -2.828125q-0.09375 -0.625 -0.3125 -1.234375q-0.3125 -0.8125 -0.671875 -0.8125q-0.34375 0 -1.265625 0.578125q-0.875 0.53125 -1.140625 0.84375q-0.015625 0.859375 0.046875 1.71875l0.265625 2.421875q0.171875 1.4375 0.171875 2.375q0 0.40625 -0.25 0.65625q-0.25 0.265625 -0.640625 0.265625q-0.390625 0 -0.640625 -0.265625q-0.25 -0.25 -0.25 -0.65625q0 -1.09375 -0.234375 -3.25q-0.21875 -2.15625 -0.21875 -3.25q0 -0.96875 -0.265625 -1.515625q-0.640625 0.296875 -1.296875 0.953125l-1.078125 1.203125q-0.140625 0.21875 -0.453125 0.578125q0 0.546875 -0.109375 1.609375q-0.09375 1.0625 -0.09375 1.578125q0 0.265625 0.078125 0.765625q0.09375 0.484375 0.09375 0.703125q0 0.375 -0.28125 0.625q-0.28125 0.265625 -0.65625 0.265625q-1.015625 0 -1.015625 -2.34375q0 -0.546875 0.09375 -1.625q0.09375 -1.09375 0.09375 -1.640625q0 -0.484375 -0.09375 -1.4375q-0.078125 -0.96875 -0.078125 -1.46875q0 -2.0625 0.9375 -2.0625q0.34375 0 0.640625 0.3125q0.296875 0.3125 0.296875 0.671875q0 0.171875 -0.046875 0.546875q-0.03125 0.359375 -0.03125 0.546875l0.015625 0.953125q0.46875 -0.96875 1.390625 -1.75q0.921875 -0.796875 1.5625 -0.796875q1.4375 0 1.96875 1.421875q0.5 -0.671875 1.1875 -1.0q0.703125 -0.328125 1.59375 -0.328125q1.515625 0 2.078125 1.640625q0.109375 0.328125 0.375 2.546875q0.25 1.578125 0.65625 5.21875q0.03125 0.375 -0.25 0.625q-0.265625 0.25 -0.671875 0.25zm7.1806946 -0.328125q-2.046875 0 -3.328125 -1.03125q-1.390625 -1.140625 -1.390625 -3.1875q0 -2.375 1.140625 -3.96875q1.25 -1.75 3.34375 -1.75q1.5 0 2.46875 0.5q1.171875 0.640625 1.171875 1.9375q0 0.90625 -1.03125 1.65625q-0.453125 0.328125 -1.9375 1.015625l-3.46875 1.65625q0.5 0.75 1.265625 1.140625q0.765625 0.375 1.765625 0.375q0.640625 0 1.484375 -0.234375q1.078125 -0.296875 1.375 -0.78125q0.3125 -0.484375 0.671875 -0.484375q0.3125 0 0.5625 0.234375q0.25 0.234375 0.25 0.5625q0 1.015625 -1.625 1.734375q-1.390625 0.625 -2.71875 0.625zm-0.234375 -8.296875q-1.125 0 -1.859375 0.859375q-0.734375 0.859375 -1.09375 2.59375l2.796875 -1.328125q1.640625 -0.8125 2.34375 -1.40625q-0.78125 -0.71875 -2.1875 -0.71875zm8.705231 5.8125q0 0.40625 -0.265625 0.671875q-0.25 0.265625 -0.671875 0.265625q-0.40625 0 -0.65625 -0.265625q-0.265625 -0.265625 -0.265625 -0.671875q0 -0.171875 -0.0625 -0.5q-0.0625 -0.328125 -0.0625 -0.5q0 -0.375 0.28125 -0.625q0.296875 -0.265625 0.6875 -0.265625q1.015625 0 1.015625 1.890625zm-0.15625 -6.640625q0 0.40625 -0.265625 0.671875q-0.25 0.265625 -0.65625 0.265625q-0.40625 0 -0.671875 -0.265625q-0.265625 -0.265625 -0.265625 -0.671875q0 -0.109375 -0.046875 -0.328125q-0.03125 -0.234375 -0.03125 -0.34375q0 -0.40625 0.265625 -0.65625q0.28125 -0.25 0.671875 -0.25q1.0 0 1.0 1.578125z" fill-rule="nonzero"/><path fill="#000000" fill-opacity="0.0" d="m336.6273 365.6299l127.40158 0l0 38.677185l-127.40158 0z" fill-rule="evenodd"/><path fill="#000000" d="m353.98666 385.81555q-0.0625 1.140625 -0.921875 1.140625q-0.78125 0 -0.78125 -0.90625q0 -0.171875 -0.03125 -0.625l-0.015625 -0.765625q-1.4375 0.171875 -2.3125 0.796875q-0.8125 0.59375 -1.34375 1.796875l0.015625 4.984375q0 0.921875 -0.90625 0.921875q-0.796875 0 -0.796875 -0.921875l0 -6.390625q0 -0.296875 0.015625 -0.890625q0.03125 -0.609375 0.03125 -0.921875q0 -0.90625 0.796875 -0.90625q0.890625 0 0.90625 1.5q1.75 -1.671875 3.875 -1.671875q0.75 0 1.109375 0.5625q0.359375 0.546875 0.359375 1.65625q0 0.484375 0 0.640625zm6.119995 7.15625q-2.046875 0 -3.328125 -1.03125q-1.390625 -1.140625 -1.390625 -3.1875q0 -2.375 1.140625 -3.96875q1.25 -1.75 3.34375 -1.75q1.5 0 2.46875 0.5q1.171875 0.640625 1.171875 1.9375q0 0.90625 -1.03125 1.65625q-0.453125 0.328125 -1.9375 1.015625l-3.46875 1.65625q0.5 0.75 1.265625 1.140625q0.765625 0.375 1.765625 0.375q0.640625 0 1.484375 -0.234375q1.078125 -0.296875 1.375 -0.78125q0.3125 -0.484375 0.671875 -0.484375q0.3125 0 0.5625 0.234375q0.25 0.234375 0.25 0.5625q0 1.015625 -1.625 1.734375q-1.390625 0.625 -2.71875 0.625zm-0.234375 -8.296875q-1.125 0 -1.859375 0.859375q-0.734375 0.859375 -1.09375 2.59375l2.796875 -1.328125q1.640625 -0.8125 2.34375 -1.40625q-0.78125 -0.71875 -2.1875 -0.71875zm13.705231 3.953125l-0.21875 3.0625q-0.046875 1.8125 -0.359375 2.96875q-0.421875 1.484375 -1.3125 2.1875q-1.09375 0.84375 -3.171875 0.84375q-1.203125 0 -2.03125 -0.171875q-1.140625 -0.21875 -1.140625 -0.9375q0 -0.8125 0.796875 -0.8125q0.328125 0 1.078125 0.15625q0.765625 0.15625 1.703125 0.140625q1.75 -0.03125 2.40625 -1.6875q0.4375 -1.125 0.46875 -3.421875q-0.484375 0.90625 -1.171875 1.375q-0.671875 0.453125 -1.546875 0.453125q-1.65625 0 -2.6875 -1.125q-1.03125 -1.125 -1.03125 -2.921875q0 -2.46875 1.40625 -3.96875q1.46875 -1.546875 3.984375 -1.546875q0.84375 0 1.40625 0.21875q0.578125 0.21875 0.875 0.65625q0.984375 0.03125 0.984375 1.078125q0 0.65625 -0.1875 1.734375q-0.21875 1.265625 -0.25 1.71875zm-2.921875 -3.953125q-1.734375 0 -2.6875 1.203125q-0.84375 1.0625 -0.84375 2.734375q0 1.3125 0.5 1.984375q0.5 0.65625 1.5 0.65625q0.921875 0 1.796875 -1.03125q0.78125 -0.953125 0.890625 -1.90625q0.1875 -0.96875 0.40625 -3.078125q-0.359375 -0.28125 -0.75 -0.421875q-0.390625 -0.140625 -0.8125 -0.140625zm7.0582886 -3.65625q-0.4375 0 -0.75 -0.3125q-0.3125 -0.3125 -0.3125 -0.75q0 -0.4375 0.3125 -0.734375q0.3125 -0.3125 0.75 -0.3125q0.4375 0 0.75 0.3125q0.328125 0.296875 0.328125 0.734375q0 0.4375 -0.328125 0.75q-0.3125 0.3125 -0.75 0.3125zm0.421875 7.390625q0 0.546875 0.03125 1.640625q0.03125 1.09375 0.03125 1.640625q0 0.390625 -0.25 0.65625q-0.25 0.25 -0.640625 0.25q-0.390625 0 -0.65625 -0.25q-0.25 -0.265625 -0.25 -0.65625q0 -0.546875 -0.03125 -1.640625q-0.03125 -1.09375 -0.03125 -1.640625q0 -0.84375 0.09375 -2.125q0.09375 -1.28125 0.09375 -2.140625q0 -0.40625 0.25 -0.65625q0.25 -0.265625 0.640625 -0.265625q0.390625 0 0.640625 0.265625q0.25 0.25 0.25 0.65625q0 0.859375 -0.09375 2.140625q-0.078125 1.28125 -0.078125 2.125zm9.228851 -2.875q-0.5 0 -0.703125 -0.328125q-0.140625 -0.25 -0.234375 -0.984375q-0.6875 0.171875 -2.109375 0.625q-1.46875 0.59375 -1.484375 1.4375q0.28125 0.109375 0.546875 0.15625q2.09375 0.375 3.109375 1.03125q1.484375 0.953125 1.484375 2.765625q0 1.484375 -1.28125 2.234375q-1.0625 0.625 -2.703125 0.625q-1.1875 0 -2.265625 -0.40625q-1.40625 -0.5 -1.40625 -1.421875q0 -0.359375 0.28125 -0.625q0.296875 -0.28125 0.65625 -0.28125q0.28125 0 0.734375 0.4375q0.21875 0.203125 0.984375 0.34375q0.609375 0.109375 1.015625 0.109375q0.765625 0 1.359375 -0.171875q0.84375 -0.265625 0.84375 -0.84375q0 -1.234375 -1.734375 -1.671875l-0.9375 -0.21875q-1.21875 -0.265625 -1.734375 -0.609375q-0.734375 -0.515625 -0.734375 -1.546875q0 -1.90625 1.796875 -2.71875q0.546875 -0.234375 1.75 -0.578125q1.203125 -0.34375 1.71875 -0.578125q0.375 -0.171875 0.8125 -0.171875q0.390625 0 0.640625 0.265625q0.25 0.25 0.25 0.65625q0 0.265625 0.109375 0.78125q0.125 0.5 0.125 0.765625q0 0.40625 -0.25 0.671875q-0.25 0.25 -0.640625 0.25zm9.019653 -0.75q-0.1875 0 -0.453125 -0.015625q-0.25 -0.015625 -0.453125 -0.015625q-0.203125 0 -1.234375 0.140625l0.171875 5.375l0.015625 0.40625l0 0.46875q0.046875 1.984375 -0.953125 1.984375q-0.359375 0 -0.640625 -0.234375q-0.265625 -0.234375 -0.265625 -0.59375q0 -0.34375 0.03125 -1.03125q0.03125 -0.703125 0.03125 -1.046875l-0.1875 -5.3125q-0.65625 -0.03125 -2.015625 -0.15625q-0.8125 -0.109375 -0.8125 -0.90625q0 -0.390625 0.234375 -0.65625q0.25 -0.265625 0.640625 -0.265625l1.90625 0.15625q0 -0.46875 -0.046875 -1.25q-0.03125 -0.78125 -0.03125 -1.125q0 -0.375 0.265625 -0.625q0.265625 -0.25 0.640625 -0.25q0.828125 0 0.96875 1.328125q0.015625 0.34375 0.015625 0.8125l-0.015625 0.53125l0 0.5625q1.125 -0.140625 1.28125 -0.140625q0.953125 0 1.25 0.09375q0.546875 0.171875 0.546875 0.84375q0 0.40625 -0.25 0.671875q-0.25 0.25 -0.640625 0.25zm6.94693 8.1875q-2.046875 0 -3.328125 -1.03125q-1.390625 -1.140625 -1.390625 -3.1875q0 -2.375 1.140625 -3.96875q1.25 -1.75 3.34375 -1.75q1.5 0 2.46875 0.5q1.171875 0.640625 1.171875 1.9375q0 0.90625 -1.03125 1.65625q-0.453125 0.328125 -1.9375 1.015625l-3.46875 1.65625q0.5 0.75 1.265625 1.140625q0.765625 0.375 1.765625 0.375q0.640625 0 1.484375 -0.234375q1.078125 -0.296875 1.375 -0.78125q0.3125 -0.484375 0.671875 -0.484375q0.3125 0 0.5625 0.234375q0.25 0.234375 0.25 0.5625q0 1.015625 -1.625 1.734375q-1.390625 0.625 -2.71875 0.625zm-0.234375 -8.296875q-1.125 0 -1.859375 0.859375q-0.734375 0.859375 -1.09375 2.59375l2.796875 -1.328125q1.640625 -0.8125 2.34375 -1.40625q-0.78125 -0.71875 -2.1875 -0.71875zm13.298981 1.140625q-0.0625 1.140625 -0.921875 1.140625q-0.78125 0 -0.78125 -0.90625q0 -0.171875 -0.03125 -0.625l-0.015625 -0.765625q-1.4375 0.171875 -2.3125 0.796875q-0.8125 0.59375 -1.34375 1.796875l0.015625 4.984375q0 0.921875 -0.90625 0.921875q-0.796875 0 -0.796875 -0.921875l0 -6.390625q0 -0.296875 0.015625 -0.890625q0.03125 -0.609375 0.03125 -0.921875q0 -0.90625 0.796875 -0.90625q0.890625 0 0.90625 1.5q1.75 -1.671875 3.875 -1.671875q0.75 0 1.109375 0.5625q0.359375 0.546875 0.359375 1.65625q0 0.484375 0 0.640625zm6.119995 7.15625q-2.046875 0 -3.328125 -1.03125q-1.390625 -1.140625 -1.390625 -3.1875q0 -2.375 1.140625 -3.96875q1.25 -1.75 3.34375 -1.75q1.5 0 2.46875 0.5q1.171875 0.640625 1.171875 1.9375q0 0.90625 -1.03125 1.65625q-0.453125 0.328125 -1.9375 1.015625l-3.46875 1.65625q0.5 0.75 1.265625 1.140625q0.765625 0.375 1.765625 0.375q0.640625 0 1.484375 -0.234375q1.078125 -0.296875 1.375 -0.78125q0.3125 -0.484375 0.671875 -0.484375q0.3125 0 0.5625 0.234375q0.25 0.234375 0.25 0.5625q0 1.015625 -1.625 1.734375q-1.390625 0.625 -2.71875 0.625zm-0.234375 -8.296875q-1.125 0 -1.859375 0.859375q-0.734375 0.859375 -1.09375 2.59375l2.796875 -1.328125q1.640625 -0.8125 2.34375 -1.40625q-0.78125 -0.71875 -2.1875 -0.71875zm14.595856 -0.171875q-0.109375 1.34375 -0.109375 2.6875q0 3.03125 0.28125 4.578125q0.015625 0.125 0.015625 0.203125q0 0.375 -0.25 0.609375q-0.25 0.234375 -0.59375 0.234375q-0.5625 0 -0.828125 -0.828125q-0.65625 0.484375 -1.359375 0.734375q-0.703125 0.25 -1.46875 0.25q-1.890625 0 -3.125 -1.265625q-1.28125 -1.28125 -1.28125 -3.296875q0 -2.421875 1.28125 -3.890625q1.296875 -1.46875 3.359375 -1.46875q1.046875 0 1.625 0.328125l0.859375 0.625q0.125 -3.828125 0.296875 -5.15625q0.125 -0.8125 0.828125 -0.8125q0.828125 0 0.828125 0.875q0 1.265625 -0.359375 5.59375zm-4.046875 0.234375q-1.53125 0 -2.296875 0.90625q-0.765625 0.90625 -0.765625 2.734375q0 1.171875 0.828125 2.03125q0.84375 0.84375 1.96875 0.84375q0.765625 0 1.28125 -0.28125q0.3125 -0.171875 1.015625 -0.765625q0.140625 -0.109375 0.265625 -0.28125l-0.03125 -1.578125l0.015625 -1.046875l0.015625 -1.078125q-0.34375 -0.734375 -0.921875 -1.109375q-0.578125 -0.375 -1.375 -0.375z" fill-rule="nonzero"/><path fill="#000000" fill-opacity="0.0" d="m10.026247 7.9790025l588.4409 0l0 484.59842l-588.4409 0z" fill-rule="evenodd"/><path stroke="#000000" stroke-width="1.0" stroke-linejoin="round" stroke-linecap="butt" stroke-dasharray="1.0,3.0" d="m10.026247 7.9790025l588.4409 0l0 484.59842l-588.4409 0z" fill-rule="evenodd"/><path fill="#000000" fill-opacity="0.0" d="m265.81348 377.39108l48.929474 0l0 0c6.4098816 0 11.60614 5.4711304 11.60614 12.220154c0 6.748993 -5.1962585 12.220154 -11.60614 12.220154l-48.929474 0l0 0c-6.4098816 0 -11.606125 -5.471161 -11.606125 -12.220154c0 -6.7490234 5.1962433 -12.220154 11.606125 -12.220154z" fill-rule="evenodd"/><path stroke="#000000" stroke-width="1.0" stroke-linejoin="round" stroke-linecap="butt" d="m265.81348 377.39108l48.929474 0l0 0c6.4098816 0 11.60614 5.4711304 11.60614 12.220154c0 6.748993 -5.1962585 12.220154 -11.60614 12.220154l-48.929474 0l0 0c-6.4098816 0 -11.606125 -5.471161 -11.606125 -12.220154c0 -6.7490234 5.1962433 -12.220154 11.606125 -12.220154z" fill-rule="evenodd"/><path fill="#000000" d="m304.2362 389.6063l0 0c0 -6.749176 4.9495544 -12.220459 11.055145 -12.220459l0 0c2.9319763 0 5.7438965 1.2875061 7.8171387 3.5792847c2.0732422 2.2917786 3.237976 5.400116 3.237976 8.641174l0 0c0 6.749176 -4.9495544 12.2204895 -11.055115 12.2204895l0 0c-6.105591 0 -11.055145 -5.4713135 -11.055145 -12.2204895z" fill-rule="evenodd"/><path stroke="#000000" stroke-width="1.0" stroke-linejoin="round" stroke-linecap="butt" d="m304.2362 389.6063l0 0c0 -6.749176 4.9495544 -12.220459 11.055145 -12.220459l0 0c2.9319763 0 5.7438965 1.2875061 7.8171387 3.5792847c2.0732422 2.2917786 3.237976 5.400116 3.237976 8.641174l0 0c0 6.749176 -4.9495544 12.2204895 -11.055115 12.2204895l0 0c-6.105591 0 -11.055145 -5.4713135 -11.055145 -12.2204895z" fill-rule="evenodd"/><path fill="#000000" fill-opacity="0.0" d="m205.48557 92.76378l285.03937 0l0 51.905518l-285.03937 0z" fill-rule="evenodd"/><path fill="#000000" d="m227.68869 124.92878q-0.453125 0 -0.84375 -0.375q-3.875 -3.828125 -8.625 -5.15625l0.09375 2.296875l0.0625 2.3125q0 0.515625 -0.34375 0.859375q-0.328125 0.34375 -0.828125 0.34375q-0.5 0 -0.84375 -0.34375q-0.328125 -0.34375 -0.328125 -0.859375q0 -0.921875 -0.09375 -2.75q-0.078125 -1.84375 -0.078125 -2.765625q0 -1.078125 0.234375 -3.203125q0.234375 -2.140625 0.234375 -3.21875q0 -0.59375 -0.109375 -1.765625q-0.109375 -1.171875 -0.109375 -1.765625q0 -0.671875 0.375 -1.171875q0.4375 -0.625 1.21875 -0.5625l2.828125 0.21875q1.609375 0.203125 2.703125 0.78125q4.75 2.53125 4.75 6.15625q0 1.78125 -1.609375 3.15625q-1.3125 1.09375 -3.25 1.671875q3.640625 1.953125 5.453125 4.125q0.296875 0.375 0.296875 0.796875q0 0.5 -0.359375 0.859375q-0.359375 0.359375 -0.828125 0.359375zm-7.46875 -15.484375l-1.734375 -0.140625l0.109375 1.40625q0.09375 0.875 0.09375 1.421875q0 0.9375 -0.15625 2.328125l-0.25 2.34375q0.171875 0 0.515625 0.015625q0.34375 0 0.515625 0q2.984375 0 4.484375 -0.796875q0.65625 -0.359375 1.21875 -0.953125q0.609375 -0.65625 0.609375 -1.109375q0 -1.625 -1.84375 -3.03125q-1.703125 -1.296875 -3.5625 -1.484375zm16.457031 15.90625q-2.65625 0 -4.296875 -1.328125q-1.796875 -1.46875 -1.796875 -4.109375q0 -3.046875 1.484375 -5.109375q1.609375 -2.25 4.28125 -2.25q1.953125 0 3.1875 0.65625q1.5 0.8125 1.5 2.484375q0 1.171875 -1.3125 2.140625q-0.59375 0.421875 -2.484375 1.3125l-4.484375 2.109375q0.65625 0.984375 1.625 1.484375q0.984375 0.484375 2.296875 0.484375q0.796875 0 1.890625 -0.3125q1.390625 -0.390625 1.78125 -1.015625q0.40625 -0.625 0.859375 -0.625q0.40625 0 0.71875 0.3125q0.328125 0.3125 0.328125 0.71875q0 1.296875 -2.09375 2.234375q-1.796875 0.8125 -3.484375 0.8125zm-0.328125 -10.6875q-1.421875 0 -2.375 1.109375q-0.953125 1.109375 -1.421875 3.328125l3.609375 -1.703125q2.109375 -1.03125 3.015625 -1.796875q-1.0 -0.9375 -2.828125 -0.9375zm17.648438 5.09375l-0.28125 3.9375q-0.0625 2.34375 -0.46875 3.828125q-0.53125 1.9062576 -1.6875 2.7968826q-1.40625 1.09375 -4.078125 1.09375q-1.546875 0 -2.609375 -0.203125q-1.46875 -0.296875 -1.46875 -1.21875q0 -1.046875 1.015625 -1.046875q0.421875 0 1.40625 0.203125q0.984375 0.203125 2.171875 0.1875q2.25 -0.046875 3.109375 -2.1875076q0.5625 -1.421875 0.59375 -4.390625q-0.625 1.171875 -1.5 1.765625q-0.875 0.578125 -2.0 0.578125q-2.125 0 -3.453125 -1.453125q-1.328125 -1.453125 -1.328125 -3.75q0 -3.171875 1.8125 -5.109375q1.875 -1.984375 5.109375 -1.984375q1.09375 0 1.828125 0.28125q0.75 0.28125 1.125 0.84375q1.265625 0.03125 1.265625 1.390625q0 0.828125 -0.25 2.234375q-0.265625 1.609375 -0.3125 2.203125zm-3.765625 -5.078125q-2.234375 0 -3.453125 1.53125q-1.078125 1.390625 -1.078125 3.515625q0 1.703125 0.640625 2.5625q0.640625 0.84375 1.9375 0.84375q1.171875 0 2.296875 -1.328125q1.0 -1.234375 1.140625 -2.4375q0.25 -1.265625 0.53125 -3.96875q-0.46875 -0.375 -0.984375 -0.546875q-0.5 -0.171875 -1.03125 -0.171875zm9.097656 -4.71875q-0.5625 0 -0.984375 -0.390625q-0.40625 -0.40625 -0.40625 -0.96875q0 -0.5625 0.40625 -0.953125q0.421875 -0.40625 0.984375 -0.40625q0.5625 0 0.953125 0.40625q0.40625 0.390625 0.40625 0.953125q0 0.5625 -0.40625 0.96875q-0.390625 0.390625 -0.953125 0.390625zm0.515625 9.515625q0 0.703125 0.046875 2.109375q0.046875 1.40625 0.046875 2.109375q0 0.515625 -0.328125 0.84375q-0.3125 0.328125 -0.828125 0.328125q-0.5 0 -0.828125 -0.328125q-0.3125 -0.328125 -0.3125 -0.84375q0 -0.703125 -0.046875 -2.109375q-0.046875 -1.40625 -0.046875 -2.109375q0 -1.09375 0.109375 -2.734375q0.125 -1.65625 0.125 -2.75q0 -0.53125 0.328125 -0.859375q0.328125 -0.328125 0.828125 -0.328125q0.5 0 0.8125 0.328125q0.328125 0.328125 0.328125 0.859375q0 1.09375 -0.125 2.75q-0.109375 1.640625 -0.109375 2.734375zm11.8828125 -3.703125q-0.65625 0 -0.90625 -0.421875q-0.171875 -0.3125 -0.3125 -1.265625q-0.875 0.21875 -2.703125 0.8125q-1.890625 0.75 -1.890625 1.859375q0.34375 0.125 0.6875 0.1875q2.6875 0.46875 4.0 1.3125q1.921875 1.234375 1.921875 3.5625q0 1.921875 -1.65625 2.890625q-1.375 0.796875 -3.46875 0.796875q-1.53125 0 -2.9375 -0.515625q-1.796875 -0.65625 -1.796875 -1.828125q0 -0.46875 0.359375 -0.8125q0.375 -0.359375 0.84375 -0.359375q0.359375 0 0.9375 0.5625q0.28125 0.265625 1.265625 0.4375q0.78125 0.140625 1.328125 0.140625q0.984375 0 1.734375 -0.234375q1.09375 -0.328125 1.09375 -1.078125q0 -1.59375 -2.234375 -2.15625l-1.21875 -0.265625q-1.5625 -0.34375 -2.21875 -0.796875q-0.9375 -0.65625 -0.9375 -1.984375q0 -2.4375 2.296875 -3.484375q0.703125 -0.3125 2.25 -0.75q1.546875 -0.453125 2.21875 -0.75q0.484375 -0.21875 1.046875 -0.21875q0.5 0 0.8125 0.328125q0.328125 0.328125 0.328125 0.859375q0 0.34375 0.140625 1.0q0.15625 0.65625 0.15625 1.0q0 0.515625 -0.328125 0.84375q-0.3125 0.328125 -0.8125 0.328125zm11.605469 -0.953125q-0.25 0 -0.578125 -0.015625q-0.328125 -0.03125 -0.578125 -0.03125q-0.265625 0 -1.59375 0.171875l0.21875 6.921875l0.015625 0.515625l0.015625 0.609375q0.046875 2.5625 -1.234375 2.5625q-0.46875 0 -0.8125 -0.3125q-0.34375 -0.296875 -0.34375 -0.75q0 -0.453125 0.03125 -1.34375q0.03125 -0.890625 0.03125 -1.328125l-0.234375 -6.84375q-0.859375 -0.046875 -2.59375 -0.203125q-1.046875 -0.140625 -1.046875 -1.15625q0 -0.515625 0.3125 -0.859375q0.3125 -0.34375 0.8125 -0.34375l2.453125 0.203125q0 -0.59375 -0.046875 -1.59375q-0.046875 -1.015625 -0.046875 -1.453125q0 -0.5 0.328125 -0.8125q0.34375 -0.328125 0.84375 -0.328125q1.046875 0 1.21875 1.71875q0.046875 0.4375 0.046875 1.046875l-0.03125 0.6875l-0.015625 0.71875q1.453125 -0.1875 1.671875 -0.1875q1.21875 0 1.59375 0.125q0.71875 0.234375 0.71875 1.09375q0 0.515625 -0.328125 0.859375q-0.328125 0.328125 -0.828125 0.328125zm8.949219 10.53125q-2.65625 0 -4.296875 -1.328125q-1.796875 -1.46875 -1.796875 -4.109375q0 -3.046875 1.484375 -5.109375q1.609375 -2.25 4.28125 -2.25q1.953125 0 3.1875 0.65625q1.5 0.8125 1.5 2.484375q0 1.171875 -1.3125 2.140625q-0.59375 0.421875 -2.484375 1.3125l-4.484375 2.109375q0.65625 0.984375 1.625 1.484375q0.984375 0.484375 2.296875 0.484375q0.796875 0 1.890625 -0.3125q1.390625 -0.390625 1.78125 -1.015625q0.40625 -0.625 0.859375 -0.625q0.40625 0 0.71875 0.3125q0.328125 0.3125 0.328125 0.71875q0 1.296875 -2.09375 2.234375q-1.796875 0.8125 -3.484375 0.8125zm-0.328125 -10.6875q-1.421875 0 -2.375 1.109375q-0.953125 1.109375 -1.421875 3.328125l3.609375 -1.703125q2.109375 -1.03125 3.015625 -1.796875q-1.0 -0.9375 -2.828125 -0.9375zm17.117188 1.484375q-0.078125 1.453125 -1.171875 1.453125q-1.015625 0 -1.015625 -1.15625q0 -0.21875 -0.03125 -0.8125l-0.03125 -0.984375q-1.859375 0.21875 -2.96875 1.03125q-1.046875 0.765625 -1.734375 2.296875l0.03125 6.421875q0 1.1875 -1.171875 1.1875q-1.03125 0 -1.03125 -1.1875l0 -8.21875q0 -0.390625 0.03125 -1.15625q0.03125 -0.78125 0.03125 -1.171875q0 -1.171875 1.03125 -1.171875q1.15625 0 1.15625 1.9375q2.25 -2.171875 5.0 -2.171875q0.953125 0 1.421875 0.71875q0.46875 0.71875 0.46875 2.15625q0 0.609375 -0.015625 0.828125zm17.21875 9.125q-3.65625 0 -5.4375 -2.09375q-1.453125 -1.6875 -1.828125 -5.0q-0.1875 -1.484375 -0.1875 -5.9375q0 -1.640625 0.078125 -2.65625q0.0625 -1.0625 0.203125 -1.484375q0.296875 -0.859375 1.0625 -0.859375q1.078125 0 1.078125 1.984375l0 6.875q0 7.109375 4.96875 7.109375q4.671875 0 4.671875 -11.953125q0 -0.453125 0 -1.15625q-0.015625 -0.703125 -0.015625 -0.9375q0 -0.71875 0.265625 -1.265625q0.328125 -0.703125 0.96875 -0.703125q1.171875 0 1.171875 1.59375q0 0.484375 0.015625 1.453125q0 0.984375 0 1.453125q0 13.578125 -7.015625 13.578125zm17.964844 -9.5q-0.65625 0 -0.90625 -0.421875q-0.171875 -0.3125 -0.3125 -1.265625q-0.875 0.21875 -2.703125 0.8125q-1.890625 0.75 -1.890625 1.859375q0.34375 0.125 0.6875 0.1875q2.6875 0.46875 4.0 1.3125q1.921875 1.234375 1.921875 3.5625q0 1.921875 -1.65625 2.890625q-1.375 0.796875 -3.46875 0.796875q-1.53125 0 -2.9375 -0.515625q-1.796875 -0.65625 -1.796875 -1.828125q0 -0.46875 0.359375 -0.8125q0.375 -0.359375 0.84375 -0.359375q0.359375 0 0.9375 0.5625q0.28125 0.265625 1.265625 0.4375q0.78125 0.140625 1.328125 0.140625q0.984375 0 1.734375 -0.234375q1.09375 -0.328125 1.09375 -1.078125q0 -1.59375 -2.234375 -2.15625l-1.21875 -0.265625q-1.5625 -0.34375 -2.21875 -0.796875q-0.9375 -0.65625 -0.9375 -1.984375q0 -2.4375 2.296875 -3.484375q0.703125 -0.3125 2.25 -0.75q1.546875 -0.453125 2.21875 -0.75q0.484375 -0.21875 1.046875 -0.21875q0.5 0 0.8125 0.328125q0.328125 0.328125 0.328125 0.859375q0 0.34375 0.140625 1.0q0.15625 0.65625 0.15625 1.0q0 0.515625 -0.328125 0.84375q-0.3125 0.328125 -0.8125 0.328125zm9.246094 9.578125q-2.65625 0 -4.296875 -1.328125q-1.796875 -1.46875 -1.796875 -4.109375q0 -3.046875 1.484375 -5.109375q1.609375 -2.25 4.28125 -2.25q1.953125 0 3.1875 0.65625q1.5 0.8125 1.5 2.484375q0 1.171875 -1.3125 2.140625q-0.59375 0.421875 -2.484375 1.3125l-4.484375 2.109375q0.65625 0.984375 1.625 1.484375q0.984375 0.484375 2.296875 0.484375q0.796875 0 1.890625 -0.3125q1.390625 -0.390625 1.78125 -1.015625q0.40625 -0.625 0.859375 -0.625q0.40625 0 0.71875 0.3125q0.328125 0.3125 0.328125 0.71875q0 1.296875 -2.09375 2.234375q-1.796875 0.8125 -3.484375 0.8125zm-0.328125 -10.6875q-1.421875 0 -2.375 1.109375q-0.953125 1.109375 -1.421875 3.328125l3.609375 -1.703125q2.109375 -1.03125 3.015625 -1.796875q-1.0 -0.9375 -2.828125 -0.9375zm17.117188 1.484375q-0.078125 1.453125 -1.171875 1.453125q-1.015625 0 -1.015625 -1.15625q0 -0.21875 -0.03125 -0.8125l-0.03125 -0.984375q-1.859375 0.21875 -2.96875 1.03125q-1.046875 0.765625 -1.734375 2.296875l0.03125 6.421875q0 1.1875 -1.171875 1.1875q-1.03125 0 -1.03125 -1.1875l0 -8.21875q0 -0.390625 0.03125 -1.15625q0.03125 -0.78125 0.03125 -1.171875q0 -1.171875 1.03125 -1.171875q1.15625 0 1.15625 1.9375q2.25 -2.171875 5.0 -2.171875q0.953125 0 1.421875 0.71875q0.46875 0.71875 0.46875 2.15625q0 0.609375 -0.015625 0.828125zm20.921875 -6.75q-0.21875 0 -0.453125 -0.09375q-1.453125 -0.53125 -3.84375 -0.53125q-0.765625 0 -1.8125 0.109375q-1.03125 0.109375 -2.328125 0.34375l-0.015625 5.0625q2.265625 -0.59375 3.390625 -0.59375q1.8125 0 3.75 0.203125q1.09375 0.125 1.09375 1.203125q0 0.53125 -0.34375 0.875q-0.328125 0.34375 -0.84375 0.34375q-0.609375 0 -1.828125 -0.109375q-1.21875 -0.109375 -1.828125 -0.109375q-0.796875 0 -3.4375 0.6875l-0.109375 8.0625q0 0.5 -0.328125 0.84375q-0.328125 0.359375 -0.828125 0.359375q-0.5 0 -0.84375 -0.359375q-0.328125 -0.34375 -0.328125 -0.84375q0 -2.3125 0.078125 -6.9375q0.09375 -4.625 0.09375 -6.921875q0 -0.515625 -0.015625 -1.546875q-0.015625 -1.046875 -0.015625 -1.5625q0 -0.515625 0.3125 -0.859375q0.328125 -0.359375 0.84375 -0.359375q0.390625 0 0.6875 0.203125q1.453125 -0.25 2.609375 -0.375q1.171875 -0.125 2.046875 -0.125q1.34375 0 3.078125 0.390625q2.359375 0.53125 2.359375 1.40625q0 0.46875 -0.296875 0.828125q-0.34375 0.40625 -0.84375 0.40625zm7.6289062 16.09375q-1.96875 0 -3.390625 -1.453125q-1.578125 -1.609375 -1.671875 -4.34375q-0.0625 -2.65625 1.34375 -4.671875q1.640625 -2.375 4.5625 -2.375q2.34375 0 3.5625 2.140625q0.953125 1.734375 0.921875 4.171875q-0.03125 2.609375 -1.359375 4.453125q-1.5 2.078125 -3.96875 2.078125zm0.703125 -10.46875q-1.734375 0 -2.6875 1.640625q-0.765625 1.328125 -0.765625 3.03125q0 1.703125 0.921875 2.640625q0.78125 0.796875 1.828125 0.796875q1.21875 0 2.09375 -0.890625q1.0 -0.984375 1.046875 -2.671875q0.171875 -4.53125 -2.4375 -4.546875zm16.636719 1.125q-0.078125 1.453125 -1.171875 1.453125q-1.015625 0 -1.015625 -1.15625q0 -0.21875 -0.03125 -0.8125l-0.03125 -0.984375q-1.859375 0.21875 -2.96875 1.03125q-1.046875 0.765625 -1.734375 2.296875l0.03125 6.421875q0 1.1875 -1.171875 1.1875q-1.03125 0 -1.03125 -1.1875l0 -8.21875q0 -0.390625 0.03125 -1.15625q0.03125 -0.78125 0.03125 -1.171875q0 -1.171875 1.03125 -1.171875q1.15625 0 1.15625 1.9375q2.25 -2.171875 5.0 -2.171875q0.953125 0 1.421875 0.71875q0.46875 0.71875 0.46875 2.15625q0 0.609375 -0.015625 0.828125zm17.296875 9.625q-0.96875 0 -1.125 -1.015625q-0.21875 -1.296875 -0.421875 -3.640625l-0.40625 -3.625q-0.109375 -0.8125 -0.390625 -1.578125q-0.40625 -1.0625 -0.875 -1.0625q-0.421875 0 -1.609375 0.734375q-1.125 0.6875 -1.484375 1.09375q0 1.109375 0.0625 2.203125l0.359375 3.125q0.21875 1.859375 0.21875 3.0625q0 0.515625 -0.328125 0.84375q-0.3125 0.34375 -0.828125 0.34375q-0.5 0 -0.828125 -0.34375q-0.3125 -0.328125 -0.3125 -0.84375q0 -1.421875 -0.296875 -4.1875q-0.28125 -2.765625 -0.28125 -4.1875q0 -1.25 -0.34375 -1.9375q-0.828125 0.375 -1.671875 1.21875l-1.375 1.546875q-0.1875 0.28125 -0.609375 0.734375q0 0.703125 -0.125 2.078125q-0.125 1.375 -0.125 2.03125q0 0.34375 0.109375 0.984375q0.109375 0.625 0.109375 0.90625q0 0.484375 -0.359375 0.8125q-0.359375 0.328125 -0.828125 0.328125q-1.328125 0 -1.328125 -3.015625q0 -0.703125 0.125 -2.09375q0.125 -1.390625 0.125 -2.09375q0 -0.625 -0.109375 -1.859375q-0.109375 -1.25 -0.109375 -1.875q0 -2.671875 1.203125 -2.671875q0.453125 0 0.828125 0.40625q0.390625 0.390625 0.390625 0.859375q0 0.234375 -0.0625 0.703125q-0.0625 0.46875 -0.0625 0.703125l0.03125 1.234375q0.609375 -1.25 1.78125 -2.265625q1.1875 -1.015625 2.015625 -1.015625q1.84375 0 2.53125 1.828125q0.65625 -0.859375 1.546875 -1.28125q0.890625 -0.421875 2.03125 -0.421875q1.953125 0 2.671875 2.109375q0.140625 0.421875 0.484375 3.28125q0.328125 2.015625 0.84375 6.71875q0.03125 0.46875 -0.328125 0.796875q-0.34375 0.328125 -0.84375 0.328125z" fill-rule="nonzero"/><path fill="#000000" fill-opacity="0.0" d="m170.87401 148.4672l428.5984 -1.0078735" fill-rule="evenodd"/><path stroke="#000000" stroke-width="1.0" stroke-linejoin="round" stroke-linecap="butt" d="m170.87401 148.4672l428.5984 -1.0078735" fill-rule="evenodd"/><path fill="#000000" fill-opacity="0.0" d="m538.0945 109.92126l0 0c0 -10.680405 8.20697 -19.338577 18.330688 -19.338577c10.123779 0 18.33075 8.658173 18.33075 19.338577c0 10.680405 -8.20697 19.338585 -18.33075 19.338585c-10.123718 0 -18.330688 -8.65818 -18.330688 -19.338585z" fill-rule="evenodd"/><path fill="#000000" fill-opacity="0.0" d="m548.6431 104.13759c0 -1.1125412 0.85491943 -2.0144348 1.9094238 -2.0144348c1.0545654 0 1.9094849 0.9018936 1.9094849 2.0144348c0 1.1125412 -0.85491943 2.0144348 -1.9094849 2.0144348c-1.0545044 0 -1.9094238 -0.9018936 -1.9094238 -2.0144348m11.745239 0c0 -1.1125412 0.8548584 -2.0144348 1.9094238 -2.0144348c1.0545654 0 1.9094849 0.9018936 1.9094849 2.0144348c0 1.1125412 -0.85491943 2.0144348 -1.9094849 2.0144348c-1.0545654 0 -1.9094238 -0.9018936 -1.9094238 -2.0144348" fill-rule="evenodd"/><path fill="#000000" fill-opacity="0.0" d="m546.4898 118.35494q9.935364 7.198593 19.847534 0" fill-rule="evenodd"/><path fill="#000000" fill-opacity="0.0" d="m538.0945 109.92126l0 0c0 -10.680405 8.20697 -19.338577 18.330688 -19.338577c10.123779 0 18.33075 8.658173 18.33075 19.338577c0 10.680405 -8.20697 19.338585 -18.33075 19.338585c-10.123718 0 -18.330688 -8.65818 -18.330688 -19.338585z" fill-rule="evenodd"/><path fill="#000000" fill-opacity="0.2" d="m548.6431 104.13759c0 -1.1125412 0.85491943 -2.0144348 1.9094238 -2.0144348c1.0545654 0 1.9094849 0.9018936 1.9094849 2.0144348c0 1.1125412 -0.85491943 2.0144348 -1.9094849 2.0144348c-1.0545044 0 -1.9094238 -0.9018936 -1.9094238 -2.0144348m11.745239 0c0 -1.1125412 0.8548584 -2.0144348 1.9094238 -2.0144348c1.0545654 0 1.9094849 0.9018936 1.9094849 2.0144348c0 1.1125412 -0.85491943 2.0144348 -1.9094849 2.0144348c-1.0545654 0 -1.9094238 -0.9018936 -1.9094238 -2.0144348" fill-rule="evenodd"/><path stroke="#000000" stroke-width="1.0" stroke-linejoin="round" stroke-linecap="butt" d="m548.6431 104.13759c0 -1.1125412 0.85491943 -2.0144348 1.9094238 -2.0144348c1.0545654 0 1.9094849 0.9018936 1.9094849 2.0144348c0 1.1125412 -0.85491943 2.0144348 -1.9094849 2.0144348c-1.0545044 0 -1.9094238 -0.9018936 -1.9094238 -2.0144348m11.745239 0c0 -1.1125412 0.8548584 -2.0144348 1.9094238 -2.0144348c1.0545654 0 1.9094849 0.9018936 1.9094849 2.0144348c0 1.1125412 -0.85491943 2.0144348 -1.9094849 2.0144348c-1.0545654 0 -1.9094238 -0.9018936 -1.9094238 -2.0144348" fill-rule="evenodd"/><path stroke="#000000" stroke-width="1.0" stroke-linejoin="round" stroke-linecap="butt" d="m546.4898 118.35494q9.935364 7.198593 19.847534 0" fill-rule="evenodd"/><path stroke="#000000" stroke-width="1.0" stroke-linejoin="round" stroke-linecap="butt" d="m538.0945 109.92126l0 0c0 -10.680405 8.20697 -19.338577 18.330688 -19.338577c10.123779 0 18.33075 8.658173 18.33075 19.338577c0 10.680405 -8.20697 19.338585 -18.33075 19.338585c-10.123718 0 -18.330688 -8.65818 -18.330688 -19.338585z" fill-rule="evenodd"/><path fill="#000000" fill-opacity="0.0" d="m148.47769 7.9790025l4.0629883 485.6063" fill-rule="evenodd"/><path stroke="#000000" stroke-width="1.0" stroke-linejoin="round" stroke-linecap="butt" d="m148.47769 7.9790025l4.0629883 485.6063" fill-rule="evenodd"/><path fill="#000000" fill-opacity="0.0" d="m36.49344 95.24147l83.49606 0l0 51.905518l-83.49606 0z" fill-rule="evenodd"/><path fill="#000000" d="m58.759064 109.33334q-0.140625 0.375 -0.140625 1.109375q0 0.28125 0.015625 0.828125q0.015625 0.53125 0.015625 0.796875q0 0.90625 -0.15625 2.71875q-0.15625 1.796875 -0.15625 2.703125q0 0.703125 0.09375 2.09375q0.109375 1.375 0.109375 2.078125q0 0.375 -0.25 0.625q-0.25 0.25 -0.625 0.25q-0.359375 0 -0.625 -0.25q-0.25 -0.25 -0.25 -0.625q0 -0.703125 -0.109375 -2.078125q-0.09375 -1.390625 -0.09375 -2.09375q0 -0.65625 0.046875 -1.34375q-1.5625 0.03125 -3.859375 0.46875l-3.8125 0.75q0 0.8125 -0.171875 2.328125q-0.15625 1.5 -0.15625 2.328125q0 0.375 -0.265625 0.625q-0.25 0.265625 -0.609375 0.265625q-0.375 0 -0.625 -0.265625q-0.25 -0.25 -0.25 -0.625q0 -0.96875 0.15625 -2.875q0.15625 -1.921875 0.15625 -2.890625q0 -0.5 -0.046875 -1.5q-0.03125 -1.015625 -0.03125 -1.53125q0 -0.71875 0.09375 -2.15625q0.09375 -1.453125 0.09375 -2.171875q0 -0.375 0.25 -0.625q0.25 -0.265625 0.625 -0.265625q0.375 0 0.625 0.265625q0.25 0.25 0.25 0.625q0 0.734375 -0.09375 2.1875q-0.09375 1.453125 -0.09375 2.171875l0.046875 2.3125l3.90625 -0.734375q2.34375 -0.4375 3.953125 -0.453125q0.09375 -1.3125 0.09375 -3.9375q0 -0.6875 0.234375 -1.40625q0.296875 -0.96875 0.84375 -0.96875q0.34375 0 0.609375 0.25q0.28125 0.25 0.28125 0.640625q0 0.125 -0.078125 0.375zm5.751114 13.359375q-1.53125 0 -2.640625 -1.125q-1.234375 -1.25 -1.296875 -3.375q-0.046875 -2.0625 1.046875 -3.625q1.265625 -1.859375 3.546875 -1.859375q1.828125 0 2.765625 1.671875q0.75 1.34375 0.71875 3.25q-0.03125 2.015625 -1.0625 3.453125q-1.15625 1.609375 -3.078125 1.609375zm0.546875 -8.125q-1.34375 -0.015625 -2.09375 1.265625q-0.59375 1.03125 -0.59375 2.359375q0 1.3125 0.71875 2.0625q0.609375 0.609375 1.421875 0.609375q0.9375 0 1.625 -0.703125q0.78125 -0.765625 0.8125 -2.0625q0.140625 -3.53125 -1.890625 -3.53125zm17.404678 8.34375q-0.734375 0 -0.875 -0.78125q-0.15625 -1.0 -0.3125 -2.828125l-0.3125 -2.828125q-0.09375 -0.625 -0.3125 -1.234375q-0.3125 -0.8125 -0.671875 -0.8125q-0.34375 0 -1.265625 0.578125q-0.875 0.53125 -1.140625 0.84375q-0.015625 0.859375 0.046875 1.71875l0.265625 2.421875q0.171875 1.4375 0.171875 2.375q0 0.40625 -0.25 0.65625q-0.25 0.265625 -0.640625 0.265625q-0.390625 0 -0.640625 -0.265625q-0.25 -0.25 -0.25 -0.65625q0 -1.09375 -0.234375 -3.25q-0.21875 -2.15625 -0.21875 -3.25q0 -0.96875 -0.265625 -1.515625q-0.640625 0.296875 -1.296875 0.953125l-1.078125 1.203125q-0.140625 0.21875 -0.453125 0.578125q0 0.546875 -0.109375 1.609375q-0.09375 1.0625 -0.09375 1.578125q0 0.265625 0.078125 0.765625q0.09375 0.484375 0.09375 0.703125q0 0.375 -0.28125 0.625q-0.28125 0.265625 -0.65625 0.265625q-1.015625 0 -1.015625 -2.34375q0 -0.546875 0.09375 -1.625q0.09375 -1.09375 0.09375 -1.640625q0 -0.484375 -0.09375 -1.4375q-0.078125 -0.96875 -0.078125 -1.46875q0 -2.0625 0.9375 -2.0625q0.34375 0 0.640625 0.3125q0.296875 0.3125 0.296875 0.671875q0 0.171875 -0.046875 0.546875q-0.03125 0.359375 -0.03125 0.546875l0.015625 0.953125q0.46875 -0.96875 1.390625 -1.75q0.921875 -0.796875 1.5625 -0.796875q1.4375 0 1.96875 1.421875q0.5 -0.671875 1.1875 -1.0q0.703125 -0.328125 1.59375 -0.328125q1.515625 0 2.078125 1.640625q0.109375 0.328125 0.375 2.546875q0.25 1.578125 0.65625 5.21875q0.03125 0.375 -0.25 0.625q-0.265625 0.25 -0.671875 0.25zm7.18071 -0.328125q-2.046875 0 -3.328125 -1.03125q-1.390625 -1.140625 -1.390625 -3.1875q0 -2.375 1.140625 -3.96875q1.25 -1.75 3.34375 -1.75q1.5 0 2.46875 0.5q1.171875 0.640625 1.171875 1.9375q0 0.90625 -1.03125 1.65625q-0.453125 0.328125 -1.9375 1.015625l-3.46875 1.65625q0.5 0.75 1.265625 1.140625q0.765625 0.375 1.765625 0.375q0.640625 0 1.484375 -0.234375q1.078125 -0.296875 1.375 -0.78125q0.3125 -0.484375 0.671875 -0.484375q0.3125 0 0.5625 0.234375q0.25 0.234375 0.25 0.5625q0 1.015625 -1.625 1.734375q-1.390625 0.625 -2.71875 0.625zm-0.234375 -8.296875q-1.125 0 -1.859375 0.859375q-0.734375 0.859375 -1.09375 2.59375l2.796875 -1.328125q1.640625 -0.8125 2.34375 -1.40625q-0.78125 -0.71875 -2.1875 -0.71875z" fill-rule="nonzero"/><path fill="#000000" fill-opacity="0.0" d="m36.49344 143.24147l83.49606 0l0 51.905518l-83.49606 0z" fill-rule="evenodd"/><path fill="#000000" d="m52.696564 170.52084q-2.84375 0 -4.234375 -1.625q-1.125 -1.3125 -1.421875 -3.875q-0.140625 -1.15625 -0.140625 -4.625q0 -1.28125 0.0625 -2.0625q0.046875 -0.828125 0.15625 -1.15625q0.234375 -0.65625 0.828125 -0.65625q0.828125 0 0.828125 1.53125l0 5.34375q0 5.53125 3.875 5.53125q3.625 0 3.625 -9.296875q0 -0.34375 0 -0.890625q0 -0.546875 0 -0.734375q0 -0.5625 0.203125 -0.984375q0.25 -0.546875 0.75 -0.546875q0.90625 0 0.90625 1.25q0 0.375 0.015625 1.125q0 0.75 0 1.125q0 10.546875 -5.453125 10.546875zm13.964981 -7.375q-0.5 0 -0.703125 -0.328125q-0.140625 -0.25 -0.234375 -0.984375q-0.6875 0.171875 -2.109375 0.625q-1.46875 0.59375 -1.484375 1.4375q0.28125 0.109375 0.546875 0.15625q2.09375 0.375 3.109375 1.03125q1.484375 0.953125 1.484375 2.765625q0 1.484375 -1.28125 2.234375q-1.0625 0.625 -2.703125 0.625q-1.1875 0 -2.265625 -0.40625q-1.40625 -0.5 -1.40625 -1.421875q0 -0.359375 0.28125 -0.625q0.296875 -0.28125 0.65625 -0.28125q0.28125 0 0.734375 0.4375q0.21875 0.203125 0.984375 0.34375q0.609375 0.109375 1.015625 0.109375q0.765625 0 1.359375 -0.171875q0.84375 -0.265625 0.84375 -0.84375q0 -1.234375 -1.734375 -1.671875l-0.9375 -0.21875q-1.21875 -0.265625 -1.734375 -0.609375q-0.734375 -0.515625 -0.734375 -1.546875q0 -1.90625 1.796875 -2.71875q0.546875 -0.234375 1.75 -0.578125q1.203125 -0.34375 1.71875 -0.578125q0.375 -0.171875 0.8125 -0.171875q0.390625 0 0.640625 0.265625q0.25 0.25 0.25 0.65625q0 0.265625 0.109375 0.78125q0.125 0.5 0.125 0.765625q0 0.40625 -0.25 0.671875q-0.25 0.25 -0.640625 0.25zm7.1759186 7.4375q-2.046875 0 -3.328125 -1.03125q-1.390625 -1.140625 -1.390625 -3.1875q0 -2.375 1.140625 -3.96875q1.25 -1.75 3.34375 -1.75q1.5 0 2.46875 0.5q1.171875 0.640625 1.171875 1.9375q0 0.90625 -1.03125 1.65625q-0.453125 0.328125 -1.9375 1.015625l-3.46875 1.65625q0.5 0.75 1.265625 1.140625q0.765625 0.375 1.765625 0.375q0.640625 0 1.484375 -0.234375q1.078125 -0.296875 1.375 -0.78125q0.3125 -0.484375 0.671875 -0.484375q0.3125 0 0.5625 0.234375q0.25 0.234375 0.25 0.5625q0 1.015625 -1.625 1.734375q-1.390625 0.625 -2.71875 0.625zm-0.234375 -8.296875q-1.125 0 -1.859375 0.859375q-0.734375 0.859375 -1.09375 2.59375l2.796875 -1.328125q1.640625 -0.8125 2.34375 -1.40625q-0.78125 -0.71875 -2.1875 -0.71875zm13.298981 1.140625q-0.0625 1.140625 -0.921875 1.140625q-0.78125 0 -0.78125 -0.90625q0 -0.171875 -0.03125 -0.625l-0.015625 -0.765625q-1.4375 0.171875 -2.3125 0.796875q-0.8125 0.59375 -1.34375 1.796875l0.015625 4.984375q0 0.921875 -0.90625 0.921875q-0.796875 0 -0.796875 -0.921875l0 -6.390625q0 -0.296875 0.015625 -0.890625q0.03125 -0.609375 0.03125 -0.921875q0 -0.90625 0.796875 -0.90625q0.890625 0 0.90625 1.5q1.75 -1.671875 3.875 -1.671875q0.75 0 1.109375 0.5625q0.359375 0.546875 0.359375 1.65625q0 0.484375 0 0.640625zm8.026245 -0.28125q-0.5 0 -0.703125 -0.328125q-0.140625 -0.25 -0.234375 -0.984375q-0.6875 0.171875 -2.109375 0.625q-1.46875 0.59375 -1.484375 1.4375q0.28125 0.109375 0.546875 0.15625q2.09375 0.375 3.109375 1.03125q1.484375 0.953125 1.484375 2.765625q0 1.484375 -1.28125 2.234375q-1.0625 0.625 -2.703125 0.625q-1.1875 0 -2.265625 -0.40625q-1.40625 -0.5 -1.40625 -1.421875q0 -0.359375 0.28125 -0.625q0.296875 -0.28125 0.65625 -0.28125q0.28125 0 0.734375 0.4375q0.21875 0.203125 0.984375 0.34375q0.609375 0.109375 1.015625 0.109375q0.765625 0 1.359375 -0.171875q0.84375 -0.265625 0.84375 -0.84375q0 -1.234375 -1.734375 -1.671875l-0.9375 -0.21875q-1.21875 -0.265625 -1.734375 -0.609375q-0.734375 -0.515625 -0.734375 -1.546875q0 -1.90625 1.796875 -2.71875q0.546875 -0.234375 1.75 -0.578125q1.203125 -0.34375 1.71875 -0.578125q0.375 -0.171875 0.8125 -0.171875q0.390625 0 0.640625 0.265625q0.25 0.25 0.25 0.65625q0 0.265625 0.109375 0.78125q0.125 0.5 0.125 0.765625q0 0.40625 -0.25 0.671875q-0.25 0.25 -0.640625 0.25z" fill-rule="nonzero"/><path fill="#000000" fill-opacity="0.0" d="m36.49344 183.24147l83.49606 0l0 51.905518l-83.49606 0z" fill-rule="evenodd"/><path fill="#000000" d="m54.83719 209.78647q-1.03125 0.484375 -3.234375 0.859375q-2.03125 0.359375 -3.328125 0.359375q-0.90625 0 -1.3125 -0.28125q-0.546875 -0.375 -0.546875 -1.40625l0.1875 -3.015625q0.234375 -4.171875 0.234375 -9.25q0 -0.390625 0.25 -0.65625q0.265625 -0.28125 0.640625 -0.28125q0.390625 0 0.65625 0.28125q0.265625 0.265625 0.265625 0.65625q0 5.140625 -0.25 9.359375l-0.125 1.390625q-0.0625 0.75 -0.046875 1.34375q2.375 0.015625 6.015625 -1.125q0.15625 -0.046875 0.28125 -0.046875q0.390625 0 0.65625 0.3125q0.234375 0.28125 0.234375 0.640625q0 0.59375 -0.578125 0.859375zm5.6192627 0.90625q-1.53125 0 -2.640625 -1.125q-1.234375 -1.25 -1.296875 -3.375q-0.046875 -2.0625 1.046875 -3.625q1.265625 -1.859375 3.546875 -1.859375q1.828125 0 2.765625 1.671875q0.75 1.34375 0.71875 3.25q-0.03125 2.015625 -1.0625 3.453125q-1.15625 1.609375 -3.078125 1.609375zm0.546875 -8.125q-1.34375 -0.015625 -2.09375 1.265625q-0.59375 1.03125 -0.59375 2.359375q0 1.3125 0.71875 2.0625q0.609375 0.609375 1.421875 0.609375q0.9375 0 1.625 -0.703125q0.78125 -0.765625 0.8125 -2.0625q0.140625 -3.53125 -1.890625 -3.53125zm13.342178 3.671875l-0.21875 3.0625q-0.046875 1.8125 -0.359375 2.96875q-0.421875 1.484375 -1.3125 2.1875q-1.09375 0.84375 -3.171875 0.84375q-1.203125 0 -2.03125 -0.171875q-1.140625 -0.21875 -1.140625 -0.9375q0 -0.8125 0.796875 -0.8125q0.328125 0 1.078125 0.15625q0.765625 0.15625 1.703125 0.140625q1.75 -0.03125 2.40625 -1.6875q0.4375 -1.125 0.46875 -3.421875q-0.484375 0.90625 -1.171875 1.375q-0.671875 0.453125 -1.546875 0.453125q-1.65625 0 -2.6875 -1.125q-1.03125 -1.125 -1.03125 -2.921875q0 -2.46875 1.40625 -3.96875q1.46875 -1.546875 3.984375 -1.546875q0.84375 0 1.40625 0.21875q0.578125 0.21875 0.875 0.65625q0.984375 0.03125 0.984375 1.078125q0 0.65625 -0.1875 1.734375q-0.21875 1.265625 -0.25 1.71875zm-2.921875 -3.953125q-1.734375 0 -2.6875 1.203125q-0.84375 1.0625 -0.84375 2.734375q0 1.3125 0.5 1.984375q0.5 0.65625 1.5 0.65625q0.921875 0 1.796875 -1.03125q0.78125 -0.953125 0.890625 -1.90625q0.1875 -0.96875 0.40625 -3.078125q-0.359375 -0.28125 -0.75 -0.421875q-0.390625 -0.140625 -0.8125 -0.140625zm8.745773 8.40625q-1.53125 0 -2.640625 -1.125q-1.234375 -1.25 -1.296875 -3.375q-0.046875 -2.0625 1.046875 -3.625q1.265625 -1.859375 3.546875 -1.859375q1.828125 0 2.765625 1.671875q0.75 1.34375 0.71875 3.25q-0.03125 2.015625 -1.0625 3.453125q-1.15625 1.609375 -3.078125 1.609375zm0.546875 -8.125q-1.34375 -0.015625 -2.09375 1.265625q-0.59375 1.03125 -0.59375 2.359375q0 1.3125 0.71875 2.0625q0.609375 0.609375 1.421875 0.609375q0.9375 0 1.625 -0.703125q0.78125 -0.765625 0.8125 -2.0625q0.140625 -3.53125 -1.890625 -3.53125zm13.279678 2.28125q0 0.640625 0 1.953125q0.015625 1.3125 0.015625 1.96875q0 0.203125 0.03125 0.625q0.03125 0.40625 0.03125 0.609375q0 0.390625 -0.265625 0.640625q-0.265625 0.25 -0.640625 0.25q-0.703125 0 -0.890625 -0.875q-1.140625 0.59375 -2.625 0.59375q-1.203125 0 -1.984375 -0.53125q-0.859375 -0.578125 -1.03125 -1.703125q-0.34375 -2.40625 -0.34375 -4.296875q0 -1.25 0.265625 -2.84375q0.125 -0.78125 0.859375 -0.78125q0.390625 0 0.65625 0.25q0.265625 0.25 0.265625 0.640625q0 0.40625 -0.140625 1.328125q-0.125 0.921875 -0.125 1.40625q0 1.515625 0.09375 2.609375q0.109375 1.078125 0.3125 1.734375q0.296875 0.171875 0.59375 0.265625q0.296875 0.078125 0.578125 0.078125q1.21875 0 2.578125 -0.390625l-0.015625 -1.859375l-0.015625 -1.765625q0 -1.96875 0.171875 -3.40625q0.09375 -0.84375 0.890625 -0.84375q0.390625 0 0.640625 0.265625q0.265625 0.25 0.25 0.625l-0.15625 3.453125zm8.357864 -2.453125q-0.1875 0 -0.453125 -0.015625q-0.25 -0.015625 -0.453125 -0.015625q-0.203125 0 -1.234375 0.140625l0.171875 5.375l0.015625 0.40625l0 0.46875q0.046875 1.984375 -0.953125 1.984375q-0.359375 0 -0.640625 -0.234375q-0.265625 -0.234375 -0.265625 -0.59375q0 -0.34375 0.03125 -1.03125q0.03125 -0.703125 0.03125 -1.046875l-0.1875 -5.3125q-0.65625 -0.03125 -2.015625 -0.15625q-0.8125 -0.109375 -0.8125 -0.90625q0 -0.390625 0.234375 -0.65625q0.25 -0.265625 0.640625 -0.265625l1.90625 0.15625q0 -0.46875 -0.046875 -1.25q-0.03125 -0.78125 -0.03125 -1.125q0 -0.375 0.265625 -0.625q0.265625 -0.25 0.640625 -0.25q0.828125 0 0.96875 1.328125q0.015625 0.34375 0.015625 0.8125l-0.015625 0.53125l0 0.5625q1.125 -0.140625 1.28125 -0.140625q0.953125 0 1.25 0.09375q0.546875 0.171875 0.546875 0.84375q0 0.40625 -0.25 0.671875q-0.25 0.25 -0.640625 0.25z" fill-rule="nonzero"/><path fill="#000000" fill-opacity="0.0" d="m12.060368 83.31233l584.34644 -5.102356" fill-rule="evenodd"/><path stroke="#000000" stroke-width="1.0" stroke-linejoin="round" stroke-linecap="butt" d="m12.060368 83.31233l584.34644 -5.102356" fill-rule="evenodd"/><path fill="#000000" fill-opacity="0.0" d="m367.4882 30.375328l143.2756 0l0 29.51181l-143.2756 0z" fill-rule="evenodd"/><path stroke="#000000" stroke-width="1.0" stroke-linejoin="round" stroke-linecap="butt" d="m367.4882 30.375328l143.2756 0l0 29.51181l-143.2756 0z" fill-rule="evenodd"/><path fill="#000000" fill-opacity="0.0" d="m367.4882 26.312336l121.13385 0l0 33.574802l-121.13385 0z" fill-rule="evenodd"/><path fill="#000000" d="m377.70694 50.96671q0 -0.390625 0.265625 -0.625q0.265625 -0.25 0.65625 -0.25q0.453125 0 0.78125 0.515625q0.46875 0.6875 0.828125 0.9375q0.78125 0.515625 2.25 0.515625q1.421875 0 2.625 -0.609375q1.546875 -0.78125 1.546875 -2.1875q0 -1.140625 -1.296875 -1.8125q-1.109375 -0.5625 -2.71875 -0.609375q-1.453125 -0.0625 -2.453125 -0.625q-1.296875 -0.75 -1.296875 -2.125q0 -1.625 1.84375 -2.953125q1.75 -1.265625 3.625 -1.265625q0.890625 0 2.0 0.296875q1.46875 0.390625 1.46875 1.0q0 0.796875 -0.8125 0.796875q-0.359375 0 -1.28125 -0.1875q-0.90625 -0.203125 -1.40625 -0.1875q-1.421875 0.015625 -2.421875 0.703125q-1.015625 0.703125 -1.015625 1.703125q0 0.75 1.34375 1.0625q0.515625 0.125 1.953125 0.21875q2.078125 0.15625 3.25 1.3125q1.078125 1.0625 1.078125 2.578125q0 2.171875 -2.0 3.46875q-1.734375 1.109375 -4.03125 1.109375q-1.671875 0 -3.0625 -0.640625q-1.6875 -0.78125 -1.71875 -2.140625zm17.23236 2.6875q-2.046875 0 -3.328125 -1.03125q-1.390625 -1.140625 -1.390625 -3.1875q0 -2.375 1.140625 -3.96875q1.25 -1.75 3.34375 -1.75q1.5 0 2.46875 0.5q1.171875 0.640625 1.171875 1.9375q0 0.90625 -1.03125 1.65625q-0.453125 0.328125 -1.9375 1.015625l-3.46875 1.65625q0.5 0.75 1.265625 1.140625q0.765625 0.375 1.765625 0.375q0.640625 0 1.484375 -0.234375q1.078125 -0.296875 1.375 -0.78125q0.3125 -0.484375 0.671875 -0.484375q0.3125 0 0.5625 0.234375q0.25 0.234375 0.25 0.5625q0 1.015625 -1.625 1.734375q-1.390625 0.625 -2.71875 0.625zm-0.234375 -8.296875q-1.125 0 -1.859375 0.859375q-0.734375 0.859375 -1.09375 2.59375l2.796875 -1.328125q1.640625 -0.8125 2.34375 -1.40625q-0.78125 -0.71875 -2.1875 -0.71875zm13.314606 8.46875q-0.171875 0 -0.625 -0.390625q-0.40625 -0.375 -0.609375 -0.671875q-0.875 0.484375 -1.546875 0.71875q-0.65625 0.234375 -1.109375 0.234375q-2.125 0 -3.09375 -1.1875q-0.921875 -1.140625 -0.921875 -3.46875q0 -2.203125 1.515625 -3.765625q1.515625 -1.578125 3.625 -1.578125q0.78125 0 1.765625 0.421875q1.25 0.5 1.25 1.21875q0 0.25 -0.1875 0.4375q-0.09375 0.34375 -0.140625 1.140625q-0.046875 0.796875 -0.0625 2.03125q-0.015625 1.125 0.15625 1.78125q0.09375 0.40625 0.578125 1.609375q0.0625 0.171875 0.203125 0.484375l0.0625 0.15625q0 0.359375 -0.265625 0.59375q-0.25 0.234375 -0.59375 0.234375zm-1.890625 -6.328125q0 -0.390625 0.046875 -0.84375q0.0625 -0.46875 0.15625 -0.984375q-0.34375 -0.171875 -0.59375 -0.25q-0.234375 -0.078125 -0.375 -0.078125q-1.40625 0 -2.4375 1.15625q-1.015625 1.140625 -1.015625 2.640625q0 1.5 0.515625 2.25q0.53125 0.734375 1.59375 0.734375q0.875 0 1.484375 -0.3125q0.328125 -0.171875 0.921875 -0.6875q-0.296875 -2.421875 -0.296875 -3.625zm11.421753 -1.0q-0.0625 1.140625 -0.921875 1.140625q-0.78125 0 -0.78125 -0.90625q0 -0.171875 -0.03125 -0.625l-0.015625 -0.765625q-1.4375 0.171875 -2.3125 0.796875q-0.8125 0.59375 -1.34375 1.796875l0.015625 4.984375q0 0.921875 -0.90625 0.921875q-0.796875 0 -0.796875 -0.921875l0 -6.390625q0 -0.296875 0.015625 -0.890625q0.03125 -0.609375 0.03125 -0.921875q0 -0.90625 0.796875 -0.90625q0.890625 0 0.90625 1.5q1.75 -1.671875 3.875 -1.671875q0.75 0 1.109375 0.5625q0.359375 0.546875 0.359375 1.65625q0 0.484375 0 0.640625zm5.994995 7.3125q-1.875 0 -3.125 -1.140625q-1.3125 -1.171875 -1.3125 -3.125q0 -1.84375 1.234375 -3.8125q1.359375 -2.1875 3.078125 -2.1875q0.890625 0 2.0 0.421875q1.390625 0.53125 1.390625 1.3125q0 0.34375 -0.234375 0.625q-0.21875 0.265625 -0.5625 0.265625q-0.265625 0 -0.46875 -0.15625q-0.1875 -0.171875 -0.375 -0.328125q-0.53125 -0.421875 -1.75 -0.421875q-0.921875 0 -1.84375 1.65625q-0.828125 1.515625 -0.828125 2.625q0 1.203125 0.828125 1.90625q0.765625 0.640625 1.96875 0.640625q0.546875 0 1.15625 -0.296875l1.0625 -0.5625q0.265625 -0.140625 0.390625 -0.140625q0.328125 0 0.578125 0.265625q0.25 0.265625 0.25 0.625q0 0.65625 -1.40625 1.28125q-1.234375 0.546875 -2.03125 0.546875zm13.083191 -0.015625q-0.640625 0 -0.84375 -0.6875q-0.21875 -0.75 -0.390625 -2.125q-0.15625 -1.328125 -0.15625 -2.171875q0 -0.234375 0.015625 -0.71875q0.03125 -0.484375 0.03125 -0.71875q0 -1.703125 -0.859375 -1.703125q-1.15625 0 -2.0625 1.046875q-0.46875 0.53125 -1.28125 2.046875q0 3.46875 -0.296875 4.109375q-0.25 0.5625 -0.78125 0.5625q-0.375 0 -0.65625 -0.25q-0.28125 -0.265625 -0.28125 -0.625q0 -0.125 0.078125 -0.40625q0.0625 -0.21875 0.09375 -1.328125l0.03125 -1.34375l0.03125 -6.703125q0.0625 -1.125 0.0625 -1.515625q0 -0.46875 -0.09375 -0.875q-0.078125 -0.421875 -0.078125 -0.859375q0 -0.390625 0.265625 -0.640625q0.265625 -0.25 0.640625 -0.25q0.75 0 0.875 0.796875q0.140625 0.890625 0.140625 1.59375q0 0.96875 -0.0625 2.0q-0.046875 1.0 -0.046875 2.0l0.015625 0.796875q0.75 -1.0 1.59375 -1.5q0.859375 -0.5 1.8125 -0.5q1.515625 0 2.078125 0.984375q0.40625 0.703125 0.453125 2.34375l0.078125 1.734375l0.171875 1.890625q0.125 1.0625 0.3125 1.875q0.03125 0.15625 0.03125 0.265625q0 0.375 -0.265625 0.625q-0.265625 0.25 -0.65625 0.25zm4.323395 0.28125q-0.484375 0 -0.8125 -0.328125q-0.328125 -0.328125 -0.328125 -0.796875q0 -0.46875 0.328125 -0.796875q0.328125 -0.328125 0.8125 -0.328125q0.453125 0 0.78125 0.328125q0.34375 0.328125 0.34375 0.796875q0 0.46875 -0.34375 0.796875q-0.328125 0.328125 -0.78125 0.328125zm4.6458435 0q-0.484375 0 -0.8125 -0.328125q-0.328125 -0.328125 -0.328125 -0.796875q0 -0.46875 0.328125 -0.796875q0.328125 -0.328125 0.8125 -0.328125q0.453125 0 0.78125 0.328125q0.34375 0.328125 0.34375 0.796875q0 0.46875 -0.34375 0.796875q-0.328125 0.328125 -0.78125 0.328125zm4.6458435 0q-0.484375 0 -0.8125 -0.328125q-0.328125 -0.328125 -0.328125 -0.796875q0 -0.46875 0.328125 -0.796875q0.328125 -0.328125 0.8125 -0.328125q0.453125 0 0.78125 0.328125q0.34375 0.328125 0.34375 0.796875q0 0.46875 -0.34375 0.796875q-0.328125 0.328125 -0.78125 0.328125z" fill-rule="nonzero"/><path fill="#000000" fill-opacity="0.0" d="m484.04724 446.5933l0 0c0 -3.0905457 2.505371 -5.5959167 5.5959167 -5.5959167l60.965668 0c1.4841309 0 2.9074707 0.5895691 3.9569092 1.6390076c1.0494385 1.0494385 1.638977 2.4727783 1.638977 3.9569092l0 22.382965c0 3.0905457 -2.505371 5.5959167 -5.595886 5.5959167l-60.965668 0c-3.0905457 0 -5.5959167 -2.505371 -5.5959167 -5.5959167z" fill-rule="evenodd"/><path stroke="#000000" stroke-width="1.0" stroke-linejoin="round" stroke-linecap="butt" d="m484.04724 446.5933l0 0c0 -3.0905457 2.505371 -5.5959167 5.5959167 -5.5959167l60.965668 0c1.4841309 0 2.9074707 0.5895691 3.9569092 1.6390076c1.0494385 1.0494385 1.638977 2.4727783 1.638977 3.9569092l0 22.382965c0 3.0905457 -2.505371 5.5959167 -5.595886 5.5959167l-60.965668 0c-3.0905457 0 -5.5959167 -2.505371 -5.5959167 -5.5959167z" fill-rule="evenodd"/><path fill="#000000" d="m506.7331 461.9104q0 0.375 -0.125 1.25q-0.125 0.796875 -0.84375 0.796875q-0.421875 0 -1.015625 -0.578125q-3.1875 -3.0 -7.296875 -8.671875l-0.046875 1.765625l-0.015625 1.78125q0 0.65625 0.015625 1.953125q0.03125 1.296875 0.03125 1.953125q0 2.109375 -0.8125 2.109375q-0.421875 0 -0.671875 -0.28125q-0.234375 -0.234375 -0.234375 -0.578125q0 -0.328125 0.046875 -0.984375q0.0625 -0.671875 0.0625 -1.0q0 -0.484375 0.03125 -1.453125q0.03125 -0.96875 0.03125 -1.453125q0 -0.515625 -0.03125 -1.546875q-0.015625 -1.046875 -0.015625 -1.5625q0 -0.5 -0.09375 -1.46875q-0.09375 -0.96875 -0.09375 -1.46875q0 -0.359375 0.296875 -0.65625q0.3125 -0.296875 0.703125 -0.296875q0.421875 0 1.03125 0.90625q1.9375 2.921875 3.5 4.84375q1.84375 2.296875 4.0625 4.375q0.015625 -0.328125 0 -0.984375l-0.03125 -0.984375q0 -3.4375 -0.265625 -5.46875q-0.03125 -0.203125 -0.203125 -0.8125q-0.15625 -0.53125 -0.15625 -0.828125q0 -0.90625 0.828125 -0.90625q1.359375 0 1.359375 5.0625q0 0.875 -0.03125 2.59375q-0.015625 1.71875 -0.015625 2.59375zm5.4375 2.09375q-1.765625 0 -2.859375 -0.890625q-1.1875 -0.96875 -1.1875 -2.734375q0 -2.03125 0.984375 -3.40625q1.0625 -1.5 2.859375 -1.5q1.296875 0 2.109375 0.4375q1.015625 0.546875 1.015625 1.65625q0 0.78125 -0.890625 1.421875q-0.390625 0.28125 -1.65625 0.875l-2.984375 1.421875q0.4375 0.640625 1.09375 0.96875q0.65625 0.328125 1.515625 0.328125q0.546875 0 1.265625 -0.203125q0.921875 -0.25 1.1875 -0.671875q0.265625 -0.421875 0.578125 -0.421875q0.265625 0 0.484375 0.21875q0.21875 0.203125 0.21875 0.46875q0 0.875 -1.40625 1.5q-1.1875 0.53125 -2.328125 0.53125zm-0.203125 -7.125q-0.953125 0 -1.59375 0.75q-0.625 0.734375 -0.9375 2.21875l2.390625 -1.140625q1.421875 -0.6875 2.015625 -1.203125q-0.671875 -0.625 -1.875 -0.625zm12.5 0.0625l-1.140625 1.0625l-1.390625 1.390625l2.546875 3.328125q0.203125 0.25 0.203125 0.484375q0 0.3125 -0.234375 0.546875q-0.234375 0.234375 -0.53125 0.234375q-0.296875 0 -0.546875 -0.28125q-0.71875 -0.84375 -2.53125 -3.234375l-1.515625 1.578125q-0.46875 0.40625 -1.34375 1.28125q-0.25 0.28125 -0.546875 0.28125q-0.296875 0 -0.53125 -0.234375q-0.21875 -0.234375 -0.21875 -0.53125q0 -0.25 0.1875 -0.5q0.21875 -0.28125 0.6875 -0.6875q0.53125 -0.484375 0.703125 -0.65625l1.671875 -1.75l-1.03125 -1.46875q-0.609375 -0.890625 -1.078125 -1.296875q-0.296875 -0.265625 -0.296875 -0.578125q0 -0.3125 0.21875 -0.546875q0.234375 -0.25 0.515625 -0.25q0.46875 0 1.390625 1.203125l1.359375 1.875l1.53125 -1.40625q0.953125 -0.90625 1.28125 -1.40625q0.25 -0.375 0.59375 -0.375q0.3125 0 0.546875 0.234375q0.234375 0.21875 0.234375 0.515625q0 0.4375 -0.734375 1.1875zm7.4921875 0.046875q-0.15625 0 -0.390625 -0.015625q-0.21875 -0.015625 -0.375 -0.015625q-0.1875 0 -1.0625 0.109375l0.140625 4.625l0.015625 0.34375l0 0.390625q0.03125 1.71875 -0.8125 1.71875q-0.3125 0 -0.546875 -0.203125q-0.234375 -0.203125 -0.234375 -0.515625q0 -0.296875 0.015625 -0.890625q0.03125 -0.59375 0.03125 -0.890625l-0.15625 -4.5625q-0.5625 -0.015625 -1.734375 -0.125q-0.6875 -0.09375 -0.6875 -0.78125q0 -0.34375 0.203125 -0.5625q0.21875 -0.234375 0.546875 -0.234375l1.640625 0.140625q0 -0.40625 -0.046875 -1.0625q-0.03125 -0.671875 -0.03125 -0.96875q0 -0.328125 0.21875 -0.546875q0.234375 -0.21875 0.5625 -0.21875q0.703125 0 0.828125 1.15625q0.015625 0.28125 0.015625 0.6875l-0.015625 0.453125l0 0.484375q0.96875 -0.125 1.109375 -0.125q0.8125 0 1.0625 0.078125q0.46875 0.15625 0.46875 0.734375q0 0.34375 -0.21875 0.578125q-0.203125 0.21875 -0.546875 0.21875zm11.7578125 1.46875q0 0.28125 -0.28125 0.5625q-1.859375 1.71875 -3.90625 3.03125q-0.21875 0.140625 -0.40625 0.140625q-0.28125 0 -0.5 -0.21875q-0.203125 -0.234375 -0.203125 -0.515625q0 -0.3125 0.3125 -0.546875l3.03125 -2.3125q-0.703125 -0.453125 -1.71875 -1.40625q-1.25 -1.1875 -1.25 -1.640625q0 -0.28125 0.21875 -0.484375q0.21875 -0.21875 0.5 -0.21875q0.28125 0 0.515625 0.265625q1.78125 2.0 3.234375 2.75q0.453125 0.234375 0.453125 0.59375z" fill-rule="nonzero"/><path fill="#000000" fill-opacity="0.0" d="m172.04724 446.5933l0 0c0 -3.0905457 2.505371 -5.5959167 5.5959167 -5.5959167l60.965652 0c1.4841309 0 2.9074707 0.5895691 3.9569092 1.6390076c1.0494385 1.0494385 1.6390076 2.4727783 1.6390076 3.9569092l0 22.382965c0 3.0905457 -2.505371 5.5959167 -5.5959167 5.5959167l-60.965652 0c-3.0905457 0 -5.5959167 -2.505371 -5.5959167 -5.5959167z" fill-rule="evenodd"/><path stroke="#000000" stroke-width="1.0" stroke-linejoin="round" stroke-linecap="butt" d="m172.04724 446.5933l0 0c0 -3.0905457 2.505371 -5.5959167 5.5959167 -5.5959167l60.965652 0c1.4841309 0 2.9074707 0.5895691 3.9569092 1.6390076c1.0494385 1.0494385 1.6390076 2.4727783 1.6390076 3.9569092l0 22.382965c0 3.0905457 -2.505371 5.5959167 -5.5959167 5.5959167l-60.965652 0c-3.0905457 0 -5.5959167 -2.505371 -5.5959167 -5.5959167z" fill-rule="evenodd"/><path fill="#000000" d="m185.01436 458.8479q0.4375 0.3125 1.078125 0.984375q0.765625 0.796875 1.046875 1.046875q0.28125 0.234375 0.28125 0.515625q0 0.296875 -0.21875 0.515625q-0.203125 0.21875 -0.484375 0.21875q-0.21875 0 -0.4375 -0.171875q-0.3125 -0.21875 -1.34375 -1.296875q-0.78125 -0.8125 -1.5 -1.09375q-0.59375 -0.21875 -0.59375 -0.65625q0 -0.390625 0.53125 -0.640625q0.734375 -0.359375 1.59375 -1.265625q1.21875 -1.265625 1.4375 -1.453125q0.234375 -0.203125 0.46875 -0.203125q0.28125 0 0.5 0.21875q0.21875 0.21875 0.21875 0.5q0 0.265625 -0.234375 0.5q-0.75 0.796875 -2.34375 2.28125zm15.4765625 4.484375q-1.75 0.6875 -4.484375 0.6875q-0.34375 0 -0.640625 -0.328125q-0.296875 -0.3125 -0.296875 -0.640625l0 -2.28125q0 -1.109375 0.140625 -3.1875q0.15625 -2.234375 0.171875 -3.234375q-0.015625 -0.71875 0.078125 -2.140625q0.0625 -0.390625 0.265625 -0.515625q1.0625 -0.328125 2.40625 -0.328125q1.375 0 2.640625 0.9375q1.46875 1.078125 1.46875 2.671875q0 2.0 -1.5625 3.15625q1.171875 0.5 1.75 1.109375q0.578125 0.609375 0.578125 1.328125q0 0.953125 -1.015625 1.828125q-0.71875 0.625 -1.5 0.9375zm-2.359375 -10.375q-0.84375 0 -1.1875 0.0625l-0.015625 1.359375l-0.15625 3.03125q1.109375 0.09375 1.1875 0.078125q1.171875 -0.09375 1.921875 -0.734375q0.8125 -0.6875 0.8125 -1.78125q0 -0.75 -0.828125 -1.375q-0.8125 -0.640625 -1.734375 -0.640625zm0.875 6.265625l-0.828125 -0.140625q-0.09375 0 -0.3125 0.015625q-0.203125 0.015625 -0.3125 0.015625q-0.421875 0 -0.890625 -0.078125q-0.046875 0.984375 -0.046875 1.765625l0 1.609375q2.046875 -0.0625 3.328125 -0.578125q0.546875 -0.203125 1.046875 -0.65625q0.484375 -0.40625 0.484375 -0.609375q0 -0.359375 -1.0 -0.828125q-0.75 -0.34375 -1.46875 -0.515625zm11.8359375 4.9375q-0.140625 0 -0.53125 -0.34375q-0.359375 -0.328125 -0.53125 -0.578125q-0.75 0.421875 -1.328125 0.625q-0.5625 0.203125 -0.9375 0.203125q-1.828125 0 -2.671875 -1.03125q-0.78125 -0.96875 -0.78125 -2.96875q0 -1.890625 1.296875 -3.234375q1.296875 -1.34375 3.109375 -1.34375q0.671875 0 1.515625 0.34375q1.0625 0.4375 1.0625 1.0625q0 0.203125 -0.15625 0.375q-0.078125 0.296875 -0.125 0.984375q-0.03125 0.671875 -0.046875 1.734375q0 0.96875 0.140625 1.53125q0.078125 0.34375 0.484375 1.375q0.0625 0.140625 0.1875 0.40625l0.046875 0.140625q0 0.3125 -0.21875 0.515625q-0.21875 0.203125 -0.515625 0.203125zm-1.625 -5.4375q0 -0.328125 0.046875 -0.71875q0.046875 -0.40625 0.125 -0.84375q-0.28125 -0.15625 -0.5 -0.21875q-0.203125 -0.078125 -0.328125 -0.078125q-1.203125 0 -2.09375 1.0q-0.875 0.984375 -0.875 2.265625q0 1.28125 0.453125 1.921875q0.453125 0.640625 1.359375 0.640625q0.75 0 1.28125 -0.265625q0.28125 -0.15625 0.78125 -0.59375q-0.25 -2.078125 -0.25 -3.109375zm7.25 5.421875q-1.609375 0 -2.671875 -0.984375q-1.125 -1.015625 -1.125 -2.671875q0 -1.59375 1.046875 -3.28125q1.171875 -1.875 2.640625 -1.875q0.765625 0 1.71875 0.359375q1.1875 0.46875 1.1875 1.125q0 0.296875 -0.203125 0.53125q-0.1875 0.234375 -0.46875 0.234375q-0.234375 0 -0.40625 -0.140625q-0.15625 -0.140625 -0.3125 -0.265625q-0.46875 -0.375 -1.515625 -0.375q-0.796875 0 -1.578125 1.421875q-0.703125 1.3125 -0.703125 2.265625q0 1.03125 0.703125 1.625q0.65625 0.546875 1.6875 0.546875q0.46875 0 1.0 -0.25l0.90625 -0.484375q0.234375 -0.125 0.328125 -0.125q0.296875 0 0.5 0.234375q0.21875 0.234375 0.21875 0.53125q0 0.5625 -1.203125 1.109375q-1.0625 0.46875 -1.75 0.46875zm11.1875 -0.171875q-0.421875 0 -0.65625 -0.46875q-0.40625 -0.78125 -1.234375 -1.859375l-1.375 -1.890625q-0.453125 0.359375 -1.40625 1.015625q-0.09375 1.203125 -0.09375 2.359375q0 0.34375 -0.21875 0.5625q-0.203125 0.234375 -0.546875 0.234375q-0.78125 0 -0.78125 -1.078125q0 -0.640625 0.078125 -1.9375q0.09375 -1.296875 0.09375 -1.9375q0 -1.1875 0.03125 -2.71875q0.046875 -1.53125 0.046875 -2.703125q0 -0.34375 -0.046875 -0.8125q-0.03125 -0.484375 -0.03125 -0.84375q0 -0.34375 0.21875 -0.5625q0.21875 -0.21875 0.546875 -0.21875q0.34375 0 0.546875 0.21875q0.21875 0.21875 0.21875 0.5625q0 0.359375 0.03125 0.859375q0.046875 0.484375 0.046875 0.84375l-0.046875 2.515625q-0.046875 1.359375 -0.03125 2.71875q1.0625 -0.8125 2.046875 -1.78125l1.71875 -1.78125q0.265625 -0.265625 0.5625 -0.265625q0.296875 0 0.546875 0.25q0.25 0.234375 0.25 0.5625q0 0.265625 -0.234375 0.515625q-0.953125 1.125 -2.359375 2.421875l1.703125 2.3125q1.1875 1.640625 1.1875 2.125q0 0.3125 -0.25 0.546875q-0.234375 0.234375 -0.5625 0.234375z" fill-rule="nonzero"/></g></svg>