<svg version="1.1" viewBox="0.0 0.0 465.5511811023622 440.2178477690289" fill="none" stroke="none" stroke-linecap="square" stroke-miterlimit="10" xmlns:xlink="http://www.w3.org/1999/xlink" xmlns="http://www.w3.org/2000/svg"><clipPath id="p.0"><path d="m0 0l465.55118 0l0 440.21783l-465.55118 0l0 -440.21783z" clip-rule="nonzero"/></clipPath><g clip-path="url(#p.0)"><path fill="#000000" fill-opacity="0.0" d="m0 0l465.55118 0l0 440.21783l-465.55118 0z" fill-rule="evenodd"/><path fill="#000000" fill-opacity="0.0" d="m17.860893 12.144357l428.59842 0l0 412.31497l-428.59842 0z" fill-rule="evenodd"/><path stroke="#000000" stroke-width="1.0" stroke-linejoin="round" stroke-linecap="butt" stroke-dasharray="1.0,3.0" d="m17.860893 12.144357l428.59842 0l0 412.31497l-428.59842 0z" fill-rule="evenodd"/><path fill="#000000" fill-opacity="0.0" d="m53.490814 24.648294l285.03937 0l0 51.90551l-285.03937 0z" fill-rule="evenodd"/><path fill="#000000" d="m75.69394 56.813293q-0.453125 0 -0.84375 -0.375q-3.875 -3.828125 -8.625 -5.15625l0.09375 2.296875l0.0625 2.3125q0 0.515625 -0.34375 0.859375q-0.328125 0.34375 -0.828125 0.34375q-0.5 0 -0.84375 -0.34375q-0.328125 -0.34375 -0.328125 -0.859375q0 -0.921875 -0.09375 -2.75q-0.078125 -1.84375 -0.078125 -2.765625q0 -1.078125 0.234375 -3.203125q0.234375 -2.140625 0.234375 -3.21875q0 -0.59375 -0.109375 -1.765625q-0.109375 -1.171875 -0.109375 -1.765625q0 -0.671875 0.375 -1.171875q0.4375 -0.625 1.21875 -0.5625l2.828125 0.21875q1.609375 0.203125 2.703125 0.78125q4.75 2.53125 4.75 6.15625q0 1.78125 -1.609375 3.15625q-1.3125 1.09375 -3.25 1.671875q3.640625 1.953125 5.453125 4.125q0.296875 0.375 0.296875 0.796875q0 0.5 -0.359375 0.859375q-0.359375 0.359375 -0.828125 0.359375zm-7.46875 -15.484375l-1.734375 -0.140625l0.109375 1.40625q0.09375 0.875 0.09375 1.421875q0 0.9375 -0.15625 2.328125l-0.25 2.34375q0.171875 0 0.515625 0.015625q0.34375 0 0.515625 0q2.984375 0 4.484375 -0.796875q0.65625 -0.359375 1.21875 -0.953125q0.609375 -0.65625 0.609375 -1.109375q0 -1.625 -1.84375 -3.03125q-1.703125 -1.296875 -3.5625 -1.484375zm16.457031 15.90625q-2.65625 0 -4.296875 -1.328125q-1.796875 -1.46875 -1.796875 -4.109375q0 -3.046875 1.484375 -5.109375q1.609375 -2.25 4.28125 -2.25q1.953125 0 3.1875 0.65625q1.5 0.8125 1.5 2.484375q0 1.171875 -1.3125 2.140625q-0.59375 0.421875 -2.484375 1.3125l-4.484375 2.109375q0.65625 0.984375 1.625 1.484375q0.984375 0.484375 2.296875 0.484375q0.796875 0 1.890625 -0.3125q1.390625 -0.390625 1.78125 -1.015625q0.40625 -0.625 0.859375 -0.625q0.40625 0 0.71875 0.3125q0.328125 0.3125 0.328125 0.71875q0 1.296875 -2.09375 2.234375q-1.796875 0.8125 -3.484375 0.8125zm-0.328125 -10.6875q-1.421875 0 -2.375 1.109375q-0.953125 1.109375 -1.421875 3.328125l3.609375 -1.703125q2.109375 -1.03125 3.015625 -1.796875q-1.0 -0.9375 -2.828125 -0.9375zm17.648438 5.09375l-0.28125 3.9375q-0.0625 2.34375 -0.46875 3.828125q-0.53125 1.90625 -1.6875 2.796875q-1.40625 1.09375 -4.078125 1.09375q-1.546875 0 -2.609375 -0.203125q-1.46875 -0.296875 -1.46875 -1.21875q0 -1.046875 1.015625 -1.046875q0.421875 0 1.40625 0.203125q0.984375 0.203125 2.171875 0.1875q2.25 -0.046875 3.109375 -2.1875q0.5625 -1.421875 0.59375 -4.390625q-0.625 1.171875 -1.5 1.765625q-0.875 0.578125 -2.0 0.578125q-2.125 0 -3.453125 -1.453125q-1.328125 -1.453125 -1.328125 -3.75q0 -3.171875 1.8125 -5.109375q1.875 -1.984375 5.109375 -1.984375q1.09375 0 1.828125 0.28125q0.75 0.28125 1.125 0.84375q1.265625 0.03125 1.265625 1.390625q0 0.828125 -0.25 2.234375q-0.265625 1.609375 -0.3125 2.203125zm-3.765625 -5.078125q-2.234375 0 -3.453125 1.53125q-1.078125 1.390625 -1.078125 3.515625q0 1.703125 0.640625 2.5625q0.640625 0.84375 1.9375 0.84375q1.171875 0 2.296875 -1.328125q1.0 -1.234375 1.140625 -2.4375q0.25 -1.265625 0.53125 -3.96875q-0.46875 -0.375 -0.984375 -0.546875q-0.5 -0.171875 -1.03125 -0.171875zm9.097656 -4.71875q-0.5625 0 -0.984375 -0.390625q-0.40625 -0.40625 -0.40625 -0.96875q0 -0.5625 0.40625 -0.953125q0.421875 -0.40625 0.984375 -0.40625q0.5625 0 0.953125 0.40625q0.40625 0.390625 0.40625 0.953125q0 0.5625 -0.40625 0.96875q-0.390625 0.390625 -0.953125 0.390625zm0.515625 9.515625q0 0.703125 0.046875 2.109375q0.046875 1.40625 0.046875 2.109375q0 0.515625 -0.328125 0.84375q-0.3125 0.328125 -0.828125 0.328125q-0.5 0 -0.828125 -0.328125q-0.3125 -0.328125 -0.3125 -0.84375q0 -0.703125 -0.046875 -2.109375q-0.046875 -1.40625 -0.046875 -2.109375q0 -1.09375 0.109375 -2.734375q0.125 -1.65625 0.125 -2.75q0 -0.53125 0.328125 -0.859375q0.328125 -0.328125 0.828125 -0.328125q0.5 0 0.8125 0.328125q0.328125 0.328125 0.328125 0.859375q0 1.09375 -0.125 2.75q-0.109375 1.640625 -0.109375 2.734375zm11.8828125 -3.703125q-0.65625 0 -0.90625 -0.421875q-0.171875 -0.3125 -0.3125 -1.265625q-0.875 0.21875 -2.703125 0.8125q-1.890625 0.75 -1.890625 1.859375q0.34375 0.125 0.6875 0.1875q2.6875 0.46875 4.0 1.3125q1.921875 1.234375 1.921875 3.5625q0 1.921875 -1.65625 2.890625q-1.375 0.796875 -3.46875 0.796875q-1.53125 0 -2.9375 -0.515625q-1.796875 -0.65625 -1.796875 -1.828125q0 -0.46875 0.359375 -0.8125q0.375 -0.359375 0.84375 -0.359375q0.359375 0 0.9375 0.5625q0.28125 0.265625 1.265625 0.4375q0.78125 0.140625 1.328125 0.140625q0.984375 0 1.734375 -0.234375q1.09375 -0.328125 1.09375 -1.078125q0 -1.59375 -2.234375 -2.15625l-1.21875 -0.265625q-1.5625 -0.34375 -2.21875 -0.796875q-0.9375 -0.65625 -0.9375 -1.984375q0 -2.4375 2.296875 -3.484375q0.703125 -0.3125 2.25 -0.75q1.546875 -0.453125 2.21875 -0.75q0.484375 -0.21875 1.046875 -0.21875q0.5 0 0.8125 0.328125q0.328125 0.328125 0.328125 0.859375q0 0.34375 0.140625 1.0q0.15625 0.65625 0.15625 1.0q0 0.515625 -0.328125 0.84375q-0.3125 0.328125 -0.8125 0.328125zm11.605469 -0.953125q-0.25 0 -0.578125 -0.015625q-0.328125 -0.03125 -0.578125 -0.03125q-0.265625 0 -1.59375 0.171875l0.21875 6.921875l0.015625 0.515625l0.015625 0.609375q0.046875 2.5625 -1.234375 2.5625q-0.46875 0 -0.8125 -0.3125q-0.34375 -0.296875 -0.34375 -0.75q0 -0.453125 0.03125 -1.34375q0.03125 -0.890625 0.03125 -1.328125l-0.234375 -6.84375q-0.859375 -0.046875 -2.59375 -0.203125q-1.046875 -0.140625 -1.046875 -1.15625q0 -0.515625 0.3125 -0.859375q0.3125 -0.34375 0.8125 -0.34375l2.453125 0.203125q0 -0.59375 -0.046875 -1.59375q-0.046875 -1.015625 -0.046875 -1.453125q0 -0.5 0.328125 -0.8125q0.34375 -0.328125 0.84375 -0.328125q1.046875 0 1.21875 1.71875q0.046875 0.4375 0.046875 1.046875l-0.03125 0.6875l-0.015625 0.71875q1.453125 -0.1875 1.671875 -0.1875q1.21875 0 1.59375 0.125q0.71875 0.234375 0.71875 1.09375q0 0.515625 -0.328125 0.859375q-0.328125 0.328125 -0.828125 0.328125zm8.949219 10.53125q-2.65625 0 -4.296875 -1.328125q-1.796875 -1.46875 -1.796875 -4.109375q0 -3.046875 1.484375 -5.109375q1.609375 -2.25 4.28125 -2.25q1.953125 0 3.1875 0.65625q1.5 0.8125 1.5 2.484375q0 1.171875 -1.3125 2.140625q-0.59375 0.421875 -2.484375 1.3125l-4.484375 2.109375q0.65625 0.984375 1.625 1.484375q0.984375 0.484375 2.296875 0.484375q0.796875 0 1.890625 -0.3125q1.390625 -0.390625 1.78125 -1.015625q0.40625 -0.625 0.859375 -0.625q0.40625 0 0.71875 0.3125q0.328125 0.3125 0.328125 0.71875q0 1.296875 -2.09375 2.234375q-1.796875 0.8125 -3.484375 0.8125zm-0.328125 -10.6875q-1.421875 0 -2.375 1.109375q-0.953125 1.109375 -1.421875 3.328125l3.609375 -1.703125q2.109375 -1.03125 3.015625 -1.796875q-1.0 -0.9375 -2.828125 -0.9375zm17.117188 1.484375q-0.078125 1.453125 -1.171875 1.453125q-1.015625 0 -1.015625 -1.15625q0 -0.21875 -0.03125 -0.8125l-0.03125 -0.984375q-1.859375 0.21875 -2.96875 1.03125q-1.046875 0.765625 -1.734375 2.296875l0.03125 6.421875q0 1.1875 -1.171875 1.1875q-1.03125 0 -1.03125 -1.1875l0 -8.21875q0 -0.390625 0.03125 -1.15625q0.03125 -0.78125 0.03125 -1.171875q0 -1.171875 1.03125 -1.171875q1.15625 0 1.15625 1.9375q2.25 -2.171875 5.0 -2.171875q0.953125 0 1.421875 0.71875q0.46875 0.71875 0.46875 2.15625q0 0.609375 -0.015625 0.828125zm17.21875 9.125q-3.65625 0 -5.4375 -2.09375q-1.453125 -1.6875 -1.828125 -5.0q-0.1875 -1.484375 -0.1875 -5.9375q0 -1.640625 0.078125 -2.65625q0.0625 -1.0625 0.203125 -1.484375q0.296875 -0.859375 1.0625 -0.859375q1.078125 0 1.078125 1.984375l0 6.875q0 7.109375 4.96875 7.109375q4.671875 0 4.671875 -11.953125q0 -0.453125 0 -1.15625q-0.015625 -0.703125 -0.015625 -0.9375q0 -0.71875 0.265625 -1.265625q0.328125 -0.703125 0.96875 -0.703125q1.171875 0 1.171875 1.59375q0 0.484375 0.015625 1.453125q0 0.984375 0 1.453125q0 13.578125 -7.015625 13.578125zm17.964844 -9.5q-0.65625 0 -0.90625 -0.421875q-0.171875 -0.3125 -0.3125 -1.265625q-0.875 0.21875 -2.703125 0.8125q-1.890625 0.75 -1.890625 1.859375q0.34375 0.125 0.6875 0.1875q2.6875 0.46875 4.0 1.3125q1.921875 1.234375 1.921875 3.5625q0 1.921875 -1.65625 2.890625q-1.375 0.796875 -3.46875 0.796875q-1.53125 0 -2.9375 -0.515625q-1.796875 -0.65625 -1.796875 -1.828125q0 -0.46875 0.359375 -0.8125q0.375 -0.359375 0.84375 -0.359375q0.359375 0 0.9375 0.5625q0.28125 0.265625 1.265625 0.4375q0.78125 0.140625 1.328125 0.140625q0.984375 0 1.734375 -0.234375q1.09375 -0.328125 1.09375 -1.078125q0 -1.59375 -2.234375 -2.15625l-1.21875 -0.265625q-1.5625 -0.34375 -2.21875 -0.796875q-0.9375 -0.65625 -0.9375 -1.984375q0 -2.4375 2.296875 -3.484375q0.703125 -0.3125 2.25 -0.75q1.546875 -0.453125 2.21875 -0.75q0.484375 -0.21875 1.046875 -0.21875q0.5 0 0.8125 0.328125q0.328125 0.328125 0.328125 0.859375q0 0.34375 0.140625 1.0q0.15625 0.65625 0.15625 1.0q0 0.515625 -0.328125 0.84375q-0.3125 0.328125 -0.8125 0.328125zm9.246094 9.578125q-2.65625 0 -4.296875 -1.328125q-1.796875 -1.46875 -1.796875 -4.109375q0 -3.046875 1.484375 -5.109375q1.609375 -2.25 4.28125 -2.25q1.953125 0 3.1875 0.65625q1.5 0.8125 1.5 2.484375q0 1.171875 -1.3125 2.140625q-0.59375 0.421875 -2.484375 1.3125l-4.484375 2.109375q0.65625 0.984375 1.625 1.484375q0.984375 0.484375 2.296875 0.484375q0.796875 0 1.890625 -0.3125q1.390625 -0.390625 1.78125 -1.015625q0.40625 -0.625 0.859375 -0.625q0.40625 0 0.71875 0.3125q0.328125 0.3125 0.328125 0.71875q0 1.296875 -2.09375 2.234375q-1.796875 0.8125 -3.484375 0.8125zm-0.328125 -10.6875q-1.421875 0 -2.375 1.109375q-0.953125 1.109375 -1.421875 3.328125l3.609375 -1.703125q2.109375 -1.03125 3.015625 -1.796875q-1.0 -0.9375 -2.828125 -0.9375zm17.117188 1.484375q-0.078125 1.453125 -1.171875 1.453125q-1.015625 0 -1.015625 -1.15625q0 -0.21875 -0.03125 -0.8125l-0.03125 -0.984375q-1.859375 0.21875 -2.96875 1.03125q-1.046875 0.765625 -1.734375 2.296875l0.03125 6.421875q0 1.1875 -1.171875 1.1875q-1.03125 0 -1.03125 -1.1875l0 -8.21875q0 -0.390625 0.03125 -1.15625q0.03125 -0.78125 0.03125 -1.171875q0 -1.171875 1.03125 -1.171875q1.15625 0 1.15625 1.9375q2.25 -2.171875 5.0 -2.171875q0.953125 0 1.421875 0.71875q0.46875 0.71875 0.46875 2.15625q0 0.609375 -0.015625 0.828125zm20.921875 -6.75q-0.21875 0 -0.453125 -0.09375q-1.453125 -0.53125 -3.84375 -0.53125q-0.765625 0 -1.8125 0.109375q-1.03125 0.109375 -2.328125 0.34375l-0.015625 5.0625q2.265625 -0.59375 3.390625 -0.59375q1.8125 0 3.75 0.203125q1.09375 0.125 1.09375 1.203125q0 0.53125 -0.34375 0.875q-0.328125 0.34375 -0.84375 0.34375q-0.609375 0 -1.828125 -0.109375q-1.21875 -0.109375 -1.828125 -0.109375q-0.796875 0 -3.4375 0.6875l-0.109375 8.0625q0 0.5 -0.328125 0.84375q-0.328125 0.359375 -0.828125 0.359375q-0.5 0 -0.84375 -0.359375q-0.328125 -0.34375 -0.328125 -0.84375q0 -2.3125 0.078125 -6.9375q0.09375 -4.625 0.09375 -6.921875q0 -0.515625 -0.015625 -1.546875q-0.015625 -1.046875 -0.015625 -1.5625q0 -0.515625 0.3125 -0.859375q0.328125 -0.359375 0.84375 -0.359375q0.390625 0 0.6875 0.203125q1.453125 -0.25 2.609375 -0.375q1.171875 -0.125 2.046875 -0.125q1.34375 0 3.078125 0.390625q2.359375 0.53125 2.359375 1.40625q0 0.46875 -0.296875 0.828125q-0.34375 0.40625 -0.84375 0.40625zm7.6289062 16.09375q-1.96875 0 -3.390625 -1.453125q-1.578125 -1.609375 -1.671875 -4.34375q-0.0625 -2.65625 1.34375 -4.671875q1.640625 -2.375 4.5625 -2.375q2.34375 0 3.5625 2.140625q0.953125 1.734375 0.921875 4.171875q-0.03125 2.609375 -1.359375 4.453125q-1.5 2.078125 -3.96875 2.078125zm0.703125 -10.46875q-1.734375 0 -2.6875 1.640625q-0.765625 1.328125 -0.765625 3.03125q0 1.703125 0.921875 2.640625q0.78125 0.796875 1.828125 0.796875q1.21875 0 2.09375 -0.890625q1.0 -0.984375 1.046875 -2.671875q0.171875 -4.53125 -2.4375 -4.546875zm16.636719 1.125q-0.078125 1.453125 -1.171875 1.453125q-1.015625 0 -1.015625 -1.15625q0 -0.21875 -0.03125 -0.8125l-0.03125 -0.984375q-1.859375 0.21875 -2.96875 1.03125q-1.046875 0.765625 -1.734375 2.296875l0.03125 6.421875q0 1.1875 -1.171875 1.1875q-1.03125 0 -1.03125 -1.1875l0 -8.21875q0 -0.390625 0.03125 -1.15625q0.03125 -0.78125 0.03125 -1.171875q0 -1.171875 1.03125 -1.171875q1.15625 0 1.15625 1.9375q2.25 -2.171875 5.0 -2.171875q0.953125 0 1.421875 0.71875q0.46875 0.71875 0.46875 2.15625q0 0.609375 -0.015625 0.828125zm17.296875 9.625q-0.96875 0 -1.125 -1.015625q-0.21875 -1.296875 -0.421875 -3.640625l-0.40625 -3.625q-0.109375 -0.8125 -0.390625 -1.578125q-0.40625 -1.0625 -0.875 -1.0625q-0.421875 0 -1.609375 0.734375q-1.125 0.6875 -1.484375 1.09375q0 1.109375 0.0625 2.203125l0.359375 3.125q0.21875 1.859375 0.21875 3.0625q0 0.515625 -0.328125 0.84375q-0.3125 0.34375 -0.828125 0.34375q-0.5 0 -0.828125 -0.34375q-0.3125 -0.328125 -0.3125 -0.84375q0 -1.421875 -0.296875 -4.1875q-0.28125 -2.765625 -0.28125 -4.1875q0 -1.25 -0.34375 -1.9375q-0.828125 0.375 -1.671875 1.21875l-1.375 1.546875q-0.1875 0.28125 -0.609375 0.734375q0 0.703125 -0.125 2.078125q-0.125 1.375 -0.125 2.03125q0 0.34375 0.109375 0.984375q0.109375 0.625 0.109375 0.90625q0 0.484375 -0.359375 0.8125q-0.359375 0.328125 -0.828125 0.328125q-1.328125 0 -1.328125 -3.015625q0 -0.703125 0.125 -2.09375q0.125 -1.390625 0.125 -2.09375q0 -0.625 -0.109375 -1.859375q-0.109375 -1.25 -0.109375 -1.875q0 -2.671875 1.203125 -2.671875q0.453125 0 0.828125 0.40625q0.390625 0.390625 0.390625 0.859375q0 0.234375 -0.0625 0.703125q-0.0625 0.46875 -0.0625 0.703125l0.03125 1.234375q0.609375 -1.25 1.78125 -2.265625q1.1875 -1.015625 2.015625 -1.015625q1.84375 0 2.53125 1.828125q0.65625 -0.859375 1.546875 -1.28125q0.890625 -0.421875 2.03125 -0.421875q1.953125 0 2.671875 2.109375q0.140625 0.421875 0.484375 3.28125q0.328125 2.015625 0.84375 6.71875q0.03125 0.46875 -0.328125 0.796875q-0.34375 0.328125 -0.84375 0.328125z" fill-rule="nonzero"/><path fill="#000000" fill-opacity="0.0" d="m18.879265 80.35171l428.59842 -1.0078735" fill-rule="evenodd"/><path stroke="#000000" stroke-width="1.0" stroke-linejoin="round" stroke-linecap="butt" d="m18.879265 80.35171l428.59842 -1.0078735" fill-rule="evenodd"/><path fill="#000000" fill-opacity="0.0" d="m386.09973 41.805775l0 0c0 -10.680405 8.20694 -19.338583 18.330719 -19.338583c10.123779 0 18.330719 8.658178 18.330719 19.338583c0 10.680405 -8.20694 19.338581 -18.330719 19.338581c-10.123779 0 -18.330719 -8.658176 -18.330719 -19.338581z" fill-rule="evenodd"/><path fill="#000000" fill-opacity="0.0" d="m396.64838 36.022106c0 -1.1125412 0.8548889 -2.0144348 1.9094543 -2.0144348c1.0545654 0 1.9094543 0.9018936 1.9094543 2.0144348c0 1.1125412 -0.8548889 2.0144348 -1.9094543 2.0144348c-1.0545654 0 -1.9094543 -0.9018936 -1.9094543 -2.0144348m11.745239 0c0 -1.1125412 0.8548889 -2.0144348 1.9094543 -2.0144348c1.0545654 0 1.9094543 0.9018936 1.9094543 2.0144348c0 1.1125412 -0.8548889 2.0144348 -1.9094543 2.0144348c-1.0545654 0 -1.9094543 -0.9018936 -1.9094543 -2.0144348" fill-rule="evenodd"/><path fill="#000000" fill-opacity="0.0" d="m394.4951 50.23946q9.935364 7.198593 19.847534 0" fill-rule="evenodd"/><path fill="#000000" fill-opacity="0.0" d="m386.09973 41.805775l0 0c0 -10.680405 8.20694 -19.338583 18.330719 -19.338583c10.123779 0 18.330719 8.658178 18.330719 19.338583c0 10.680405 -8.20694 19.338581 -18.330719 19.338581c-10.123779 0 -18.330719 -8.658176 -18.330719 -19.338581z" fill-rule="evenodd"/><path fill="#000000" fill-opacity="0.2" d="m396.64838 36.022106c0 -1.1125412 0.8548889 -2.0144348 1.9094543 -2.0144348c1.0545654 0 1.9094543 0.9018936 1.9094543 2.0144348c0 1.1125412 -0.8548889 2.0144348 -1.9094543 2.0144348c-1.0545654 0 -1.9094543 -0.9018936 -1.9094543 -2.0144348m11.745239 0c0 -1.1125412 0.8548889 -2.0144348 1.9094543 -2.0144348c1.0545654 0 1.9094543 0.9018936 1.9094543 2.0144348c0 1.1125412 -0.8548889 2.0144348 -1.9094543 2.0144348c-1.0545654 0 -1.9094543 -0.9018936 -1.9094543 -2.0144348" fill-rule="evenodd"/><path stroke="#000000" stroke-width="1.0" stroke-linejoin="round" stroke-linecap="butt" d="m396.64838 36.022106c0 -1.1125412 0.8548889 -2.0144348 1.9094543 -2.0144348c1.0545654 0 1.9094543 0.9018936 1.9094543 2.0144348c0 1.1125412 -0.8548889 2.0144348 -1.9094543 2.0144348c-1.0545654 0 -1.9094543 -0.9018936 -1.9094543 -2.0144348m11.745239 0c0 -1.1125412 0.8548889 -2.0144348 1.9094543 -2.0144348c1.0545654 0 1.9094543 0.9018936 1.9094543 2.0144348c0 1.1125412 -0.8548889 2.0144348 -1.9094543 2.0144348c-1.0545654 0 -1.9094543 -0.9018936 -1.9094543 -2.0144348" fill-rule="evenodd"/><path stroke="#000000" stroke-width="1.0" stroke-linejoin="round" stroke-linecap="butt" d="m394.4951 50.23946q9.935364 7.198593 19.847534 0" fill-rule="evenodd"/><path stroke="#000000" stroke-width="1.0" stroke-linejoin="round" stroke-linecap="butt" d="m386.09973 41.805775l0 0c0 -10.680405 8.20694 -19.338583 18.330719 -19.338583c10.123779 0 18.330719 8.658178 18.330719 19.338583c0 10.680405 -8.20694 19.338581 -18.330719 19.338581c-10.123779 0 -18.330719 -8.658176 -18.330719 -19.338581z" fill-rule="evenodd"/><path fill="#ffffff" d="m95.57481 231.94751l159.18109 0l0 24.440948l-159.18109 0z" fill-rule="evenodd"/><path stroke="#000000" stroke-width="1.0" stroke-linejoin="round" stroke-linecap="butt" d="m95.57481 231.94751l159.18109 0l0 24.440948l-159.18109 0z" fill-rule="evenodd"/><path fill="#ffffff" d="m98.42519 151.94751l159.18109 0l0 24.440948l-159.18109 0z" fill-rule="evenodd"/><path stroke="#000000" stroke-width="1.0" stroke-linejoin="round" stroke-linecap="butt" d="m98.42519 151.94751l159.18109 0l0 24.440948l-159.18109 0z" fill-rule="evenodd"/><path fill="#000000" fill-opacity="0.0" d="m87.57481 113.27034l174.07874 0l0 38.67717l-174.07874 0z" fill-rule="evenodd"/><path fill="#000000" d="m108.41856 134.67471q-0.5625 2.796875 -2.375 4.46875q-1.8125 1.671875 -4.265625 1.671875q-2.25 0 -3.375 -1.25q-1.109375 -1.25 -1.109375 -3.75q0 -2.359375 1.109375 -4.859375q1.125 -2.5 2.875 -4.046875q1.15625 -1.03125 2.46875 -1.03125q0.828125 0 2.1875 0.546875q1.65625 0.65625 1.65625 1.453125q0 0.375 -0.28125 0.671875q-0.265625 0.28125 -0.65625 0.28125q-0.1875 0 -0.5625 -0.234375q-1.390625 -0.84375 -2.34375 -0.84375q-0.6875 0 -1.4375 0.71875q-0.375 0.34375 -1.0625 1.28125q-2.109375 2.796875 -2.109375 6.0625q0 1.703125 0.53125 2.390625q0.5625 0.75 2.109375 0.75q1.625 0 2.828125 -1.03125q1.265625 -1.09375 1.765625 -3.125q-2.515625 0.125 -4.328125 0.96875q-0.203125 0.109375 -0.40625 0.109375q-0.390625 0 -0.65625 -0.3125q-0.25 -0.28125 -0.25 -0.65625q0 -0.5 0.484375 -0.796875q1.96875 -1.203125 6.78125 -1.203125q0.390625 0 0.65625 0.265625q0.265625 0.25 0.265625 0.65625q0 0.59375 -0.5 0.84375zm3.83667 -6.015625q-0.4375 0 -0.75 -0.3125q-0.3125 -0.3125 -0.3125 -0.75q0 -0.4375 0.3125 -0.734375q0.3125 -0.3125 0.75 -0.3125q0.4375 0 0.75 0.3125q0.328125 0.296875 0.328125 0.734375q0 0.4375 -0.328125 0.75q-0.3125 0.3125 -0.75 0.3125zm0.421875 7.390625q0 0.546875 0.03125 1.640625q0.03125 1.09375 0.03125 1.640625q0 0.390625 -0.25 0.65625q-0.25 0.25 -0.640625 0.25q-0.390625 0 -0.65625 -0.25q-0.25 -0.265625 -0.25 -0.65625q0 -0.546875 -0.03125 -1.640625q-0.03125 -1.09375 -0.03125 -1.640625q0 -0.84375 0.09375 -2.125q0.09375 -1.28125 0.09375 -2.140625q0 -0.40625 0.25 -0.65625q0.25 -0.265625 0.640625 -0.265625q0.390625 0 0.640625 0.265625q0.25 0.25 0.25 0.65625q0 0.859375 -0.09375 2.140625q-0.078125 1.28125 -0.078125 2.125zm7.2757263 3.671875q-0.03125 0.828125 -0.828125 0.828125q-0.671875 0 -0.96875 -0.78125l-1.390625 -3.703125l-1.625 -4.171875q-0.09375 -0.234375 -0.09375 -0.421875q0 -0.375 0.28125 -0.640625q0.28125 -0.265625 0.65625 -0.265625q0.546875 0 0.78125 0.5625l2.3125 6.359375q0.6875 -1.453125 1.734375 -4.21875q0.234375 -0.734375 0.765625 -2.0625q0.28125 -0.578125 0.796875 -0.578125q0.375 0 0.65625 0.265625q0.296875 0.265625 0.296875 0.625q0 0.34375 -1.515625 3.90625l-1.859375 4.296875zm9.119926 0.890625q-2.0468674 0 -3.3281174 -1.03125q-1.390625 -1.140625 -1.390625 -3.1875q0 -2.375 1.140625 -3.96875q1.25 -1.75 3.3437424 -1.75q1.5 0 2.46875 0.5q1.171875 0.640625 1.171875 1.9375q0 0.90625 -1.03125 1.65625q-0.453125 0.328125 -1.9375 1.015625l-3.4687424 1.65625q0.5 0.75 1.265625 1.140625q0.7656174 0.375 1.7656174 0.375q0.640625 0 1.484375 -0.234375q1.078125 -0.296875 1.375 -0.78125q0.3125 -0.484375 0.671875 -0.484375q0.3125 0 0.5625 0.234375q0.25 0.234375 0.25 0.5625q0 1.015625 -1.625 1.734375q-1.390625 0.625 -2.71875 0.625zm-0.234375 -8.296875q-1.1249924 0 -1.8593674 0.859375q-0.734375 0.859375 -1.09375 2.59375l2.7968674 -1.328125q1.640625 -0.8125 2.34375 -1.40625q-0.78125 -0.71875 -2.1875 -0.71875zm13.189606 8.515625q-0.78125 0 -0.875 -0.84375l-0.265625 -2.0q-0.125 -1.0625 -0.125 -2.0q0 -0.25 0.03125 -0.859375q0.03125 -0.609375 0.03125 -0.875q0 -1.953125 -0.71875 -1.953125q-1.03125 0 -1.953125 1.203125q-0.84375 1.109375 -1.3125 2.78125q-0.015625 0.359375 -0.078125 0.90625q-0.0625 0.453125 -0.0625 0.875q0 0.28125 0.046875 0.828125q0.0625 0.546875 0.0625 0.8125q0 0.40625 -0.25 0.65625q-0.25 0.265625 -0.640625 0.265625q-0.40625 0 -0.65625 -0.265625q-0.234375 -0.25 -0.234375 -0.65625q0 -0.265625 -0.0625 -0.8125q-0.0625 -0.546875 -0.0625 -0.828125q0 -0.9375 0.125 -2.59375q0.140625 -1.671875 0.140625 -2.609375q0 -0.28125 -0.03125 -0.859375q-0.03125 -0.578125 -0.03125 -0.875q0 -0.390625 0.25 -0.640625q0.265625 -0.25 0.65625 -0.25q0.828125 0 0.921875 1.1875l0.015625 1.0625q1.53125 -2.03125 3.15625 -2.03125q1.453125 0 2.03125 1.28125q0.390625 0.859375 0.421875 2.53125l0 0.921875l-0.015625 0.84375q0 0.765625 0.203125 1.96875q0.203125 1.1875 0.203125 1.9375q0 0.390625 -0.265625 0.640625q-0.265625 0.25 -0.65625 0.25zm21.121643 -2.65625q0 0.4375 -0.140625 1.453125q-0.140625 0.921875 -0.96875 0.921875q-0.5 0 -1.203125 -0.65625q-3.703125 -3.515625 -8.5 -10.125l-0.046875 2.0625l-0.03125 2.078125q0 0.765625 0.03125 2.28125q0.03125 1.5 0.03125 2.265625q0 2.453125 -0.9375 2.453125q-0.5 0 -0.796875 -0.3125q-0.265625 -0.28125 -0.265625 -0.671875q0 -0.390625 0.0625 -1.15625q0.0625 -0.78125 0.0625 -1.171875q0 -0.5625 0.03125 -1.6875q0.03125 -1.125 0.03125 -1.6875q0 -0.59375 -0.03125 -1.8125q-0.015625 -1.21875 -0.015625 -1.8125q0 -0.578125 -0.109375 -1.703125q-0.109375 -1.140625 -0.109375 -1.71875q0 -0.421875 0.359375 -0.765625q0.359375 -0.34375 0.8125 -0.34375q0.484375 0 1.1875 1.046875q2.265625 3.40625 4.078125 5.65625q2.171875 2.671875 4.75 5.09375q0.015625 -0.390625 0 -1.15625l-0.03125 -1.140625q0 -4.0 -0.3125 -6.375q-0.03125 -0.234375 -0.25 -0.953125q-0.171875 -0.625 -0.171875 -0.96875q0 -1.046875 0.953125 -1.046875q1.59375 0 1.59375 5.90625q0 1.015625 -0.03125 3.03125q-0.03125 2.0 -0.03125 3.015625zm9.210449 2.609375q-0.171875 0 -0.625 -0.390625q-0.40625 -0.375 -0.609375 -0.671875q-0.875 0.484375 -1.546875 0.71875q-0.65625 0.234375 -1.109375 0.234375q-2.125 0 -3.09375 -1.1875q-0.921875 -1.140625 -0.921875 -3.46875q0 -2.203125 1.515625 -3.765625q1.515625 -1.578125 3.625 -1.578125q0.78125 0 1.765625 0.421875q1.25 0.5 1.25 1.21875q0 0.25 -0.1875 0.4375q-0.09375 0.34375 -0.140625 1.140625q-0.046875 0.796875 -0.0625 2.03125q-0.015625 1.125 0.15625 1.78125q0.09375 0.40625 0.578125 1.609375q0.0625 0.171875 0.203125 0.484375l0.0625 0.15625q0 0.359375 -0.265625 0.59375q-0.25 0.234375 -0.59375 0.234375zm-1.890625 -6.328125q0 -0.390625 0.046875 -0.84375q0.0625 -0.46875 0.15625 -0.984375q-0.34375 -0.171875 -0.59375 -0.25q-0.234375 -0.078125 -0.375 -0.078125q-1.40625 0 -2.4375 1.15625q-1.015625 1.140625 -1.015625 2.640625q0 1.5 0.515625 2.25q0.53125 0.734375 1.59375 0.734375q0.875 0 1.484375 -0.3125q0.328125 -0.171875 0.921875 -0.6875q-0.296875 -2.421875 -0.296875 -3.625zm15.890503 6.484375q-0.734375 0 -0.875 -0.78125q-0.15625 -1.0 -0.3125 -2.828125l-0.3125 -2.828125q-0.09375 -0.625 -0.3125 -1.234375q-0.3125 -0.8125 -0.671875 -0.8125q-0.34375 0 -1.265625 0.578125q-0.875 0.53125 -1.140625 0.84375q-0.015625 0.859375 0.046875 1.71875l0.265625 2.421875q0.171875 1.4375 0.171875 2.375q0 0.40625 -0.25 0.65625q-0.25 0.265625 -0.640625 0.265625q-0.390625 0 -0.640625 -0.265625q-0.25 -0.25 -0.25 -0.65625q0 -1.09375 -0.234375 -3.25q-0.21875 -2.15625 -0.21875 -3.25q0 -0.96875 -0.265625 -1.515625q-0.640625 0.296875 -1.296875 0.953125l-1.078125 1.203125q-0.140625 0.21875 -0.453125 0.578125q0 0.546875 -0.109375 1.609375q-0.09375 1.0625 -0.09375 1.578125q0 0.265625 0.078125 0.765625q0.09375 0.484375 0.09375 0.703125q0 0.375 -0.28125 0.625q-0.28125 0.265625 -0.65625 0.265625q-1.015625 0 -1.015625 -2.34375q0 -0.546875 0.09375 -1.625q0.09375 -1.09375 0.09375 -1.640625q0 -0.484375 -0.09375 -1.4375q-0.078125 -0.96875 -0.078125 -1.46875q0 -2.0625 0.9375 -2.0625q0.34375 0 0.640625 0.3125q0.296875 0.3125 0.296875 0.671875q0 0.171875 -0.046875 0.546875q-0.03125 0.359375 -0.03125 0.546875l0.015625 0.953125q0.46875 -0.96875 1.390625 -1.75q0.921875 -0.796875 1.5625 -0.796875q1.4375 0 1.96875 1.421875q0.5 -0.671875 1.1875 -1.0q0.703125 -0.328125 1.59375 -0.328125q1.515625 0 2.078125 1.640625q0.109375 0.328125 0.375 2.546875q0.25 1.578125 0.65625 5.21875q0.03125 0.375 -0.25 0.625q-0.265625 0.25 -0.671875 0.25zm7.18071 -0.328125q-2.046875 0 -3.328125 -1.03125q-1.390625 -1.140625 -1.390625 -3.1875q0 -2.375 1.140625 -3.96875q1.25 -1.75 3.34375 -1.75q1.5 0 2.46875 0.5q1.171875 0.640625 1.171875 1.9375q0 0.90625 -1.03125 1.65625q-0.453125 0.328125 -1.9375 1.015625l-3.46875 1.65625q0.5 0.75 1.265625 1.140625q0.765625 0.375 1.765625 0.375q0.640625 0 1.484375 -0.234375q1.078125 -0.296875 1.375 -0.78125q0.3125 -0.484375 0.671875 -0.484375q0.3125 0 0.5625 0.234375q0.25 0.234375 0.25 0.5625q0 1.015625 -1.625 1.734375q-1.390625 0.625 -2.71875 0.625zm-0.234375 -8.296875q-1.125 0 -1.859375 0.859375q-0.734375 0.859375 -1.09375 2.59375l2.796875 -1.328125q1.640625 -0.8125 2.34375 -1.40625q-0.78125 -0.71875 -2.1875 -0.71875z" fill-rule="nonzero"/><path fill="#000000" fill-opacity="0.0" d="m160.22047 279.6483l127.401566 0l0 38.677185l-127.401566 0z" fill-rule="evenodd"/><path fill="#000000" d="m177.57985 299.83392q-0.0625 1.140625 -0.921875 1.140625q-0.78125 0 -0.78125 -0.90625q0 -0.171875 -0.03125 -0.625l-0.015625 -0.765625q-1.4375 0.171875 -2.3125 0.796875q-0.8125 0.59375 -1.34375 1.796875l0.015625 4.984375q0 0.921875 -0.90625 0.921875q-0.796875 0 -0.796875 -0.921875l0 -6.390625q0 -0.296875 0.015625 -0.890625q0.03125 -0.609375 0.03125 -0.921875q0 -0.90625 0.796875 -0.90625q0.890625 0 0.90625 1.5q1.75 -1.671875 3.875 -1.671875q0.75 0 1.109375 0.5625q0.359375 0.546875 0.359375 1.65625q0 0.484375 0 0.640625zm6.119995 7.15625q-2.046875 0 -3.328125 -1.03125q-1.390625 -1.140625 -1.390625 -3.1875q0 -2.375 1.140625 -3.96875q1.25 -1.75 3.34375 -1.75q1.5 0 2.46875 0.5q1.171875 0.640625 1.171875 1.9375q0 0.90625 -1.03125 1.65625q-0.453125 0.328125 -1.9375 1.015625l-3.46875 1.65625q0.5 0.75 1.265625 1.140625q0.765625 0.375 1.765625 0.375q0.640625 0 1.484375 -0.234375q1.078125 -0.296875 1.375 -0.78125q0.3125 -0.484375 0.671875 -0.484375q0.3125 0 0.5625 0.234375q0.25 0.234375 0.25 0.5625q0 1.015625 -1.625 1.734375q-1.390625 0.625 -2.71875 0.625zm-0.234375 -8.296875q-1.125 0 -1.859375 0.859375q-0.734375 0.859375 -1.09375 2.59375l2.796875 -1.328125q1.640625 -0.8125 2.34375 -1.40625q-0.78125 -0.71875 -2.1875 -0.71875zm13.705231 3.953125l-0.21875 3.0625q-0.046875 1.8125 -0.359375 2.96875q-0.421875 1.484375 -1.3125 2.1875q-1.09375 0.84375 -3.171875 0.84375q-1.203125 0 -2.03125 -0.171875q-1.140625 -0.21875 -1.140625 -0.9375q0 -0.8125 0.796875 -0.8125q0.328125 0 1.078125 0.15625q0.765625 0.15625 1.703125 0.140625q1.75 -0.03125 2.40625 -1.6875q0.4375 -1.125 0.46875 -3.421875q-0.484375 0.90625 -1.171875 1.375q-0.671875 0.453125 -1.546875 0.453125q-1.65625 0 -2.6875 -1.125q-1.03125 -1.125 -1.03125 -2.921875q0 -2.46875 1.40625 -3.96875q1.46875 -1.546875 3.984375 -1.546875q0.84375 0 1.40625 0.21875q0.578125 0.21875 0.875 0.65625q0.984375 0.03125 0.984375 1.078125q0 0.65625 -0.1875 1.734375q-0.21875 1.265625 -0.25 1.71875zm-2.921875 -3.953125q-1.734375 0 -2.6875 1.203125q-0.84375 1.0625 -0.84375 2.734375q0 1.3125 0.5 1.984375q0.5 0.65625 1.5 0.65625q0.921875 0 1.796875 -1.03125q0.78125 -0.953125 0.890625 -1.90625q0.1875 -0.96875 0.40625 -3.078125q-0.359375 -0.28125 -0.75 -0.421875q-0.390625 -0.140625 -0.8125 -0.140625zm7.0582733 -3.65625q-0.4375 0 -0.75 -0.3125q-0.3125 -0.3125 -0.3125 -0.75q0 -0.4375 0.3125 -0.734375q0.3125 -0.3125 0.75 -0.3125q0.4375 0 0.75 0.3125q0.328125 0.296875 0.328125 0.734375q0 0.4375 -0.328125 0.75q-0.3125 0.3125 -0.75 0.3125zm0.421875 7.390625q0 0.546875 0.03125 1.640625q0.03125 1.09375 0.03125 1.640625q0 0.390625 -0.25 0.65625q-0.25 0.25 -0.640625 0.25q-0.390625 0 -0.65625 -0.25q-0.25 -0.265625 -0.25 -0.65625q0 -0.546875 -0.03125 -1.640625q-0.03125 -1.09375 -0.03125 -1.640625q0 -0.84375 0.09375 -2.125q0.09375 -1.28125 0.09375 -2.140625q0 -0.40625 0.25 -0.65625q0.25 -0.265625 0.640625 -0.265625q0.390625 0 0.640625 0.265625q0.25 0.25 0.25 0.65625q0 0.859375 -0.09375 2.140625q-0.078125 1.28125 -0.078125 2.125zm9.228851 -2.875q-0.5 0 -0.703125 -0.328125q-0.140625 -0.25 -0.234375 -0.984375q-0.6875 0.171875 -2.109375 0.625q-1.46875 0.59375 -1.484375 1.4375q0.28125 0.109375 0.546875 0.15625q2.09375 0.375 3.109375 1.03125q1.484375 0.953125 1.484375 2.765625q0 1.484375 -1.28125 2.234375q-1.0625 0.625 -2.703125 0.625q-1.1875 0 -2.265625 -0.40625q-1.40625 -0.5 -1.40625 -1.421875q0 -0.359375 0.28125 -0.625q0.296875 -0.28125 0.65625 -0.28125q0.28125 0 0.734375 0.4375q0.21875 0.203125 0.984375 0.34375q0.609375 0.109375 1.015625 0.109375q0.765625 0 1.359375 -0.171875q0.84375 -0.265625 0.84375 -0.84375q0 -1.234375 -1.734375 -1.671875l-0.9375 -0.21875q-1.21875 -0.265625 -1.734375 -0.609375q-0.734375 -0.515625 -0.734375 -1.546875q0 -1.90625 1.796875 -2.71875q0.546875 -0.234375 1.75 -0.578125q1.203125 -0.34375 1.71875 -0.578125q0.375 -0.171875 0.8125 -0.171875q0.390625 0 0.640625 0.265625q0.25 0.25 0.25 0.65625q0 0.265625 0.109375 0.78125q0.125 0.5 0.125 0.765625q0 0.40625 -0.25 0.671875q-0.25 0.25 -0.640625 0.25zm9.019669 -0.75q-0.1875 0 -0.453125 -0.015625q-0.25 -0.015625 -0.453125 -0.015625q-0.203125 0 -1.234375 0.140625l0.171875 5.375l0.015625 0.40625l0 0.46875q0.046875 1.984375 -0.953125 1.984375q-0.359375 0 -0.640625 -0.234375q-0.265625 -0.234375 -0.265625 -0.59375q0 -0.34375 0.03125 -1.03125q0.03125 -0.703125 0.03125 -1.046875l-0.1875 -5.3125q-0.65625 -0.03125 -2.015625 -0.15625q-0.8125 -0.109375 -0.8125 -0.90625q0 -0.390625 0.234375 -0.65625q0.25 -0.265625 0.640625 -0.265625l1.90625 0.15625q0 -0.46875 -0.046875 -1.25q-0.03125 -0.78125 -0.03125 -1.125q0 -0.375 0.265625 -0.625q0.265625 -0.25 0.640625 -0.25q0.828125 0 0.96875 1.328125q0.015625 0.34375 0.015625 0.8125l-0.015625 0.53125l0 0.5625q1.125 -0.140625 1.28125 -0.140625q0.953125 0 1.25 0.09375q0.546875 0.171875 0.546875 0.84375q0 0.40625 -0.25 0.671875q-0.25 0.25 -0.640625 0.25zm6.9469147 8.1875q-2.046875 0 -3.328125 -1.03125q-1.390625 -1.140625 -1.390625 -3.1875q0 -2.375 1.140625 -3.96875q1.25 -1.75 3.34375 -1.75q1.5 0 2.46875 0.5q1.171875 0.640625 1.171875 1.9375q0 0.90625 -1.03125 1.65625q-0.453125 0.328125 -1.9375 1.015625l-3.46875 1.65625q0.5 0.75 1.265625 1.140625q0.765625 0.375 1.765625 0.375q0.640625 0 1.484375 -0.234375q1.078125 -0.296875 1.375 -0.78125q0.3125 -0.484375 0.671875 -0.484375q0.3125 0 0.5625 0.234375q0.25 0.234375 0.25 0.5625q0 1.015625 -1.625 1.734375q-1.390625 0.625 -2.71875 0.625zm-0.234375 -8.296875q-1.125 0 -1.859375 0.859375q-0.734375 0.859375 -1.09375 2.59375l2.796875 -1.328125q1.640625 -0.8125 2.34375 -1.40625q-0.78125 -0.71875 -2.1875 -0.71875zm13.298981 1.140625q-0.0625 1.140625 -0.921875 1.140625q-0.78125 0 -0.78125 -0.90625q0 -0.171875 -0.03125 -0.625l-0.015625 -0.765625q-1.4375 0.171875 -2.3125 0.796875q-0.8125 0.59375 -1.34375 1.796875l0.015625 4.984375q0 0.921875 -0.90625 0.921875q-0.796875 0 -0.796875 -0.921875l0 -6.390625q0 -0.296875 0.015625 -0.890625q0.03125 -0.609375 0.03125 -0.921875q0 -0.90625 0.796875 -0.90625q0.890625 0 0.90625 1.5q1.75 -1.671875 3.875 -1.671875q0.75 0 1.109375 0.5625q0.359375 0.546875 0.359375 1.65625q0 0.484375 0 0.640625zm6.119995 7.15625q-2.046875 0 -3.328125 -1.03125q-1.390625 -1.140625 -1.390625 -3.1875q0 -2.375 1.140625 -3.96875q1.25 -1.75 3.34375 -1.75q1.5 0 2.46875 0.5q1.171875 0.640625 1.171875 1.9375q0 0.90625 -1.03125 1.65625q-0.453125 0.328125 -1.9375 1.015625l-3.46875 1.65625q0.5 0.75 1.265625 1.140625q0.765625 0.375 1.765625 0.375q0.640625 0 1.484375 -0.234375q1.078125 -0.296875 1.375 -0.78125q0.3125 -0.484375 0.671875 -0.484375q0.3125 0 0.5625 0.234375q0.25 0.234375 0.25 0.5625q0 1.015625 -1.625 1.734375q-1.390625 0.625 -2.71875 0.625zm-0.234375 -8.296875q-1.125 0 -1.859375 0.859375q-0.734375 0.859375 -1.09375 2.59375l2.796875 -1.328125q1.640625 -0.8125 2.34375 -1.40625q-0.78125 -0.71875 -2.1875 -0.71875zm14.595856 -0.171875q-0.109375 1.34375 -0.109375 2.6875q0 3.03125 0.28125 4.578125q0.015625 0.125 0.015625 0.203125q0 0.375 -0.25 0.609375q-0.25 0.234375 -0.59375 0.234375q-0.5625 0 -0.828125 -0.828125q-0.65625 0.484375 -1.359375 0.734375q-0.703125 0.25 -1.46875 0.25q-1.890625 0 -3.125 -1.265625q-1.28125 -1.28125 -1.28125 -3.296875q0 -2.421875 1.28125 -3.890625q1.296875 -1.46875 3.359375 -1.46875q1.046875 0 1.625 0.328125l0.859375 0.625q0.125 -3.828125 0.296875 -5.15625q0.125 -0.8125 0.828125 -0.8125q0.828125 0 0.828125 0.875q0 1.265625 -0.359375 5.59375zm-4.046875 0.234375q-1.53125 0 -2.296875 0.90625q-0.765625 0.90625 -0.765625 2.734375q0 1.171875 0.828125 2.03125q0.84375 0.84375 1.96875 0.84375q0.765625 0 1.28125 -0.28125q0.3125 -0.171875 1.015625 -0.765625q0.140625 -0.109375 0.265625 -0.28125l-0.03125 -1.578125l0.015625 -1.046875l0.015625 -1.078125q-0.34375 -0.734375 -0.921875 -1.109375q-0.578125 -0.375 -1.375 -0.375z" fill-rule="nonzero"/><path fill="#000000" fill-opacity="0.0" d="m89.40666 291.40945l48.92946 0l0 0c6.409897 0 11.60614 5.4711304 11.60614 12.220154c0 6.748993 -5.1962433 12.220154 -11.60614 12.220154l-48.92946 0l0 0c-6.409897 0 -11.60614 -5.471161 -11.60614 -12.220154c0 -6.7490234 5.1962433 -12.220154 11.60614 -12.220154z" fill-rule="evenodd"/><path stroke="#000000" stroke-width="1.0" stroke-linejoin="round" stroke-linecap="butt" d="m89.40666 291.40945l48.92946 0l0 0c6.409897 0 11.60614 5.4711304 11.60614 12.220154c0 6.748993 -5.1962433 12.220154 -11.60614 12.220154l-48.92946 0l0 0c-6.409897 0 -11.60614 -5.471161 -11.60614 -12.220154c0 -6.7490234 5.1962433 -12.220154 11.60614 -12.220154z" fill-rule="evenodd"/><path fill="#000000" d="m127.8294 303.62466l0 0c0 -6.749176 4.949547 -12.220459 11.055122 -12.220459l0 0c2.9319916 0 5.7439117 1.2875061 7.8171387 3.5792847c2.0732422 2.2917786 3.237976 5.400116 3.237976 8.641174l0 0c0 6.749176 -4.9495544 12.2204895 -11.055115 12.2204895l0 0c-6.1055756 0 -11.055122 -5.4713135 -11.055122 -12.2204895z" fill-rule="evenodd"/><path stroke="#000000" stroke-width="1.0" stroke-linejoin="round" stroke-linecap="butt" d="m127.8294 303.62466l0 0c0 -6.749176 4.949547 -12.220459 11.055122 -12.220459l0 0c2.9319916 0 5.7439117 1.2875061 7.8171387 3.5792847c2.0732422 2.2917786 3.237976 5.400116 3.237976 8.641174l0 0c0 6.749176 -4.9495544 12.2204895 -11.055115 12.2204895l0 0c-6.1055756 0 -11.055122 -5.4713135 -11.055122 -12.2204895z" fill-rule="evenodd"/><path fill="#000000" fill-opacity="0.0" d="m96.94226 134.0315l-25.79528 -0.25196838" fill-rule="evenodd"/><path stroke="#000000" stroke-width="1.0" stroke-linejoin="round" stroke-linecap="butt" d="m96.94226 134.0315l-25.79528 -0.25196838" fill-rule="evenodd"/><path fill="#000000" fill-opacity="0.0" d="m71.154854 134.0315l0.25196838 52.06299" fill-rule="evenodd"/><path stroke="#000000" stroke-width="1.0" stroke-linejoin="round" stroke-linecap="butt" d="m71.154854 134.0315l0.25196838 52.06299" fill-rule="evenodd"/><path fill="#000000" fill-opacity="0.0" d="m72.3832 186.09973l221.03937 0.9763794" fill-rule="evenodd"/><path stroke="#000000" stroke-width="1.0" stroke-linejoin="round" stroke-linecap="butt" d="m72.3832 186.09973l221.03937 0.9763794" fill-rule="evenodd"/><path fill="#000000" fill-opacity="0.0" d="m204.02362 135.25984l88.409454 0.25196838" fill-rule="evenodd"/><path stroke="#000000" stroke-width="1.0" stroke-linejoin="round" stroke-linecap="butt" d="m204.02362 135.25984l88.409454 0.25196838" fill-rule="evenodd"/><path fill="#000000" fill-opacity="0.0" d="m292.1942 135.50656l0 51.08661" fill-rule="evenodd"/><path stroke="#000000" stroke-width="1.0" stroke-linejoin="round" stroke-linecap="butt" d="m292.1942 135.50656l0 51.08661" fill-rule="evenodd"/><path fill="#000000" fill-opacity="0.0" d="m87.57481 193.27034l174.07874 0l0 38.67717l-174.07874 0z" fill-rule="evenodd"/><path fill="#000000" d="m97.79356 217.92471q0 -0.390625 0.265625 -0.625q0.265625 -0.25 0.65625 -0.25q0.453125 0 0.78125 0.515625q0.46875 0.6875 0.828125 0.9375q0.78125 0.515625 2.25 0.515625q1.421875 0 2.625 -0.609375q1.546875 -0.78125 1.546875 -2.1875q0 -1.140625 -1.296875 -1.8125q-1.109375 -0.5625 -2.71875 -0.609375q-1.453125 -0.0625 -2.453125 -0.625q-1.296875 -0.75 -1.296875 -2.125q0 -1.625 1.84375 -2.953125q1.75 -1.265625 3.625 -1.265625q0.890625 0 2.0 0.296875q1.46875 0.390625 1.46875 1.0q0 0.796875 -0.8125 0.796875q-0.359375 0 -1.28125 -0.1875q-0.90625 -0.203125 -1.40625 -0.1875q-1.421875 0.015625 -2.421875 0.703125q-1.015625 0.703125 -1.015625 1.703125q0 0.75 1.34375 1.0625q0.515625 0.125 1.953125 0.21875q2.078125 0.15625 3.25 1.3125q1.078125 1.0625 1.078125 2.578125q0 2.171875 -2.0 3.46875q-1.734375 1.109375 -4.03125 1.109375q-1.671875 0 -3.0625 -0.640625q-1.6875 -0.78125 -1.71875 -2.140625zm20.41986 -3.046875q0 0.640625 0 1.953125q0.015625 1.3125 0.015625 1.96875q0 0.203125 0.03125 0.625q0.03125 0.40625 0.03125 0.609375q0 0.390625 -0.265625 0.640625q-0.265625 0.25 -0.640625 0.25q-0.703125 0 -0.890625 -0.875q-1.140625 0.59375 -2.625 0.59375q-1.203125 0 -1.984375 -0.53125q-0.859375 -0.578125 -1.03125 -1.703125q-0.34375 -2.40625 -0.34375 -4.296875q0 -1.25 0.265625 -2.84375q0.125 -0.78125 0.859375 -0.78125q0.390625 0 0.65625 0.25q0.265625 0.25 0.265625 0.640625q0 0.40625 -0.140625 1.328125q-0.125 0.921875 -0.125 1.40625q0 1.515625 0.09375 2.609375q0.109375 1.078125 0.3125 1.734375q0.296875 0.171875 0.59375 0.265625q0.296875 0.078125 0.578125 0.078125q1.21875 0 2.578125 -0.390625l-0.015625 -1.859375l-0.015625 -1.765625q0 -1.96875 0.171875 -3.40625q0.09375 -0.84375 0.890625 -0.84375q0.390625 0 0.640625 0.265625q0.265625 0.25 0.25 0.625l-0.15625 3.453125zm9.357864 -1.421875q-0.0625 1.140625 -0.921875 1.140625q-0.78125 0 -0.78125 -0.90625q0 -0.171875 -0.03125 -0.625l-0.015625 -0.765625q-1.4375 0.171875 -2.3125 0.796875q-0.8125 0.59375 -1.34375 1.796875l0.015625 4.984375q0 0.921875 -0.90625 0.921875q-0.796875 0 -0.796875 -0.921875l0 -6.390625q0 -0.296875 0.015625 -0.890625q0.03125 -0.609375 0.03125 -0.921875q0 -0.90625 0.796875 -0.90625q0.890625 0 0.90625 1.5q1.75 -1.671875 3.875 -1.671875q0.75 0 1.109375 0.5625q0.359375 0.546875 0.359375 1.65625q0 0.484375 0 0.640625zm8.8543625 7.375q-0.78125 0 -0.875 -0.84375l-0.265625 -2.0q-0.125 -1.0625 -0.125 -2.0q0 -0.25 0.03125 -0.859375q0.03125 -0.609375 0.03125 -0.875q0 -1.953125 -0.71875 -1.953125q-1.03125 0 -1.953125 1.203125q-0.84375 1.109375 -1.3125 2.78125q-0.015625 0.359375 -0.078125 0.90625q-0.0625 0.453125 -0.0625 0.875q0 0.28125 0.046875 0.828125q0.0625 0.546875 0.0625 0.8125q0 0.40625 -0.25 0.65625q-0.25 0.265625 -0.640625 0.265625q-0.40625 0 -0.65625 -0.265625q-0.234375 -0.25 -0.234375 -0.65625q0 -0.265625 -0.0625 -0.8125q-0.0625 -0.546875 -0.0625 -0.828125q0 -0.9375 0.125 -2.59375q0.140625 -1.671875 0.140625 -2.609375q0 -0.28125 -0.03125 -0.859375q-0.03125 -0.578125 -0.03125 -0.875q0 -0.390625 0.25 -0.640625q0.265625 -0.25 0.65625 -0.25q0.828125 0 0.921875 1.1875l0.015625 1.0625q1.53125 -2.03125 3.15625 -2.03125q1.453125 0 2.03125 1.28125q0.390625 0.859375 0.421875 2.53125l0 0.921875l-0.015625 0.84375q0 0.765625 0.203125 1.96875q0.203125 1.1875 0.203125 1.9375q0 0.390625 -0.265625 0.640625q-0.265625 0.25 -0.65625 0.25zm9.890381 -0.046875q-0.171875 0 -0.625 -0.390625q-0.40625 -0.375 -0.609375 -0.671875q-0.875 0.484375 -1.546875 0.71875q-0.65625 0.234375 -1.109375 0.234375q-2.125 0 -3.09375 -1.1875q-0.921875 -1.140625 -0.921875 -3.46875q0 -2.203125 1.515625 -3.765625q1.515625 -1.578125 3.625 -1.578125q0.78125 0 1.765625 0.421875q1.25 0.5 1.25 1.21875q0 0.25 -0.1875 0.4375q-0.09375 0.34375 -0.140625 1.140625q-0.046875 0.796875 -0.0625 2.03125q-0.015625 1.125 0.15625 1.78125q0.09375 0.40625 0.578125 1.609375q0.0625 0.171875 0.203125 0.484375l0.0625 0.15625q0 0.359375 -0.265625 0.59375q-0.25 0.234375 -0.59375 0.234375zm-1.890625 -6.328125q0 -0.390625 0.046875 -0.84375q0.0625 -0.46875 0.15625 -0.984375q-0.34375 -0.171875 -0.59375 -0.25q-0.234375 -0.078125 -0.375 -0.078125q-1.40625 0 -2.4375 1.15625q-1.015625 1.140625 -1.015625 2.640625q0 1.5 0.515625 2.25q0.53125 0.734375 1.59375 0.734375q0.875 0 1.484375 -0.3125q0.328125 -0.171875 0.921875 -0.6875q-0.296875 -2.421875 -0.296875 -3.625zm15.890503 6.484375q-0.734375 0 -0.875 -0.78125q-0.15625 -1.0 -0.3125 -2.828125l-0.3125 -2.828125q-0.09375 -0.625 -0.3125 -1.234375q-0.3125 -0.8125 -0.671875 -0.8125q-0.34375 0 -1.265625 0.578125q-0.875 0.53125 -1.140625 0.84375q-0.015625 0.859375 0.046875 1.71875l0.265625 2.421875q0.171875 1.4375 0.171875 2.375q0 0.40625 -0.25 0.65625q-0.25 0.265625 -0.640625 0.265625q-0.390625 0 -0.640625 -0.265625q-0.25 -0.25 -0.25 -0.65625q0 -1.09375 -0.234375 -3.25q-0.21875 -2.15625 -0.21875 -3.25q0 -0.96875 -0.265625 -1.515625q-0.640625 0.296875 -1.296875 0.953125l-1.078125 1.203125q-0.140625 0.21875 -0.453125 0.578125q0 0.546875 -0.109375 1.609375q-0.09375 1.0625 -0.09375 1.578125q0 0.265625 0.078125 0.765625q0.09375 0.484375 0.09375 0.703125q0 0.375 -0.28125 0.625q-0.28125 0.265625 -0.65625 0.265625q-1.015625 0 -1.015625 -2.34375q0 -0.546875 0.09375 -1.625q0.09375 -1.09375 0.09375 -1.640625q0 -0.484375 -0.09375 -1.4375q-0.078125 -0.96875 -0.078125 -1.46875q0 -2.0625 0.9375 -2.0625q0.34375 0 0.640625 0.3125q0.296875 0.3125 0.296875 0.671875q0 0.171875 -0.046875 0.546875q-0.03125 0.359375 -0.03125 0.546875l0.015625 0.953125q0.46875 -0.96875 1.390625 -1.75q0.921875 -0.796875 1.5625 -0.796875q1.4375 0 1.96875 1.421875q0.5 -0.671875 1.1875 -1.0q0.703125 -0.328125 1.59375 -0.328125q1.515625 0 2.078125 1.640625q0.109375 0.328125 0.375 2.546875q0.25 1.578125 0.65625 5.21875q0.03125 0.375 -0.25 0.625q-0.265625 0.25 -0.671875 0.25zm7.18071 -0.328125q-2.046875 0 -3.328125 -1.03125q-1.390625 -1.140625 -1.390625 -3.1875q0 -2.375 1.140625 -3.96875q1.25 -1.75 3.34375 -1.75q1.5 0 2.46875 0.5q1.171875 0.640625 1.171875 1.9375q0 0.90625 -1.03125 1.65625q-0.453125 0.328125 -1.9375 1.015625l-3.46875 1.65625q0.5 0.75 1.265625 1.140625q0.765625 0.375 1.765625 0.375q0.640625 0 1.484375 -0.234375q1.078125 -0.296875 1.375 -0.78125q0.3125 -0.484375 0.671875 -0.484375q0.3125 0 0.5625 0.234375q0.25 0.234375 0.25 0.5625q0 1.015625 -1.625 1.734375q-1.390625 0.625 -2.71875 0.625zm-0.234375 -8.296875q-1.125 0 -1.859375 0.859375q-0.734375 0.859375 -1.09375 2.59375l2.796875 -1.328125q1.640625 -0.8125 2.34375 -1.40625q-0.78125 -0.71875 -2.1875 -0.71875z" fill-rule="nonzero"/><path fill="#000000" fill-opacity="0.0" d="m94.98163 214.23622l-22.110237 -0.25196838" fill-rule="evenodd"/><path stroke="#000000" stroke-width="1.0" stroke-linejoin="round" stroke-linecap="butt" d="m94.98163 214.23622l-22.110237 -0.25196838" fill-rule="evenodd"/><path fill="#000000" fill-opacity="0.0" d="m72.879265 213.9895l0.724411 51.811035" fill-rule="evenodd"/><path stroke="#000000" stroke-width="1.0" stroke-linejoin="round" stroke-linecap="butt" d="m72.879265 213.9895l0.724411 51.811035" fill-rule="evenodd"/><path fill="#000000" fill-opacity="0.0" d="m73.614174 265.81104l221.29135 -0.25198364" fill-rule="evenodd"/><path stroke="#000000" stroke-width="1.0" stroke-linejoin="round" stroke-linecap="butt" d="m73.614174 265.81104l221.29135 -0.25198364" fill-rule="evenodd"/><path fill="#000000" fill-opacity="0.0" d="m295.39108 265.81104l0.25195312 -50.582687" fill-rule="evenodd"/><path stroke="#000000" stroke-width="1.0" stroke-linejoin="round" stroke-linecap="butt" d="m295.39108 265.81104l0.25195312 -50.582687" fill-rule="evenodd"/><path fill="#000000" fill-opacity="0.0" d="m177.01312 214.72704l118.39371 0" fill-rule="evenodd"/><path stroke="#000000" stroke-width="1.0" stroke-linejoin="round" stroke-linecap="butt" d="m177.01312 214.72704l118.39371 0" fill-rule="evenodd"/><path fill="#000000" fill-opacity="0.0" d="m35.451443 354.98163l384.47244 0l0 55.24408l-384.47244 0z" fill-rule="evenodd"/><path fill="#000000" d="m45.888943 381.9016l0 -13.359375l5.046875 0q1.328125 0 2.03125 0.125q0.96875 0.171875 1.640625 0.640625q0.671875 0.453125 1.078125 1.28125q0.40625 0.828125 0.40625 1.828125q0 1.703125 -1.09375 2.890625q-1.078125 1.171875 -3.921875 1.171875l-3.421875 0l0 5.421875l-1.765625 0zm1.765625 -7.0l3.453125 0q1.71875 0 2.4375 -0.640625q0.71875 -0.640625 0.71875 -1.796875q0 -0.84375 -0.421875 -1.4375q-0.421875 -0.59375 -1.125 -0.78125q-0.4375 -0.125 -1.640625 -0.125l-3.421875 0l0 4.78125zm10.427948 7.0l0 -13.359375l1.640625 0l0 13.359375l-1.640625 0zm10.8167 -3.109375l1.6875 0.203125q-0.40625 1.484375 -1.484375 2.3125q-1.078125 0.8125 -2.765625 0.8125q-2.125 0 -3.3750038 -1.296875q-1.234375 -1.3125 -1.234375 -3.671875q0 -2.453125 1.25 -3.796875q1.2656288 -1.34375 3.2656288 -1.34375q1.9375 0 3.15625 1.328125q1.234375 1.3125 1.234375 3.703125q0 0.15625 0 0.4375l-7.218754 0q0.09375 1.59375 0.9062538 2.453125q0.8125 0.84375 2.015625 0.84375q0.90625 0 1.546875 -0.46875q0.640625 -0.484375 1.015625 -1.515625zm-5.390629 -2.65625l5.406254 0q-0.109375 -1.21875 -0.625 -1.828125q-0.78125 -0.953125 -2.03125 -0.953125q-1.125 0 -1.90625 0.765625q-0.7656288 0.75 -0.8437538 2.015625zm15.453846 4.578125q-0.921875 0.765625 -1.765625 1.09375q-0.828125 0.3125 -1.796875 0.3125q-1.59375 0 -2.453125 -0.78125q-0.859375 -0.78125 -0.859375 -1.984375q0 -0.71875 0.328125 -1.296875q0.328125 -0.59375 0.84375 -0.9375q0.53125 -0.359375 1.1875 -0.546875q0.46875 -0.125 1.453125 -0.25q1.984375 -0.234375 2.921875 -0.5625q0.015625 -0.34375 0.015625 -0.421875q0 -1.0 -0.46875 -1.421875q-0.625 -0.546875 -1.875 -0.546875q-1.15625 0 -1.703125 0.40625q-0.546875 0.40625 -0.8125 1.421875l-1.609375 -0.21875q0.21875 -1.015625 0.71875 -1.640625q0.5 -0.640625 1.453125 -0.984375q0.953125 -0.34375 2.1875 -0.34375q1.25 0 2.015625 0.296875q0.78125 0.28125 1.140625 0.734375q0.375 0.4375 0.515625 1.109375q0.078125 0.421875 0.078125 1.515625l0 2.1875q0 2.28125 0.109375 2.890625q0.109375 0.59375 0.40625 1.15625l-1.703125 0q-0.265625 -0.515625 -0.328125 -1.1875zm-0.140625 -3.671875q-0.890625 0.375 -2.671875 0.625q-1.015625 0.140625 -1.4375 0.328125q-0.421875 0.1875 -0.65625 0.53125q-0.21875 0.34375 -0.21875 0.78125q0 0.65625 0.5 1.09375q0.5 0.4375 1.453125 0.4375q0.9375 0 1.671875 -0.40625q0.75 -0.421875 1.09375 -1.140625q0.265625 -0.5625 0.265625 -1.640625l0 -0.609375zm3.5475922 1.96875l1.625 -0.25q0.125 0.96875 0.75 1.5q0.625 0.515625 1.75 0.515625q1.125 0 1.671875 -0.453125q0.546875 -0.46875 0.546875 -1.09375q0 -0.546875 -0.484375 -0.875q-0.328125 -0.21875 -1.671875 -0.546875q-1.8125 -0.46875 -2.515625 -0.796875q-0.6875 -0.328125 -1.046875 -0.90625q-0.359375 -0.59375 -0.359375 -1.3125q0 -0.640625 0.296875 -1.1875q0.296875 -0.5625 0.8125 -0.921875q0.375 -0.28125 1.03125 -0.46875q0.671875 -0.203125 1.421875 -0.203125q1.140625 0 2.0 0.328125q0.859375 0.328125 1.265625 0.890625q0.421875 0.5625 0.578125 1.5l-1.609375 0.21875q-0.109375 -0.75 -0.640625 -1.171875q-0.515625 -0.421875 -1.46875 -0.421875q-1.140625 0 -1.625 0.375q-0.46875 0.375 -0.46875 0.875q0 0.3125 0.1875 0.578125q0.203125 0.265625 0.640625 0.4375q0.234375 0.09375 1.4375 0.421875q1.75 0.453125 2.4375 0.75q0.6875 0.296875 1.078125 0.859375q0.390625 0.5625 0.390625 1.40625q0 0.828125 -0.484375 1.546875q-0.46875 0.71875 -1.375 1.125q-0.90625 0.390625 -2.046875 0.390625q-1.875 0 -2.875 -0.78125q-0.984375 -0.78125 -1.25 -2.328125zm16.609375 -0.21875l1.6875 0.203125q-0.40625 1.484375 -1.484375 2.3125q-1.078125 0.8125 -2.765625 0.8125q-2.125 0 -3.375 -1.296875q-1.234375 -1.3125 -1.234375 -3.671875q0 -2.453125 1.25 -3.796875q1.265625 -1.34375 3.265625 -1.34375q1.9375 0 3.15625 1.328125q1.234375 1.3125 1.234375 3.703125q0 0.15625 0 0.4375l-7.21875 0q0.09375 1.59375 0.90625 2.453125q0.8125 0.84375 2.015625 0.84375q0.90625 0 1.546875 -0.46875q0.640625 -0.484375 1.015625 -1.515625zm-5.390625 -2.65625l5.40625 0q-0.109375 -1.21875 -0.625 -1.828125q-0.78125 -0.953125 -2.03125 -0.953125q-1.125 0 -1.90625 0.765625q-0.765625 0.75 -0.84375 2.015625zm14.715271 5.765625l0 -8.40625l-1.453125 0l0 -1.265625l1.453125 0l0 -1.03125q0 -0.96875 0.171875 -1.453125q0.234375 -0.640625 0.828125 -1.03125q0.59375 -0.390625 1.671875 -0.390625q0.6875 0 1.53125 0.15625l-0.25 1.4375q-0.5 -0.09375 -0.953125 -0.09375q-0.75 0 -1.0625 0.328125q-0.3125 0.3125 -0.3125 1.1875l0 0.890625l1.890625 0l0 1.265625l-1.890625 0l0 8.40625l-1.625 0zm4.792679 -11.46875l0 -1.890625l1.640625 0l0 1.890625l-1.640625 0zm0 11.46875l0 -9.671875l1.640625 0l0 9.671875l-1.640625 0zm4.097946 0l0 -13.359375l1.640625 0l0 13.359375l-1.640625 0zm4.144821 0l0 -13.359375l1.640625 0l0 13.359375l-1.640625 0zm8.765625 -4.84375q0 -2.6875 1.484375 -3.96875q1.25 -1.078125 3.046875 -1.078125q2.0 0 3.265625 1.3125q1.265625 1.296875 1.265625 3.609375q0 1.859375 -0.5625 2.9375q-0.5625 1.0625 -1.640625 1.65625q-1.0625 0.59375 -2.328125 0.59375q-2.03125 0 -3.28125 -1.296875q-1.25 -1.3125 -1.25 -3.765625zm1.6875 0q0 1.859375 0.796875 2.796875q0.8125 0.921875 2.046875 0.921875q1.21875 0 2.03125 -0.921875q0.8125 -0.9375 0.8125 -2.84375q0 -1.796875 -0.8125 -2.71875q-0.8125 -0.921875 -2.03125 -0.921875q-1.234375 0 -2.046875 0.921875q-0.796875 0.90625 -0.796875 2.765625zm15.625717 4.84375l0 -1.421875q-1.125 1.640625 -3.0625 1.640625q-0.859375 0 -1.609375 -0.328125q-0.734375 -0.328125 -1.09375 -0.828125q-0.359375 -0.5 -0.5 -1.21875q-0.109375 -0.46875 -0.109375 -1.53125l0 -5.984375l1.640625 0l0 5.359375q0 1.28125 0.109375 1.734375q0.15625 0.640625 0.65625 1.015625q0.5 0.375 1.234375 0.375q0.734375 0 1.375 -0.375q0.65625 -0.390625 0.921875 -1.03125q0.265625 -0.65625 0.265625 -1.890625l0 -5.1875l1.640625 0l0 9.671875l-1.46875 0zm7.625717 -1.46875l0.234375 1.453125q-0.6875 0.140625 -1.234375 0.140625q-0.890625 0 -1.390625 -0.28125q-0.484375 -0.28125 -0.6875 -0.734375q-0.203125 -0.46875 -0.203125 -1.9375l0 -5.578125l-1.203125 0l0 -1.265625l1.203125 0l0 -2.390625l1.625 -0.984375l0 3.375l1.65625 0l0 1.265625l-1.65625 0l0 5.671875q0 0.6875 0.078125 0.890625q0.09375 0.203125 0.28125 0.328125q0.203125 0.109375 0.578125 0.109375q0.265625 0 0.71875 -0.0625zm10.366608 0l0.234375 1.453125q-0.6875 0.140625 -1.234375 0.140625q-0.890625 0 -1.390625 -0.28125q-0.484375 -0.28125 -0.6875 -0.734375q-0.203125 -0.46875 -0.203125 -1.9375l0 -5.578125l-1.203125 0l0 -1.265625l1.203125 0l0 -2.390625l1.625 -0.984375l0 3.375l1.65625 0l0 1.265625l-1.65625 0l0 5.671875q0 0.6875 0.078125 0.890625q0.09375 0.203125 0.28125 0.328125q0.203125 0.109375 0.578125 0.109375q0.265625 0 0.71875 -0.0625zm1.6051788 1.46875l0 -13.359375l1.640625 0l0 4.796875q1.140625 -1.328125 2.890625 -1.328125q1.078125 0 1.859375 0.421875q0.796875 0.421875 1.140625 1.171875q0.34375 0.75 0.34375 2.171875l0 6.125l-1.640625 0l0 -6.125q0 -1.234375 -0.53125 -1.796875q-0.53125 -0.5625 -1.515625 -0.5625q-0.71875 0 -1.359375 0.390625q-0.640625 0.375 -0.921875 1.015625q-0.265625 0.640625 -0.265625 1.78125l0 5.296875l-1.640625 0zm17.000717 -3.109375l1.6875 0.203125q-0.40625 1.484375 -1.484375 2.3125q-1.078125 0.8125 -2.765625 0.8125q-2.125 0 -3.375 -1.296875q-1.234375 -1.3125 -1.234375 -3.671875q0 -2.453125 1.25 -3.796875q1.265625 -1.34375 3.265625 -1.34375q1.9375 0 3.15625 1.328125q1.234375 1.3125 1.234375 3.703125q0 0.15625 0 0.4375l-7.21875 0q0.09375 1.59375 0.90625 2.453125q0.8125 0.84375 2.015625 0.84375q0.90625 0 1.546875 -0.46875q0.640625 -0.484375 1.015625 -1.515625zm-5.390625 -2.65625l5.40625 0q-0.109375 -1.21875 -0.625 -1.828125q-0.78125 -0.953125 -2.03125 -0.953125q-1.125 0 -1.90625 0.765625q-0.765625 0.75 -0.84375 2.015625zm14.715271 5.765625l0 -8.40625l-1.453125 0l0 -1.265625l1.453125 0l0 -1.03125q0 -0.96875 0.171875 -1.453125q0.234375 -0.640625 0.828125 -1.03125q0.59375 -0.390625 1.671875 -0.390625q0.6875 0 1.53125 0.15625l-0.25 1.4375q-0.5 -0.09375 -0.953125 -0.09375q-0.75 0 -1.0625 0.328125q-0.3125 0.3125 -0.3125 1.1875l0 0.890625l1.890625 0l0 1.265625l-1.890625 0l0 8.40625l-1.625 0zm4.183304 -4.84375q0 -2.6875 1.484375 -3.96875q1.25 -1.078125 3.046875 -1.078125q2.0 0 3.265625 1.3125q1.265625 1.296875 1.265625 3.609375q0 1.859375 -0.5625 2.9375q-0.5625 1.0625 -1.640625 1.65625q-1.0625 0.59375 -2.328125 0.59375q-2.03125 0 -3.28125 -1.296875q-1.25 -1.3125 -1.25 -3.765625zm1.6875 0q0 1.859375 0.796875 2.796875q0.8125 0.921875 2.046875 0.921875q1.21875 0 2.03125 -0.921875q0.8125 -0.9375 0.8125 -2.84375q0 -1.796875 -0.8125 -2.71875q-0.8125 -0.921875 -2.03125 -0.921875q-1.234375 0 -2.046875 0.921875q-0.796875 0.90625 -0.796875 2.765625zm9.281967 4.84375l0 -9.671875l1.46875 0l0 1.46875q0.5625 -1.03125 1.03125 -1.359375q0.484375 -0.328125 1.0625 -0.328125q0.828125 0 1.6875 0.53125l-0.5625 1.515625q-0.609375 -0.359375 -1.203125 -0.359375q-0.546875 0 -0.96875 0.328125q-0.421875 0.328125 -0.609375 0.890625q-0.28125 0.875 -0.28125 1.921875l0 5.0625l-1.625 0zm6.228302 0l0 -9.671875l1.46875 0l0 1.359375q0.453125 -0.71875 1.203125 -1.140625q0.765625 -0.4375 1.71875 -0.4375q1.078125 0 1.765625 0.453125q0.6875 0.4375 0.96875 1.234375q1.15625 -1.6875 2.984375 -1.6875q1.453125 0 2.21875 0.796875q0.78125 0.796875 0.78125 2.453125l0 6.640625l-1.640625 0l0 -6.09375q0 -0.984375 -0.15625 -1.40625q-0.15625 -0.4375 -0.578125 -0.703125q-0.421875 -0.265625 -0.984375 -0.265625q-1.015625 0 -1.6875 0.6875q-0.671875 0.671875 -0.671875 2.15625l0 5.625l-1.640625 0l0 -6.28125q0 -1.09375 -0.40625 -1.640625q-0.40625 -0.546875 -1.3125 -0.546875q-0.6875 0 -1.28125 0.359375q-0.59375 0.359375 -0.859375 1.0625q-0.25 0.703125 -0.25 2.03125l0 5.015625l-1.640625 0zm24.30223 -1.46875l0.234375 1.453125q-0.6875 0.140625 -1.234375 0.140625q-0.890625 0 -1.390625 -0.28125q-0.484375 -0.28125 -0.6875 -0.734375q-0.203125 -0.46875 -0.203125 -1.9375l0 -5.578125l-1.203125 0l0 -1.265625l1.203125 0l0 -2.390625l1.625 -0.984375l0 3.375l1.65625 0l0 1.265625l-1.65625 0l0 5.671875q0 0.6875 0.078125 0.890625q0.09375 0.203125 0.28125 0.328125q0.203125 0.109375 0.578125 0.109375q0.265625 0 0.71875 -0.0625zm0.99580383 -3.375q0 -2.6875 1.484375 -3.96875q1.25 -1.078125 3.046875 -1.078125q2.0 0 3.265625 1.3125q1.265625 1.296875 1.265625 3.609375q0 1.859375 -0.5625 2.9375q-0.5625 1.0625 -1.640625 1.65625q-1.0625 0.59375 -2.328125 0.59375q-2.03125 0 -3.28125 -1.296875q-1.25 -1.3125 -1.25 -3.765625zm1.6875 0q0 1.859375 0.796875 2.796875q0.8125 0.921875 2.046875 0.921875q1.21875 0 2.03125 -0.921875q0.8125 -0.9375 0.8125 -2.84375q0 -1.796875 -0.8125 -2.71875q-0.8125 -0.921875 -2.03125 -0.921875q-1.234375 0 -2.046875 0.921875q-0.796875 0.90625 -0.796875 2.765625zm20.793396 1.296875l1.609375 0.21875q-0.265625 1.65625 -1.359375 2.609375q-1.078125 0.9375 -2.671875 0.9375q-1.984375 0 -3.1875 -1.296875q-1.203125 -1.296875 -1.203125 -3.71875q0 -1.578125 0.515625 -2.75q0.515625 -1.171875 1.578125 -1.75q1.0625 -0.59375 2.3125 -0.59375q1.578125 0 2.578125 0.796875q1.0 0.796875 1.28125 2.265625l-1.59375 0.234375q-0.234375 -0.96875 -0.8125 -1.453125q-0.578125 -0.5 -1.390625 -0.5q-1.234375 0 -2.015625 0.890625q-0.78125 0.890625 -0.78125 2.8125q0 1.953125 0.75 2.84375q0.75 0.875 1.953125 0.875q0.96875 0 1.609375 -0.59375q0.65625 -0.59375 0.828125 -1.828125zm2.40625 -1.296875q0 -2.6875 1.484375 -3.96875q1.25 -1.078125 3.046875 -1.078125q2.0 0 3.265625 1.3125q1.265625 1.296875 1.265625 3.609375q0 1.859375 -0.5625 2.9375q-0.5625 1.0625 -1.640625 1.65625q-1.0625 0.59375 -2.328125 0.59375q-2.03125 0 -3.28125 -1.296875q-1.25 -1.3125 -1.25 -3.765625zm1.6875 0q0 1.859375 0.796875 2.796875q0.8125 0.921875 2.046875 0.921875q1.21875 0 2.03125 -0.921875q0.8125 -0.9375 0.8125 -2.84375q0 -1.796875 -0.8125 -2.71875q-0.8125 -0.921875 -2.03125 -0.921875q-1.234375 0 -2.046875 0.921875q-0.796875 0.90625 -0.796875 2.765625zm9.297577 4.84375l0 -9.671875l1.46875 0l0 1.359375q0.453125 -0.71875 1.203125 -1.140625q0.765625 -0.4375 1.71875 -0.4375q1.078125 0 1.765625 0.453125q0.6875 0.4375 0.96875 1.234375q1.15625 -1.6875 2.984375 -1.6875q1.453125 0 2.21875 0.796875q0.78125 0.796875 0.78125 2.453125l0 6.640625l-1.640625 0l0 -6.09375q0 -0.984375 -0.15625 -1.40625q-0.15625 -0.4375 -0.578125 -0.703125q-0.421875 -0.265625 -0.984375 -0.265625q-1.015625 0 -1.6875 0.6875q-0.671875 0.671875 -0.671875 2.15625l0 5.625l-1.640625 0l0 -6.28125q0 -1.09375 -0.40625 -1.640625q-0.40625 -0.546875 -1.3125 -0.546875q-0.6875 0 -1.28125 0.359375q-0.59375 0.359375 -0.859375 1.0625q-0.25 0.703125 -0.25 2.03125l0 5.015625l-1.640625 0zm15.540802 3.703125l0 -13.375l1.484375 0l0 1.25q0.53125 -0.734375 1.1875 -1.09375q0.671875 -0.375 1.625 -0.375q1.234375 0 2.171875 0.640625q0.953125 0.625 1.4375 1.796875q0.484375 1.15625 0.484375 2.546875q0 1.484375 -0.53125 2.671875q-0.53125 1.1875 -1.546875 1.828125q-1.015625 0.625 -2.140625 0.625q-0.8125 0 -1.46875 -0.34375q-0.65625 -0.34375 -1.0625 -0.875l0 4.703125l-1.640625 0zm1.484375 -8.484375q0 1.859375 0.75 2.765625q0.765625 0.890625 1.828125 0.890625q1.09375 0 1.875 -0.921875q0.78125 -0.9375 0.78125 -2.875q0 -1.84375 -0.765625 -2.765625q-0.75 -0.921875 -1.8125 -0.921875q-1.046875 0 -1.859375 0.984375q-0.796875 0.96875 -0.796875 2.84375zm8.844482 4.78125l0 -13.359375l1.640625 0l0 13.359375l-1.640625 0zm10.816711 -3.109375l1.6875 0.203125q-0.40625 1.484375 -1.484375 2.3125q-1.078125 0.8125 -2.765625 0.8125q-2.125 0 -3.375 -1.296875q-1.234375 -1.3125 -1.234375 -3.671875q0 -2.453125 1.25 -3.796875q1.265625 -1.34375 3.265625 -1.34375q1.9375 0 3.15625 1.328125q1.234375 1.3125 1.234375 3.703125q0 0.15625 0 0.4375l-7.21875 0q0.09375 1.59375 0.90625 2.453125q0.8125 0.84375 2.015625 0.84375q0.90625 0 1.546875 -0.46875q0.640625 -0.484375 1.015625 -1.515625zm-5.390625 -2.65625l5.40625 0q-0.109375 -1.21875 -0.625 -1.828125q-0.78125 -0.953125 -2.03125 -0.953125q-1.125 0 -1.90625 0.765625q-0.765625 0.75 -0.84375 2.015625zm12.719482 4.296875l0.234375 1.453125q-0.6875 0.140625 -1.234375 0.140625q-0.890625 0 -1.390625 -0.28125q-0.484375 -0.28125 -0.6875 -0.734375q-0.203125 -0.46875 -0.203125 -1.9375l0 -5.578125l-1.203125 0l0 -1.265625l1.203125 0l0 -2.390625l1.625 -0.984375l0 3.375l1.65625 0l0 1.265625l-1.65625 0l0 5.671875q0 0.6875 0.078125 0.890625q0.09375 0.203125 0.28125 0.328125q0.203125 0.109375 0.578125 0.109375q0.265625 0 0.71875 -0.0625zm8.230164 -1.640625l1.6875 0.203125q-0.40625 1.484375 -1.484375 2.3125q-1.078125 0.8125 -2.765625 0.8125q-2.125 0 -3.375 -1.296875q-1.234375 -1.3125 -1.234375 -3.671875q0 -2.453125 1.25 -3.796875q1.265625 -1.34375 3.265625 -1.34375q1.9375 0 3.15625 1.328125q1.234375 1.3125 1.234375 3.703125q0 0.15625 0 0.4375l-7.21875 0q0.09375 1.59375 0.90625 2.453125q0.8125 0.84375 2.015625 0.84375q0.90625 0 1.546875 -0.46875q0.640625 -0.484375 1.015625 -1.515625zm-5.390625 -2.65625l5.40625 0q-0.109375 -1.21875 -0.625 -1.828125q-0.78125 -0.953125 -2.03125 -0.953125q-1.125 0 -1.90625 0.765625q-0.765625 0.75 -0.84375 2.015625zm14.246521 9.484375l-0.1875 -1.53125q0.546875 0.140625 0.9375 0.140625q0.546875 0 0.875 -0.1875q0.328125 -0.171875 0.546875 -0.5q0.15625 -0.25 0.5 -1.21875q0.046875 -0.140625 0.140625 -0.40625l-3.671875 -9.6875l1.765625 0l2.015625 5.59375q0.390625 1.078125 0.703125 2.25q0.28125 -1.125 0.671875 -2.203125l2.078125 -5.640625l1.640625 0l-3.6875 9.828125q-0.59375 1.609375 -0.921875 2.203125q-0.4375 0.8125 -1.0 1.1875q-0.5625 0.375 -1.34375 0.375q-0.484375 0 -1.0625 -0.203125zm8.796875 -8.5625q0 -2.6875 1.484375 -3.96875q1.25 -1.078125 3.046875 -1.078125q2.0 0 3.265625 1.3125q1.265625 1.296875 1.265625 3.609375q0 1.859375 -0.5625 2.9375q-0.5625 1.0625 -1.640625 1.65625q-1.0625 0.59375 -2.328125 0.59375q-2.03125 0 -3.28125 -1.296875q-1.25 -1.3125 -1.25 -3.765625zm1.6875 0q0 1.859375 0.796875 2.796875q0.8125 0.921875 2.046875 0.921875q1.21875 0 2.03125 -0.921875q0.8125 -0.9375 0.8125 -2.84375q0 -1.796875 -0.8125 -2.71875q-0.8125 -0.921875 -2.03125 -0.921875q-1.234375 0 -2.046875 0.921875q-0.796875 0.90625 -0.796875 2.765625zm15.625732 4.84375l0 -1.421875q-1.125 1.640625 -3.0625 1.640625q-0.859375 0 -1.609375 -0.328125q-0.734375 -0.328125 -1.09375 -0.828125q-0.359375 -0.5 -0.5 -1.21875q-0.109375 -0.46875 -0.109375 -1.53125l0 -5.984375l1.640625 0l0 5.359375q0 1.28125 0.109375 1.734375q0.15625 0.640625 0.65625 1.015625q0.5 0.375 1.234375 0.375q0.734375 0 1.375 -0.375q0.65625 -0.390625 0.921875 -1.03125q0.265625 -0.65625 0.265625 -1.890625l0 -5.1875l1.640625 0l0 9.671875l-1.46875 0zm4.0319824 0l0 -9.671875l1.46875 0l0 1.46875q0.5625 -1.03125 1.03125 -1.359375q0.484375 -0.328125 1.0625 -0.328125q0.828125 0 1.6875 0.53125l-0.5625 1.515625q-0.609375 -0.359375 -1.203125 -0.359375q-0.546875 0 -0.96875 0.328125q-0.421875 0.328125 -0.609375 0.890625q-0.28125 0.875 -0.28125 1.921875l0 5.0625l-1.625 0z" fill-rule="nonzero"/><path fill="#000000" d="m45.670193 403.9016l0 -9.671875l1.46875 0l0 1.46875q0.5625 -1.03125 1.03125 -1.359375q0.484375 -0.328125 1.0625 -0.328125q0.828125 0 1.6875 0.53125l-0.5625 1.515625q-0.609375 -0.359375 -1.203125 -0.359375q-0.546875 0 -0.96875 0.328125q-0.421875 0.328125 -0.609375 0.890625q-0.28125 0.875 -0.28125 1.921875l0 5.0625l-1.625 0zm12.853302 -3.109375l1.6875 0.203125q-0.40625 1.484375 -1.484375 2.3125q-1.078125 0.8125 -2.765625 0.8125q-2.125 0 -3.375 -1.296875q-1.234375 -1.3125 -1.234375 -3.671875q0 -2.453125 1.25 -3.796875q1.265625 -1.34375 3.265625 -1.34375q1.9375 0 3.15625 1.328125q1.234375 1.3125 1.234375 3.703125q0 0.15625 0 0.4375l-7.21875 0q0.09375 1.59375 0.90625 2.453125q0.8125 0.84375 2.015625 0.84375q0.90625 0 1.546875 -0.46875q0.640625 -0.484375 1.015625 -1.515625zm-5.390625 -2.65625l5.40625 0q-0.109375 -1.21875 -0.625 -1.828125q-0.78125 -0.953125 -2.03125 -0.953125q-1.125 0 -1.90625 0.765625q-0.765625 0.75 -0.84375 2.015625zm8.828842 6.5625l1.59375 0.234375q0.109375 0.75 0.5625038 1.078125q0.609375 0.453125 1.671875 0.453125q1.140625 0 1.75 -0.453125q0.625 -0.453125 0.84375 -1.265625q0.125 -0.5 0.109375 -2.109375q-1.0625 1.265625 -2.671875 1.265625q-2.0000038 0 -3.0937538 -1.4375q-1.09375 -1.4375 -1.09375 -3.453125q0 -1.390625 0.5 -2.5625q0.515625 -1.171875 1.453125 -1.796875q0.9531288 -0.640625 2.2500038 -0.640625q1.703125 0 2.8125 1.375l0 -1.15625l1.515625 0l0 8.359375q0 2.265625 -0.46875 3.203125q-0.453125 0.9375 -1.453125 1.484375q-0.984375 0.546875 -2.453125 0.546875q-1.71875 0 -2.7968788 -0.78125q-1.0625 -0.765625 -1.03125 -2.34375zm1.359375 -5.8125q0 1.90625 0.7500038 2.78125q0.765625 0.875 1.90625 0.875q1.125 0 1.890625 -0.859375q0.765625 -0.875 0.765625 -2.734375q0 -1.78125 -0.796875 -2.671875q-0.78125 -0.90625 -1.890625 -0.90625q-1.09375 0 -1.859375 0.890625q-0.7656288 0.875 -0.7656288 2.625zm9.328846 -6.453125l0 -1.890625l1.640625 0l0 1.890625l-1.640625 0zm0 11.46875l0 -9.671875l1.640625 0l0 9.671875l-1.640625 0zm3.4885712 -2.890625l1.625 -0.25q0.125 0.96875 0.75 1.5q0.625 0.515625 1.75 0.515625q1.125 0 1.671875 -0.453125q0.546875 -0.46875 0.546875 -1.09375q0 -0.546875 -0.484375 -0.875q-0.328125 -0.21875 -1.671875 -0.546875q-1.8125 -0.46875 -2.515625 -0.796875q-0.6875 -0.328125 -1.046875 -0.90625q-0.359375 -0.59375 -0.359375 -1.3125q0 -0.640625 0.296875 -1.1875q0.296875 -0.5625 0.8125 -0.921875q0.375 -0.28125 1.03125 -0.46875q0.671875 -0.203125 1.421875 -0.203125q1.140625 0 2.0 0.328125q0.859375 0.328125 1.265625 0.890625q0.421875 0.5625 0.578125 1.5l-1.609375 0.21875q-0.109375 -0.75 -0.640625 -1.171875q-0.515625 -0.421875 -1.46875 -0.421875q-1.140625 0 -1.625 0.375q-0.46875 0.375 -0.46875 0.875q0 0.3125 0.1875 0.578125q0.203125 0.265625 0.640625 0.4375q0.234375 0.09375 1.4375 0.421875q1.75 0.453125 2.4375 0.75q0.6875 0.296875 1.078125 0.859375q0.390625 0.5625 0.390625 1.40625q0 0.828125 -0.484375 1.546875q-0.46875 0.71875 -1.375 1.125q-0.90625 0.390625 -2.046875 0.390625q-1.875 0 -2.875 -0.78125q-0.984375 -0.78125 -1.25 -2.328125zm13.5625 1.421875l0.234375 1.453125q-0.6875 0.140625 -1.234375 0.140625q-0.890625 0 -1.390625 -0.28125q-0.484375 -0.28125 -0.6875 -0.734375q-0.203125 -0.46875 -0.203125 -1.9375l0 -5.578125l-1.203125 0l0 -1.265625l1.203125 0l0 -2.390625l1.625 -0.984375l0 3.375l1.65625 0l0 1.265625l-1.65625 0l0 5.671875q0 0.6875 0.078125 0.890625q0.09375 0.203125 0.28125 0.328125q0.203125 0.109375 0.578125 0.109375q0.265625 0 0.71875 -0.0625zm1.5895538 1.46875l0 -9.671875l1.46875 0l0 1.46875q0.5625 -1.03125 1.03125 -1.359375q0.484375 -0.328125 1.0625 -0.328125q0.828125 0 1.6875 0.53125l-0.5625 1.515625q-0.609375 -0.359375 -1.203125 -0.359375q-0.546875 0 -0.96875 0.328125q-0.421875 0.328125 -0.609375 0.890625q-0.28125 0.875 -0.28125 1.921875l0 5.0625l-1.625 0zm12.540802 -1.1875q-0.921875 0.765625 -1.765625 1.09375q-0.828125 0.3125 -1.796875 0.3125q-1.59375 0 -2.453125 -0.78125q-0.859375 -0.78125 -0.859375 -1.984375q0 -0.71875 0.328125 -1.296875q0.328125 -0.59375 0.84375 -0.9375q0.53125 -0.359375 1.1875 -0.546875q0.46875 -0.125 1.453125 -0.25q1.984375 -0.234375 2.921875 -0.5625q0.015625 -0.34375 0.015625 -0.421875q0 -1.0 -0.46875 -1.421875q-0.625 -0.546875 -1.875 -0.546875q-1.15625 0 -1.703125 0.40625q-0.546875 0.40625 -0.8125 1.421875l-1.609375 -0.21875q0.21875 -1.015625 0.71875 -1.640625q0.5 -0.640625 1.453125 -0.984375q0.953125 -0.34375 2.1875 -0.34375q1.25 0 2.015625 0.296875q0.78125 0.28125 1.140625 0.734375q0.375 0.4375 0.515625 1.109375q0.078125 0.421875 0.078125 1.515625l0 2.1875q0 2.28125 0.109375 2.890625q0.109375 0.59375 0.40625 1.15625l-1.703125 0q-0.265625 -0.515625 -0.328125 -1.1875zm-0.140625 -3.671875q-0.890625 0.375 -2.671875 0.625q-1.015625 0.140625 -1.4375 0.328125q-0.421875 0.1875 -0.65625 0.53125q-0.21875 0.34375 -0.21875 0.78125q0 0.65625 0.5 1.09375q0.5 0.4375 1.453125 0.4375q0.9375 0 1.671875 -0.40625q0.75 -0.421875 1.09375 -1.140625q0.265625 -0.5625 0.265625 -1.640625l0 -0.609375zm7.781967 3.390625l0.234375 1.453125q-0.6875 0.140625 -1.234375 0.140625q-0.890625 0 -1.390625 -0.28125q-0.484375 -0.28125 -0.6875 -0.734375q-0.203125 -0.46875 -0.203125 -1.9375l0 -5.578125l-1.203125 0l0 -1.265625l1.203125 0l0 -2.390625l1.625 -0.984375l0 3.375l1.65625 0l0 1.265625l-1.65625 0l0 5.671875q0 0.6875 0.078125 0.890625q0.09375 0.203125 0.28125 0.328125q0.203125 0.109375 0.578125 0.109375q0.265625 0 0.71875 -0.0625zm1.6051788 -10.0l0 -1.890625l1.640625 0l0 1.890625l-1.640625 0zm0 11.46875l0 -9.671875l1.640625 0l0 9.671875l-1.640625 0zm3.5354462 -4.84375q0 -2.6875 1.484375 -3.96875q1.25 -1.078125 3.046875 -1.078125q2.0 0 3.265625 1.3125q1.265625 1.296875 1.265625 3.609375q0 1.859375 -0.5625 2.9375q-0.5625 1.0625 -1.640625 1.65625q-1.0625 0.59375 -2.328125 0.59375q-2.03125 0 -3.28125 -1.296875q-1.25 -1.3125 -1.25 -3.765625zm1.6875 0q0 1.859375 0.796875 2.796875q0.8125 0.921875 2.046875 0.921875q1.21875 0 2.03125 -0.921875q0.8125 -0.9375 0.8125 -2.84375q0 -1.796875 -0.8125 -2.71875q-0.8125 -0.921875 -2.03125 -0.921875q-1.234375 0 -2.046875 0.921875q-0.796875 0.90625 -0.796875 2.765625zm9.297592 4.84375l0 -9.671875l1.46875 0l0 1.375q1.0625 -1.59375 3.078125 -1.59375q0.875 0 1.609375 0.3125q0.734375 0.3125 1.09375 0.828125q0.375 0.5 0.515625 1.203125q0.09375 0.453125 0.09375 1.59375l0 5.953125l-1.640625 0l0 -5.890625q0 -1.0 -0.203125 -1.484375q-0.1875 -0.5 -0.671875 -0.796875q-0.484375 -0.296875 -1.140625 -0.296875q-1.046875 0 -1.8125 0.671875q-0.75 0.65625 -0.75 2.515625l0 5.28125l-1.640625 0zm11.250717 -3.3125l-0.5 -7.078125l0 -2.96875l2.03125 0l0 2.96875l-0.484375 7.078125l-1.046875 0zm-0.4375 3.3125l0 -1.875l1.890625 0l0 1.875l-1.890625 0z" fill-rule="nonzero"/></g></svg>