<svg version="1.1" viewBox="0.0 0.0 358.0314960629921 325.50918635170603" fill="none" stroke="none" stroke-linecap="square" stroke-miterlimit="10" xmlns:xlink="http://www.w3.org/1999/xlink" xmlns="http://www.w3.org/2000/svg"><clipPath id="p.0"><path d="m0 0l358.0315 0l0 325.5092l-358.0315 0l0 -325.5092z" clip-rule="nonzero"/></clipPath><g clip-path="url(#p.0)"><path fill="#000000" fill-opacity="0.0" d="m0 0l358.0315 0l0 325.5092l-358.0315 0z" fill-rule="evenodd"/><path fill="#ffffff" d="m90.149605 179.76903l159.18109 0l0 24.440948l-159.18109 0z" fill-rule="evenodd"/><path stroke="#000000" stroke-width="1.0" stroke-linejoin="round" stroke-linecap="butt" d="m90.149605 179.76903l159.18109 0l0 24.440948l-159.18109 0z" fill-rule="evenodd"/><path fill="#000000" fill-opacity="0.0" d="m82.149605 141.09186l174.07874 0l0 38.67717l-174.07874 0z" fill-rule="evenodd"/><path fill="#000000" d="m92.368355 165.74623q0 -0.390625 0.265625 -0.625q0.265625 -0.25 0.65625 -0.25q0.453125 0 0.78125 0.515625q0.46875 0.6875 0.828125 0.9375q0.78125 0.515625 2.25 0.515625q1.421875 0 2.625 -0.609375q1.546875 -0.78125 1.546875 -2.1875q0 -1.140625 -1.296875 -1.8125q-1.109375 -0.5625 -2.71875 -0.609375q-1.453125 -0.0625 -2.453125 -0.625q-1.296875 -0.75 -1.296875 -2.125q0 -1.625 1.84375 -2.953125q1.75 -1.265625 3.625 -1.265625q0.890625 0 2.0 0.296875q1.46875 0.390625 1.46875 1.0q0 0.796875 -0.8125 0.796875q-0.359375 0 -1.28125 -0.1875q-0.90625 -0.203125 -1.40625 -0.1875q-1.421875 0.015625 -2.421875 0.703125q-1.015625 0.703125 -1.015625 1.703125q0 0.75 1.34375 1.0625q0.515625 0.125 1.953125 0.21875q2.078125 0.15625 3.25 1.3125q1.078125 1.0625 1.078125 2.578125q0 2.171875 -2.0 3.46875q-1.734375 1.109375 -4.03125 1.109375q-1.671875 0 -3.0625 -0.640625q-1.6875 -0.78125 -1.71875 -2.140625zm20.41986 -3.046875q0 0.640625 0 1.953125q0.015625 1.3125 0.015625 1.96875q0 0.203125 0.03125 0.625q0.03125 0.40625 0.03125 0.609375q0 0.390625 -0.265625 0.640625q-0.265625 0.25 -0.640625 0.25q-0.703125 0 -0.890625 -0.875q-1.140625 0.59375 -2.625 0.59375q-1.203125 0 -1.984375 -0.53125q-0.859375 -0.578125 -1.03125 -1.703125q-0.34375 -2.40625 -0.34375 -4.296875q0 -1.25 0.265625 -2.84375q0.125 -0.78125 0.859375 -0.78125q0.390625 0 0.65625 0.25q0.265625 0.25 0.265625 0.640625q0 0.40625 -0.140625 1.328125q-0.125 0.921875 -0.125 1.40625q0 1.515625 0.09375 2.609375q0.109375 1.078125 0.3125 1.734375q0.296875 0.171875 0.59375 0.265625q0.296875 0.078125 0.578125 0.078125q1.21875 0 2.578125 -0.390625l-0.015625 -1.859375l-0.015625 -1.765625q0 -1.96875 0.171875 -3.40625q0.09375 -0.84375 0.890625 -0.84375q0.390625 0 0.640625 0.265625q0.265625 0.25 0.25 0.625l-0.15625 3.453125zm9.357864 -1.421875q-0.0625 1.140625 -0.921875 1.140625q-0.78125 0 -0.78125 -0.90625q0 -0.171875 -0.03125 -0.625l-0.015625 -0.765625q-1.4375 0.171875 -2.3125 0.796875q-0.8125 0.59375 -1.34375 1.796875l0.015625 4.984375q0 0.921875 -0.90625 0.921875q-0.796875 0 -0.796875 -0.921875l0 -6.390625q0 -0.296875 0.015625 -0.890625q0.03125 -0.609375 0.03125 -0.921875q0 -0.90625 0.796875 -0.90625q0.890625 0 0.90625 1.5q1.75 -1.671875 3.875 -1.671875q0.75 0 1.109375 0.5625q0.359375 0.546875 0.359375 1.65625q0 0.484375 0 0.640625zm8.854378 7.375q-0.78125 0 -0.875 -0.84375l-0.265625 -2.0q-0.125 -1.0625 -0.125 -2.0q0 -0.25 0.03125 -0.859375q0.03125 -0.609375 0.03125 -0.875q0 -1.953125 -0.71875 -1.953125q-1.03125 0 -1.9531326 1.203125q-0.84375 1.109375 -1.3125 2.78125q-0.015625 0.359375 -0.078125 0.90625q-0.0625 0.453125 -0.0625 0.875q0 0.28125 0.046875 0.828125q0.0625 0.546875 0.0625 0.8125q0 0.40625 -0.25 0.65625q-0.25 0.265625 -0.640625 0.265625q-0.40625 0 -0.65625 -0.265625q-0.234375 -0.25 -0.234375 -0.65625q0 -0.265625 -0.0625 -0.8125q-0.0625 -0.546875 -0.0625 -0.828125q0 -0.9375 0.125 -2.59375q0.140625 -1.671875 0.140625 -2.609375q0 -0.28125 -0.03125 -0.859375q-0.03125 -0.578125 -0.03125 -0.875q0 -0.390625 0.25 -0.640625q0.265625 -0.25 0.65625 -0.25q0.828125 0 0.921875 1.1875l0.015625 1.0625q1.53125 -2.03125 3.1562576 -2.03125q1.453125 0 2.03125 1.28125q0.390625 0.859375 0.421875 2.53125l0 0.921875l-0.015625 0.84375q0 0.765625 0.203125 1.96875q0.203125 1.1875 0.203125 1.9375q0 0.390625 -0.265625 0.640625q-0.265625 0.25 -0.65625 0.25zm9.890381 -0.046875q-0.171875 0 -0.625 -0.390625q-0.40625 -0.375 -0.609375 -0.671875q-0.875 0.484375 -1.546875 0.71875q-0.65625 0.234375 -1.109375 0.234375q-2.125 0 -3.09375 -1.1875q-0.921875 -1.140625 -0.921875 -3.46875q0 -2.203125 1.515625 -3.765625q1.515625 -1.578125 3.625 -1.578125q0.78125 0 1.765625 0.421875q1.25 0.5 1.25 1.21875q0 0.25 -0.1875 0.4375q-0.09375 0.34375 -0.140625 1.140625q-0.046875 0.796875 -0.0625 2.03125q-0.015625 1.125 0.15625 1.78125q0.09375 0.40625 0.578125 1.609375q0.0625 0.171875 0.203125 0.484375l0.0625 0.15625q0 0.359375 -0.265625 0.59375q-0.25 0.234375 -0.59375 0.234375zm-1.890625 -6.328125q0 -0.390625 0.046875 -0.84375q0.0625 -0.46875 0.15625 -0.984375q-0.34375 -0.171875 -0.59375 -0.25q-0.234375 -0.078125 -0.375 -0.078125q-1.40625 0 -2.4375 1.15625q-1.015625 1.140625 -1.015625 2.640625q0 1.5 0.515625 2.25q0.53125 0.734375 1.59375 0.734375q0.875 0 1.484375 -0.3125q0.328125 -0.171875 0.921875 -0.6875q-0.296875 -2.421875 -0.296875 -3.625zm15.890503 6.484375q-0.734375 0 -0.875 -0.78125q-0.15625 -1.0 -0.3125 -2.828125l-0.3125 -2.828125q-0.09375 -0.625 -0.3125 -1.234375q-0.3125 -0.8125 -0.671875 -0.8125q-0.34375 0 -1.265625 0.578125q-0.875 0.53125 -1.140625 0.84375q-0.015625 0.859375 0.046875 1.71875l0.265625 2.421875q0.171875 1.4375 0.171875 2.375q0 0.40625 -0.25 0.65625q-0.25 0.265625 -0.640625 0.265625q-0.390625 0 -0.640625 -0.265625q-0.25 -0.25 -0.25 -0.65625q0 -1.09375 -0.234375 -3.25q-0.21875 -2.15625 -0.21875 -3.25q0 -0.96875 -0.265625 -1.515625q-0.640625 0.296875 -1.296875 0.953125l-1.078125 1.203125q-0.140625 0.21875 -0.453125 0.578125q0 0.546875 -0.109375 1.609375q-0.09375 1.0625 -0.09375 1.578125q0 0.265625 0.078125 0.765625q0.09375 0.484375 0.09375 0.703125q0 0.375 -0.28125 0.625q-0.28125 0.265625 -0.65625 0.265625q-1.015625 0 -1.015625 -2.34375q0 -0.546875 0.09375 -1.625q0.09375 -1.09375 0.09375 -1.640625q0 -0.484375 -0.09375 -1.4375q-0.078125 -0.96875 -0.078125 -1.46875q0 -2.0625 0.9375 -2.0625q0.34375 0 0.640625 0.3125q0.296875 0.3125 0.296875 0.671875q0 0.171875 -0.046875 0.546875q-0.03125 0.359375 -0.03125 0.546875l0.015625 0.953125q0.46875 -0.96875 1.390625 -1.75q0.921875 -0.796875 1.5625 -0.796875q1.4375 0 1.96875 1.421875q0.5 -0.671875 1.1875 -1.0q0.703125 -0.328125 1.59375 -0.328125q1.515625 0 2.078125 1.640625q0.109375 0.328125 0.375 2.546875q0.25 1.578125 0.65625 5.21875q0.03125 0.375 -0.25 0.625q-0.265625 0.25 -0.671875 0.25zm7.18071 -0.328125q-2.046875 0 -3.328125 -1.03125q-1.390625 -1.140625 -1.390625 -3.1875q0 -2.375 1.140625 -3.96875q1.25 -1.75 3.34375 -1.75q1.5 0 2.46875 0.5q1.171875 0.640625 1.171875 1.9375q0 0.90625 -1.03125 1.65625q-0.453125 0.328125 -1.9375 1.015625l-3.46875 1.65625q0.5 0.75 1.265625 1.140625q0.765625 0.375 1.765625 0.375q0.640625 0 1.484375 -0.234375q1.078125 -0.296875 1.375 -0.78125q0.3125 -0.484375 0.671875 -0.484375q0.3125 0 0.5625 0.234375q0.25 0.234375 0.25 0.5625q0 1.015625 -1.625 1.734375q-1.390625 0.625 -2.71875 0.625zm-0.234375 -8.296875q-1.125 0 -1.859375 0.859375q-0.734375 0.859375 -1.09375 2.59375l2.796875 -1.328125q1.640625 -0.8125 2.34375 -1.40625q-0.78125 -0.71875 -2.1875 -0.71875zm8.705231 5.8125q0 0.40625 -0.265625 0.671875q-0.25 0.265625 -0.671875 0.265625q-0.40625 0 -0.65625 -0.265625q-0.265625 -0.265625 -0.265625 -0.671875q0 -0.171875 -0.0625 -0.5q-0.0625 -0.328125 -0.0625 -0.5q0 -0.375 0.28125 -0.625q0.296875 -0.265625 0.6875 -0.265625q1.015625 0 1.015625 1.890625zm-0.15625 -6.640625q0 0.40625 -0.265625 0.671875q-0.25 0.265625 -0.65625 0.265625q-0.40625 0 -0.671875 -0.265625q-0.265625 -0.265625 -0.265625 -0.671875q0 -0.109375 -0.046875 -0.328125q-0.03125 -0.234375 -0.03125 -0.34375q0 -0.40625 0.265625 -0.65625q0.28125 -0.25 0.671875 -0.25q1.0 0 1.0 1.578125z" fill-rule="nonzero"/><path fill="#ffffff" d="m93.0 83.76903l159.1811 0l0 24.440948l-159.1811 0z" fill-rule="evenodd"/><path stroke="#000000" stroke-width="1.0" stroke-linejoin="round" stroke-linecap="butt" d="m93.0 83.76903l159.1811 0l0 24.440948l-159.1811 0z" fill-rule="evenodd"/><path fill="#000000" fill-opacity="0.0" d="m82.149605 45.09186l174.07874 0l0 38.677166l-174.07874 0z" fill-rule="evenodd"/><path fill="#000000" d="m102.993355 66.49624q-0.5625 2.796875 -2.375 4.46875q-1.8125 1.671875 -4.265625 1.671875q-2.25 0 -3.375 -1.25q-1.109375 -1.25 -1.109375 -3.75q0 -2.359375 1.109375 -4.859379q1.125 -2.5 2.875 -4.046875q1.15625 -1.03125 2.46875 -1.03125q0.828125 0 2.1875 0.546875q1.65625 0.65625 1.65625 1.453125q0 0.375 -0.28125 0.671875q-0.265625 0.28125 -0.65625 0.28125q-0.1875 0 -0.5625 -0.234375q-1.390625 -0.84375 -2.34375 -0.84375q-0.6875 0 -1.4375 0.71875q-0.375 0.34375 -1.0625 1.28125q-2.109375 2.7968788 -2.109375 6.062504q0 1.703125 0.53125 2.390625q0.5625 0.75 2.109375 0.75q1.625 0 2.828125 -1.03125q1.265625 -1.09375 1.765625 -3.125q-2.515625 0.125 -4.328125 0.96875q-0.203125 0.109375 -0.40625 0.109375q-0.390625 0 -0.65625 -0.3125q-0.25 -0.28125 -0.25 -0.65625q0 -0.5 0.484375 -0.796875q1.96875 -1.203125 6.78125 -1.203125q0.390625 0 0.65625 0.265625q0.265625 0.25 0.265625 0.65625q0 0.59375 -0.5 0.84375zm3.83667 -6.015629q-0.4375 0 -0.75 -0.3125q-0.3125 -0.3125 -0.3125 -0.75q0 -0.4375 0.3125 -0.734375q0.3125 -0.3125 0.75 -0.3125q0.4375 0 0.75 0.3125q0.328125 0.296875 0.328125 0.734375q0 0.4375 -0.328125 0.75q-0.3125 0.3125 -0.75 0.3125zm0.421875 7.390629q0 0.546875 0.03125 1.640625q0.03125 1.09375 0.03125 1.640625q0 0.390625 -0.25 0.65625q-0.25 0.25 -0.640625 0.25q-0.390625 0 -0.65625 -0.25q-0.25 -0.265625 -0.25 -0.65625q0 -0.546875 -0.03125 -1.640625q-0.03125 -1.09375 -0.03125 -1.640625q0 -0.84375 0.09375 -2.125q0.09375 -1.28125 0.09375 -2.1406288q0 -0.40625 0.25 -0.65625q0.25 -0.265625 0.640625 -0.265625q0.390625 0 0.640625 0.265625q0.25 0.25 0.25 0.65625q0 0.8593788 -0.09375 2.1406288q-0.078125 1.28125 -0.078125 2.125zm7.2757263 3.671875q-0.03125 0.828125 -0.828125 0.828125q-0.671875 0 -0.96875 -0.78125l-1.390625 -3.703125l-1.625 -4.171879q-0.09375 -0.234375 -0.09375 -0.421875q0 -0.375 0.28125 -0.640625q0.28125 -0.265625 0.65625 -0.265625q0.546875 0 0.78125 0.5625l2.3125 6.359379q0.6875 -1.453125 1.734375 -4.21875q0.234375 -0.734375 0.765625 -2.0625038q0.28125 -0.578125 0.796875 -0.578125q0.375 0 0.65625 0.265625q0.296875 0.265625 0.296875 0.625q0 0.34375 -1.515625 3.9062538l-1.859375 4.296875zm9.119934 0.890625q-2.046875 0 -3.328125 -1.03125q-1.390625 -1.140625 -1.390625 -3.1875q0 -2.375 1.140625 -3.96875q1.25 -1.7500038 3.34375 -1.7500038q1.5 0 2.46875 0.5q1.171875 0.640625 1.171875 1.9375038q0 0.90625 -1.03125 1.65625q-0.453125 0.328125 -1.9375 1.015625l-3.46875 1.65625q0.5 0.75 1.265625 1.140625q0.765625 0.375 1.765625 0.375q0.640625 0 1.484375 -0.234375q1.078125 -0.296875 1.375 -0.78125q0.3125 -0.484375 0.671875 -0.484375q0.3125 0 0.5625 0.234375q0.25 0.234375 0.25 0.5625q0 1.015625 -1.625 1.734375q-1.390625 0.625 -2.71875 0.625zm-0.234375 -8.296875q-1.125 0 -1.859375 0.859375q-0.734375 0.859375 -1.09375 2.59375l2.796875 -1.328125q1.640625 -0.8125 2.34375 -1.40625q-0.78125 -0.71875 -2.1875 -0.71875zm13.189613 8.515625q-0.78125 0 -0.875 -0.84375l-0.265625 -2.0q-0.125 -1.0625 -0.125 -2.0q0 -0.25 0.03125 -0.859375q0.03125 -0.609375 0.03125 -0.875q0 -1.953125 -0.71875 -1.953125q-1.03125 0 -1.953125 1.203125q-0.84375 1.109375 -1.3125 2.78125q-0.015625 0.359375 -0.078125 0.90625q-0.0625 0.453125 -0.0625 0.875q0 0.28125 0.046875 0.828125q0.0625 0.546875 0.0625 0.8125q0 0.40625 -0.25 0.65625q-0.25 0.265625 -0.640625 0.265625q-0.40625 0 -0.65625 -0.265625q-0.234375 -0.25 -0.234375 -0.65625q0 -0.265625 -0.0625 -0.8125q-0.0625 -0.546875 -0.0625 -0.828125q0 -0.9375 0.125 -2.59375q0.140625 -1.671875 0.140625 -2.609375q0 -0.28125 -0.03125 -0.8593788q-0.03125 -0.578125 -0.03125 -0.875q0 -0.390625 0.25 -0.640625q0.265625 -0.25 0.65625 -0.25q0.828125 0 0.921875 1.1875l0.015625 1.0625038q1.53125 -2.0312538 3.15625 -2.0312538q1.453125 0 2.03125 1.28125q0.390625 0.8593788 0.421875 2.5312538l0 0.921875l-0.015625 0.84375q0 0.765625 0.203125 1.96875q0.203125 1.1875 0.203125 1.9375q0 0.390625 -0.265625 0.640625q-0.265625 0.25 -0.65625 0.25zm21.121643 -2.65625q0 0.4375 -0.140625 1.453125q-0.140625 0.921875 -0.96875 0.921875q-0.5 0 -1.203125 -0.65625q-3.703125 -3.515625 -8.5 -10.125004l-0.046875 2.0625l-0.03125 2.0781288q0 0.765625 0.03125 2.28125q0.03125 1.5 0.03125 2.265625q0 2.453125 -0.9375 2.453125q-0.5 0 -0.796875 -0.3125q-0.265625 -0.28125 -0.265625 -0.671875q0 -0.390625 0.0625 -1.15625q0.0625 -0.78125 0.0625 -1.171875q0 -0.5625 0.03125 -1.6875q0.03125 -1.125 0.03125 -1.6875q0 -0.59375 -0.03125 -1.8125q-0.015625 -1.2187538 -0.015625 -1.8125038q0 -0.578125 -0.109375 -1.703125q-0.109375 -1.140625 -0.109375 -1.71875q0 -0.421875 0.359375 -0.765625q0.359375 -0.34375 0.8125 -0.34375q0.484375 0 1.1875 1.046875q2.265625 3.40625 4.078125 5.656254q2.171875 2.671875 4.75 5.09375q0.015625 -0.390625 0 -1.15625l-0.03125 -1.140625q0 -4.000004 -0.3125 -6.375004q-0.03125 -0.234375 -0.25 -0.953125q-0.171875 -0.625 -0.171875 -0.96875q0 -1.046875 0.953125 -1.046875q1.59375 0 1.59375 5.90625q0 1.0156288 -0.03125 3.0312538q-0.03125 2.0 -0.03125 3.015625zm9.210449 2.609375q-0.171875 0 -0.625 -0.390625q-0.40625 -0.375 -0.609375 -0.671875q-0.875 0.484375 -1.546875 0.71875q-0.65625 0.234375 -1.109375 0.234375q-2.125 0 -3.09375 -1.1875q-0.921875 -1.140625 -0.921875 -3.46875q0 -2.203125 1.515625 -3.765625q1.515625 -1.5781288 3.625 -1.5781288q0.78125 0 1.765625 0.421875q1.25 0.5 1.25 1.2187538q0 0.25 -0.1875 0.4375q-0.09375 0.34375 -0.140625 1.140625q-0.046875 0.796875 -0.0625 2.03125q-0.015625 1.125 0.15625 1.78125q0.09375 0.40625 0.578125 1.609375q0.0625 0.171875 0.203125 0.484375l0.0625 0.15625q0 0.359375 -0.265625 0.59375q-0.25 0.234375 -0.59375 0.234375zm-1.890625 -6.328125q0 -0.390625 0.046875 -0.84375q0.0625 -0.46875 0.15625 -0.984375q-0.34375 -0.171875 -0.59375 -0.25q-0.234375 -0.078125 -0.375 -0.078125q-1.40625 0 -2.4375 1.15625q-1.015625 1.140625 -1.015625 2.640625q0 1.5 0.515625 2.25q0.53125 0.734375 1.59375 0.734375q0.875 0 1.484375 -0.3125q0.328125 -0.171875 0.921875 -0.6875q-0.296875 -2.421875 -0.296875 -3.625zm15.890503 6.484375q-0.734375 0 -0.875 -0.78125q-0.15625 -1.0 -0.3125 -2.828125l-0.3125 -2.828125q-0.09375 -0.625 -0.3125 -1.234375q-0.3125 -0.8125 -0.671875 -0.8125q-0.34375 0 -1.265625 0.578125q-0.875 0.53125 -1.140625 0.84375q-0.015625 0.859375 0.046875 1.71875l0.265625 2.421875q0.171875 1.4375 0.171875 2.375q0 0.40625 -0.25 0.65625q-0.25 0.265625 -0.640625 0.265625q-0.390625 0 -0.640625 -0.265625q-0.25 -0.25 -0.25 -0.65625q0 -1.09375 -0.234375 -3.25q-0.21875 -2.15625 -0.21875 -3.25q0 -0.96875 -0.265625 -1.515625q-0.640625 0.296875 -1.296875 0.953125l-1.078125 1.203125q-0.140625 0.21875 -0.453125 0.578125q0 0.546875 -0.109375 1.609375q-0.09375 1.0625 -0.09375 1.578125q0 0.265625 0.078125 0.765625q0.09375 0.484375 0.09375 0.703125q0 0.375 -0.28125 0.625q-0.28125 0.265625 -0.65625 0.265625q-1.015625 0 -1.015625 -2.34375q0 -0.546875 0.09375 -1.625q0.09375 -1.09375 0.09375 -1.640625q0 -0.484375 -0.09375 -1.4375q-0.078125 -0.96875 -0.078125 -1.4687538q0 -2.0625 0.9375 -2.0625q0.34375 0 0.640625 0.3125q0.296875 0.3125 0.296875 0.671875q0 0.171875 -0.046875 0.546875q-0.03125 0.359375 -0.03125 0.546875l0.015625 0.9531288q0.46875 -0.9687538 1.390625 -1.7500038q0.921875 -0.796875 1.5625 -0.796875q1.4375 0 1.96875 1.421875q0.5 -0.671875 1.1875 -1.0q0.703125 -0.328125 1.59375 -0.328125q1.515625 0 2.078125 1.6406288q0.109375 0.328125 0.375 2.546875q0.25 1.578125 0.65625 5.21875q0.03125 0.375 -0.25 0.625q-0.265625 0.25 -0.671875 0.25zm7.18071 -0.328125q-2.046875 0 -3.328125 -1.03125q-1.390625 -1.140625 -1.390625 -3.1875q0 -2.375 1.140625 -3.96875q1.25 -1.7500038 3.34375 -1.7500038q1.5 0 2.46875 0.5q1.171875 0.640625 1.171875 1.9375038q0 0.90625 -1.03125 1.65625q-0.453125 0.328125 -1.9375 1.015625l-3.46875 1.65625q0.5 0.75 1.265625 1.140625q0.765625 0.375 1.765625 0.375q0.640625 0 1.484375 -0.234375q1.078125 -0.296875 1.375 -0.78125q0.3125 -0.484375 0.671875 -0.484375q0.3125 0 0.5625 0.234375q0.25 0.234375 0.25 0.5625q0 1.015625 -1.625 1.734375q-1.390625 0.625 -2.71875 0.625zm-0.234375 -8.296875q-1.125 0 -1.859375 0.859375q-0.734375 0.859375 -1.09375 2.59375l2.796875 -1.328125q1.640625 -0.8125 2.34375 -1.40625q-0.78125 -0.71875 -2.1875 -0.71875zm8.705231 5.8125q0 0.40625 -0.265625 0.671875q-0.25 0.265625 -0.671875 0.265625q-0.40625 0 -0.65625 -0.265625q-0.265625 -0.265625 -0.265625 -0.671875q0 -0.171875 -0.0625 -0.5q-0.0625 -0.328125 -0.0625 -0.5q0 -0.375 0.28125 -0.625q0.296875 -0.265625 0.6875 -0.265625q1.015625 0 1.015625 1.890625zm-0.15625 -6.640629q0 0.40625 -0.265625 0.671875q-0.25 0.2656288 -0.65625 0.2656288q-0.40625 0 -0.671875 -0.2656288q-0.265625 -0.265625 -0.265625 -0.671875q0 -0.109375 -0.046875 -0.328125q-0.03125 -0.234375 -0.03125 -0.34375q0 -0.40625 0.265625 -0.65625q0.28125 -0.25 0.671875 -0.25q1.0 0 1.0 1.578125z" fill-rule="nonzero"/><path fill="#000000" fill-opacity="0.0" d="m92.18372 238.51443l25.448822 0l0 24.440948l-25.448822 0z" fill-rule="evenodd"/><path stroke="#000000" stroke-width="1.0" stroke-linejoin="round" stroke-linecap="butt" d="m92.18372 238.51443l25.448822 0l0 24.440948l-25.448822 0z" fill-rule="evenodd"/><path fill="#000000" fill-opacity="0.0" d="m130.79527 227.46982l127.401566 0l0 38.677155l-127.401566 0z" fill-rule="evenodd"/><path fill="#000000" d="m148.15465 247.65544q-0.0625 1.140625 -0.921875 1.140625q-0.78125 0 -0.78125 -0.90625q0 -0.171875 -0.03125 -0.625l-0.015625 -0.765625q-1.4375 0.171875 -2.3125 0.796875q-0.8125 0.59375 -1.34375 1.796875l0.015625 4.984375q0 0.921875 -0.90625 0.921875q-0.796875 0 -0.796875 -0.921875l0 -6.390625q0 -0.296875 0.015625 -0.890625q0.03125 -0.609375 0.03125 -0.921875q0 -0.90625 0.796875 -0.90625q0.890625 0 0.90625 1.5q1.75 -1.671875 3.875 -1.671875q0.75 0 1.109375 0.5625q0.359375 0.546875 0.359375 1.65625q0 0.484375 0 0.640625zm6.119995 7.15625q-2.046875 0 -3.328125 -1.03125q-1.390625 -1.140625 -1.390625 -3.1875q0 -2.375 1.140625 -3.96875q1.25 -1.75 3.34375 -1.75q1.5 0 2.46875 0.5q1.171875 0.640625 1.171875 1.9375q0 0.90625 -1.03125 1.65625q-0.453125 0.328125 -1.9375 1.015625l-3.46875 1.65625q0.5 0.75 1.265625 1.140625q0.765625 0.375 1.765625 0.375q0.640625 0 1.484375 -0.234375q1.078125 -0.296875 1.375 -0.78125q0.3125 -0.484375 0.671875 -0.484375q0.3125 0 0.5625 0.234375q0.25 0.234375 0.25 0.5625q0 1.015625 -1.625 1.734375q-1.390625 0.625 -2.71875 0.625zm-0.234375 -8.296875q-1.125 0 -1.859375 0.859375q-0.734375 0.859375 -1.09375 2.59375l2.796875 -1.328125q1.640625 -0.8125 2.34375 -1.40625q-0.78125 -0.71875 -2.1875 -0.71875zm13.705231 3.953125l-0.21875 3.0625q-0.046875 1.8125 -0.359375 2.9687347q-0.421875 1.484375 -1.3125 2.1875q-1.09375 0.84375 -3.171875 0.84375q-1.203125 0 -2.03125 -0.171875q-1.140625 -0.21875 -1.140625 -0.9375q0 -0.8125 0.796875 -0.8125q0.328125 0 1.078125 0.15625q0.765625 0.15625 1.703125 0.140625q1.75 -0.03125 2.40625 -1.6875q0.4375 -1.1249847 0.46875 -3.4218597q-0.484375 0.90625 -1.171875 1.375q-0.671875 0.453125 -1.546875 0.453125q-1.65625 0 -2.6875 -1.125q-1.03125 -1.125 -1.03125 -2.921875q0 -2.46875 1.40625 -3.96875q1.46875 -1.546875 3.984375 -1.546875q0.84375 0 1.40625 0.21875q0.578125 0.21875 0.875 0.65625q0.984375 0.03125 0.984375 1.078125q0 0.65625 -0.1875 1.734375q-0.21875 1.265625 -0.25 1.71875zm-2.921875 -3.953125q-1.734375 0 -2.6875 1.203125q-0.84375 1.0625 -0.84375 2.734375q0 1.3125 0.5 1.984375q0.5 0.65625 1.5 0.65625q0.921875 0 1.796875 -1.03125q0.78125 -0.953125 0.890625 -1.90625q0.1875 -0.96875 0.40625 -3.078125q-0.359375 -0.28125 -0.75 -0.421875q-0.390625 -0.140625 -0.8125 -0.140625zm7.0582733 -3.65625q-0.4375 0 -0.75 -0.3125q-0.3125 -0.3125 -0.3125 -0.75q0 -0.4375 0.3125 -0.734375q0.3125 -0.3125 0.75 -0.3125q0.4375 0 0.75 0.3125q0.328125 0.296875 0.328125 0.734375q0 0.4375 -0.328125 0.75q-0.3125 0.3125 -0.75 0.3125zm0.421875 7.390625q0 0.546875 0.03125 1.640625q0.03125 1.09375 0.03125 1.640625q0 0.390625 -0.25 0.65625q-0.25 0.25 -0.640625 0.25q-0.390625 0 -0.65625 -0.25q-0.25 -0.265625 -0.25 -0.65625q0 -0.546875 -0.03125 -1.640625q-0.03125 -1.09375 -0.03125 -1.640625q0 -0.84375 0.09375 -2.125q0.09375 -1.28125 0.09375 -2.140625q0 -0.40625 0.25 -0.65625q0.25 -0.265625 0.640625 -0.265625q0.390625 0 0.640625 0.265625q0.25 0.25 0.25 0.65625q0 0.859375 -0.09375 2.140625q-0.078125 1.28125 -0.078125 2.125zm9.228851 -2.875q-0.5 0 -0.703125 -0.328125q-0.140625 -0.25 -0.234375 -0.984375q-0.6875 0.171875 -2.109375 0.625q-1.46875 0.59375 -1.484375 1.4375q0.28125 0.109375 0.546875 0.15625q2.09375 0.375 3.109375 1.03125q1.484375 0.953125 1.484375 2.765625q0 1.484375 -1.28125 2.234375q-1.0625 0.625 -2.703125 0.625q-1.1875 0 -2.265625 -0.40625q-1.40625 -0.5 -1.40625 -1.421875q0 -0.359375 0.28125 -0.625q0.296875 -0.28125 0.65625 -0.28125q0.28125 0 0.734375 0.4375q0.21875 0.203125 0.984375 0.34375q0.609375 0.109375 1.015625 0.109375q0.765625 0 1.359375 -0.171875q0.84375 -0.265625 0.84375 -0.84375q0 -1.234375 -1.734375 -1.671875l-0.9375 -0.21875q-1.21875 -0.265625 -1.734375 -0.609375q-0.734375 -0.515625 -0.734375 -1.546875q0 -1.90625 1.796875 -2.71875q0.546875 -0.234375 1.75 -0.578125q1.203125 -0.34375 1.71875 -0.578125q0.375 -0.171875 0.8125 -0.171875q0.390625 0 0.640625 0.265625q0.25 0.25 0.25 0.65625q0 0.265625 0.109375 0.78125q0.125 0.5 0.125 0.765625q0 0.40625 -0.25 0.671875q-0.25 0.25 -0.640625 0.25zm9.019669 -0.75q-0.1875 0 -0.453125 -0.015625q-0.25 -0.015625 -0.453125 -0.015625q-0.203125 0 -1.234375 0.140625l0.171875 5.375l0.015625 0.40625l0 0.46875q0.046875 1.984375 -0.953125 1.984375q-0.359375 0 -0.640625 -0.234375q-0.265625 -0.234375 -0.265625 -0.59375q0 -0.34375 0.03125 -1.03125q0.03125 -0.703125 0.03125 -1.046875l-0.1875 -5.3125q-0.65625 -0.03125 -2.015625 -0.15625q-0.8125 -0.109375 -0.8125 -0.90625q0 -0.390625 0.234375 -0.65625q0.25 -0.265625 0.640625 -0.265625l1.90625 0.15625q0 -0.46875 -0.046875 -1.25q-0.03125 -0.78125 -0.03125 -1.125q0 -0.375 0.265625 -0.625q0.265625 -0.25 0.640625 -0.25q0.828125 0 0.96875 1.328125q0.015625 0.34375 0.015625 0.8125l-0.015625 0.53125l0 0.5625q1.125 -0.140625 1.28125 -0.140625q0.953125 0 1.25 0.09375q0.546875 0.171875 0.546875 0.84375q0 0.40625 -0.25 0.671875q-0.25 0.25 -0.640625 0.25zm6.9469147 8.1875q-2.046875 0 -3.328125 -1.03125q-1.390625 -1.140625 -1.390625 -3.1875q0 -2.375 1.140625 -3.96875q1.25 -1.75 3.34375 -1.75q1.5 0 2.46875 0.5q1.171875 0.640625 1.171875 1.9375q0 0.90625 -1.03125 1.65625q-0.453125 0.328125 -1.9375 1.015625l-3.46875 1.65625q0.5 0.75 1.265625 1.140625q0.765625 0.375 1.765625 0.375q0.640625 0 1.484375 -0.234375q1.078125 -0.296875 1.375 -0.78125q0.3125 -0.484375 0.671875 -0.484375q0.3125 0 0.5625 0.234375q0.25 0.234375 0.25 0.5625q0 1.015625 -1.625 1.734375q-1.390625 0.625 -2.71875 0.625zm-0.234375 -8.296875q-1.125 0 -1.859375 0.859375q-0.734375 0.859375 -1.09375 2.59375l2.796875 -1.328125q1.640625 -0.8125 2.34375 -1.40625q-0.78125 -0.71875 -2.1875 -0.71875zm13.298981 1.140625q-0.0625 1.140625 -0.921875 1.140625q-0.78125 0 -0.78125 -0.90625q0 -0.171875 -0.03125 -0.625l-0.015625 -0.765625q-1.4375 0.171875 -2.3125 0.796875q-0.8125 0.59375 -1.34375 1.796875l0.015625 4.984375q0 0.921875 -0.90625 0.921875q-0.796875 0 -0.796875 -0.921875l0 -6.390625q0 -0.296875 0.015625 -0.890625q0.03125 -0.609375 0.03125 -0.921875q0 -0.90625 0.796875 -0.90625q0.890625 0 0.90625 1.5q1.75 -1.671875 3.875 -1.671875q0.75 0 1.109375 0.5625q0.359375 0.546875 0.359375 1.65625q0 0.484375 0 0.640625zm6.119995 7.15625q-2.046875 0 -3.328125 -1.03125q-1.390625 -1.140625 -1.390625 -3.1875q0 -2.375 1.140625 -3.96875q1.25 -1.75 3.34375 -1.75q1.5 0 2.46875 0.5q1.171875 0.640625 1.171875 1.9375q0 0.90625 -1.03125 1.65625q-0.453125 0.328125 -1.9375 1.015625l-3.46875 1.65625q0.5 0.75 1.265625 1.140625q0.765625 0.375 1.765625 0.375q0.640625 0 1.484375 -0.234375q1.078125 -0.296875 1.375 -0.78125q0.3125 -0.484375 0.671875 -0.484375q0.3125 0 0.5625 0.234375q0.25 0.234375 0.25 0.5625q0 1.015625 -1.625 1.734375q-1.390625 0.625 -2.71875 0.625zm-0.234375 -8.296875q-1.125 0 -1.859375 0.859375q-0.734375 0.859375 -1.09375 2.59375l2.796875 -1.328125q1.640625 -0.8125 2.34375 -1.40625q-0.78125 -0.71875 -2.1875 -0.71875zm14.595856 -0.171875q-0.109375 1.34375 -0.109375 2.6875q0 3.03125 0.28125 4.578125q0.015625 0.125 0.015625 0.203125q0 0.375 -0.25 0.609375q-0.25 0.234375 -0.59375 0.234375q-0.5625 0 -0.828125 -0.828125q-0.65625 0.484375 -1.359375 0.734375q-0.703125 0.25 -1.46875 0.25q-1.890625 0 -3.125 -1.265625q-1.28125 -1.28125 -1.28125 -3.296875q0 -2.421875 1.28125 -3.890625q1.296875 -1.46875 3.359375 -1.46875q1.046875 0 1.625 0.328125l0.859375 0.625q0.125 -3.828125 0.296875 -5.15625q0.125 -0.8125 0.828125 -0.8125q0.828125 0 0.828125 0.875q0 1.265625 -0.359375 5.59375zm-4.046875 0.234375q-1.53125 0 -2.296875 0.90625q-0.765625 0.90625 -0.765625 2.734375q0 1.171875 0.828125 2.03125q0.84375 0.84375 1.96875 0.84375q0.765625 0 1.28125 -0.28125q0.3125 -0.171875 1.015625 -0.765625q0.140625 -0.109375 0.265625 -0.28125l-0.03125 -1.578125l0.015625 -1.046875l0.015625 -1.078125q-0.34375 -0.734375 -0.921875 -1.109375q-0.578125 -0.375 -1.375 -0.375z" fill-rule="nonzero"/><path fill="#000000" fill-opacity="0.0" d="m35.87139 25.73491l290.14172 0l0 280.97638l-290.14172 0z" fill-rule="evenodd"/><path stroke="#000000" stroke-width="1.0" stroke-linejoin="round" stroke-linecap="butt" stroke-dasharray="1.0,3.0" d="m35.87139 25.73491l290.14172 0l0 280.97638l-290.14172 0z" fill-rule="evenodd"/><path fill="#000000" fill-opacity="0.0" d="m88.07874 232.09186l34.614174 0l0 38.677185l-34.614174 0z" fill-rule="evenodd"/><path fill="#000000" d="m109.64124 246.7306q-1.21875 1.46875 -1.875 2.421875l-1.140625 1.671875q-0.671875 0.953125 -1.25 1.59375l2.0 2.9375q1.203125 1.7500153 2.125 2.8437653q0.25 0.296875 0.25 0.625q0 0.390625 -0.28125 0.671875q-0.28125 0.28125 -0.65625 0.28125q-0.34375 0 -0.640625 -0.28125q-0.6875 -0.640625 -1.40625 -1.734375l-1.21875 -1.8750153l-1.4375 -2.046875l-3.125 3.6250153l-1.6875 1.875q-0.296875 0.296875 -0.65625 0.296875q-0.375 0 -0.65625 -0.28125q-0.28125 -0.28125 -0.28125 -0.65625q0 -0.328125 0.234375 -0.625l1.640625 -1.828125l3.40625 -3.9687653q-1.0 -1.34375 -2.125 -2.6875l-1.0625 -1.421875q-0.625 -0.859375 -1.171875 -1.3125q-0.390625 -0.328125 -0.390625 -0.75q0 -0.359375 0.265625 -0.65625q0.265625 -0.296875 0.65625 -0.296875q0.765625 0 1.96875 1.65625q0.375 0.546875 1.140625 1.578125q1.046875 1.234375 1.984375 2.484375l2.078125 -2.90625q2.015625 -2.8125 2.625 -2.8125q0.375 0 0.65625 0.28125q0.28125 0.28125 0.28125 0.671875q0 0.3125 -0.25 0.625z" fill-rule="nonzero"/><path fill="#000000" fill-opacity="0.0" d="m83.13386 105.42782l174.07874 0l0 31.370079l-174.07874 0z" fill-rule="evenodd"/><path fill="#000000" d="m99.75886 118.8997q-0.15625 0.25 -0.421875 0.765625l-1.109375 2.765625q-0.65625 1.5625 -1.21875 2.71875l-0.828125 1.453125l-0.34375 0.703125q-0.203125 0.375 -0.578125 0.375q-0.25 0 -0.46875 -0.1875q-0.203125 -0.1875 -0.203125 -0.46875q0 -0.21875 0.625 -1.390625l0.796875 -1.453125q-1.171875 -1.515625 -1.515625 -2.375q-0.296875 -0.734375 -0.96875 -1.765625q-0.9375 -1.40625 -1.109375 -1.703125q-0.09375 -0.171875 -0.09375 -0.34375q0 -0.28125 0.203125 -0.46875q0.203125 -0.203125 0.46875 -0.203125q0.3125 0 0.53125 0.3125l0.515625 0.8125q0.703125 1.015625 0.921875 1.390625q0.484375 0.796875 0.75 1.484375q0.21875 0.53125 0.921875 1.46875l1.5 -3.625q0.25 -0.453125 0.703125 -1.390625q0.171875 -0.4375 0.59375 -0.4375q0.265625 0 0.46875 0.1875q0.203125 0.171875 0.203125 0.46875q0 0.296875 -0.34375 0.90625zm4.185501 8.71875q-1.09375 0 -1.875 -0.8125q-0.890625 -0.90625 -0.921875 -2.421875q-0.046875 -1.46875 0.734375 -2.578125q0.90625 -1.328125 2.53125 -1.328125q1.3125 0 1.984375 1.1875q0.53125 0.96875 0.515625 2.328125q-0.03125 1.4375 -0.765625 2.453125q-0.828125 1.171875 -2.203125 1.171875zm0.390625 -5.8125q-0.953125 -0.015625 -1.484375 0.90625q-0.421875 0.734375 -0.421875 1.671875q0 0.953125 0.515625 1.484375q0.421875 0.421875 1.0 0.421875q0.671875 0 1.171875 -0.484375q0.546875 -0.546875 0.578125 -1.484375q0.09375 -2.515625 -1.359375 -2.515625zm9.493362 1.625q0 0.46875 0 1.40625q0.015625 0.9375 0.015625 1.40625q0 0.140625 0.015625 0.4375q0.03125 0.28125 0.03125 0.4375q0 0.265625 -0.203125 0.4375q-0.1875 0.1875 -0.453125 0.1875q-0.5 0 -0.640625 -0.609375q-0.8125 0.421875 -1.875 0.421875q-0.84375 0 -1.40625 -0.375q-0.625 -0.421875 -0.734375 -1.21875q-0.265625 -1.734375 -0.265625 -3.078125q0 -0.890625 0.203125 -2.03125q0.09375 -0.5625 0.609375 -0.5625q0.28125 0 0.46875 0.1875q0.203125 0.171875 0.203125 0.453125q0 0.296875 -0.109375 0.953125q-0.09375 0.65625 -0.09375 1.0q0 1.09375 0.078125 1.875q0.078125 0.765625 0.21875 1.234375q0.21875 0.109375 0.421875 0.171875q0.203125 0.0625 0.40625 0.0625q0.875 0 1.84375 -0.28125l0 -1.3125l-0.015625 -1.265625q0 -1.40625 0.125 -2.4375q0.0625 -0.59375 0.625 -0.59375q0.28125 0 0.46875 0.1875q0.1875 0.171875 0.171875 0.4375l-0.109375 2.46875zm6.680893 -1.015625q-0.046875 0.8125 -0.65625 0.8125q-0.5625 0 -0.5625 -0.640625q0 -0.125 -0.015625 -0.453125l-0.015625 -0.546875q-1.03125 0.125 -1.640625 0.578125q-0.578125 0.421875 -0.96875 1.28125l0.015625 3.5625q0 0.65625 -0.640625 0.65625q-0.578125 0 -0.578125 -0.65625l0 -4.578125q0 -0.203125 0.015625 -0.625q0.015625 -0.4375 0.015625 -0.65625q0 -0.65625 0.578125 -0.65625q0.625 0 0.640625 1.078125q1.25 -1.203125 2.765625 -1.203125q0.53125 0 0.78125 0.40625q0.265625 0.390625 0.265625 1.1875q0 0.34375 0 0.453125zm9.699074 -4.34375q-1.578125 0 -1.765625 2.1875l-0.015625 0.40625q1.09375 -0.078125 1.421875 -0.078125q1.046875 0 1.046875 0.65625q0 0.46875 -0.515625 0.5625q-0.21875 0.046875 -0.515625 0.03125q-0.296875 -0.015625 -1.5 0.09375l-0.046875 1.484375q0 0.390625 0.015625 1.203125q0.03125 0.8125 0.03125 1.203125q0 1.234375 -0.140625 1.921875q-0.109375 0.5312424 -0.6093826 0.5312424q-0.265625 0 -0.453125 -0.171875q-0.1875 -0.17186737 -0.1875 -0.43749237q0 -0.046875 0.015625 -0.125q0.125 -0.859375 0.125 -1.84375l-0.015625 -1.78125l0 -1.890625q-0.8125 0.0625 -1.03125 0.0625q-0.65625 0 -0.65625 -0.625q0 -0.640625 1.140625 -0.671875l0.625 -0.03125q0.015625 -0.359375 0.09375 -0.984375q0.171875 -1.4375 0.7343826 -2.125q0.671875 -0.828125 2.109375 -0.828125q0.9375 0 0.9375 0.625q0 0.625 -0.84375 0.625zm3.634079 0.921875q-0.3125 0 -0.546875 -0.21875q-0.21875 -0.234375 -0.21875 -0.546875q0 -0.3125 0.21875 -0.53125q0.234375 -0.21875 0.546875 -0.21875q0.3125 0 0.53125 0.21875q0.234375 0.21875 0.234375 0.53125q0 0.3125 -0.234375 0.546875q-0.21875 0.21875 -0.53125 0.21875zm0.296875 5.28125q0 0.390625 0.015625 1.171875q0.03125 0.765625 0.03125 1.15625q0 0.296875 -0.171875 0.484375q-0.171875 0.171875 -0.46875 0.171875q-0.28125 0 -0.46875 -0.171875q-0.171875 -0.1875 -0.171875 -0.484375q0 -0.390625 -0.015625 -1.15625q-0.015625 -0.78125 -0.015625 -1.171875q0 -0.609375 0.0625 -1.515625q0.0625 -0.921875 0.0625 -1.53125q0 -0.296875 0.171875 -0.484375q0.1875 -0.1875 0.46875 -0.1875q0.28125 0 0.453125 0.1875q0.1875 0.1875 0.1875 0.484375q0 0.609375 -0.078125 1.53125q-0.0625 0.90625 -0.0625 1.515625zm7.2667694 -1.859375q-0.046875 0.8125 -0.65625 0.8125q-0.5625 0 -0.5625 -0.640625q0 -0.125 -0.015625 -0.453125l-0.015625 -0.546875q-1.03125 0.125 -1.640625 0.578125q-0.578125 0.421875 -0.96875 1.28125l0.015625 3.5625q0 0.65625 -0.640625 0.65625q-0.578125 0 -0.578125 -0.65625l0 -4.578125q0 -0.203125 0.015625 -0.625q0.015625 -0.4375 0.015625 -0.65625q0 -0.65625 0.578125 -0.65625q0.625 0 0.640625 1.078125q1.25 -1.203125 2.765625 -1.203125q0.53125 0 0.78125 0.40625q0.265625 0.390625 0.265625 1.1875q0 0.34375 0 0.453125zm5.7318726 -0.203125q-0.359375 0 -0.5 -0.234375q-0.09375 -0.171875 -0.171875 -0.703125q-0.484375 0.125 -1.5 0.453125q-1.046875 0.421875 -1.0625 1.03125q0.203125 0.0625 0.390625 0.109375q1.5 0.265625 2.21875 0.734375q1.0625 0.671875 1.0625 1.96875q0 1.0625 -0.90625 1.609375q-0.765625 0.4375 -1.9375 0.4375q-0.84375 0 -1.625 -0.28125q-1.0 -0.375 -1.0 -1.015625q0 -0.265625 0.203125 -0.453125q0.203125 -0.203125 0.46875 -0.203125q0.203125 0 0.515625 0.3125q0.15625 0.15625 0.703125 0.25q0.4375 0.078125 0.734375 0.078125q0.546875 0 0.96875 -0.125q0.609375 -0.203125 0.609375 -0.609375q0 -0.875 -1.234375 -1.1875l-0.6875 -0.15625q-0.859375 -0.1875 -1.21875 -0.4375q-0.53125 -0.375 -0.53125 -1.109375q0 -1.359375 1.28125 -1.9375q0.390625 -0.171875 1.25 -0.40625q0.859375 -0.25 1.234375 -0.421875q0.265625 -0.125 0.578125 -0.125q0.28125 0 0.453125 0.1875q0.171875 0.1875 0.171875 0.46875q0 0.1875 0.078125 0.5625q0.09375 0.359375 0.09375 0.546875q0 0.296875 -0.1875 0.484375q-0.171875 0.171875 -0.453125 0.171875zm6.4571075 -0.53125q-0.140625 0 -0.328125 -0.015625q-0.1875 -0.015625 -0.328125 -0.015625q-0.140625 0 -0.875 0.109375l0.125 3.84375l0 0.28125l0 0.328125q0.03125 1.4375 -0.671875 1.4375q-0.265625 0 -0.46875 -0.171875q-0.1875 -0.171875 -0.1875 -0.421875q0 -0.25 0.015625 -0.734375q0.03125 -0.5 0.03125 -0.75l-0.125 -3.796875q-0.484375 -0.03125 -1.453125 -0.125q-0.578125 -0.078125 -0.578125 -0.640625q0 -0.28125 0.171875 -0.46875q0.1875 -0.1875 0.453125 -0.1875l1.375 0.109375q0 -0.328125 -0.03125 -0.890625q-0.03125 -0.5625 -0.03125 -0.796875q0 -0.28125 0.1875 -0.453125q0.1875 -0.1875 0.453125 -0.1875q0.59375 0 0.6875 0.953125q0.015625 0.25 0.015625 0.578125l0 0.390625l-0.015625 0.390625q0.8125 -0.09375 0.921875 -0.09375q0.6875 0 0.890625 0.0625q0.390625 0.125 0.390625 0.609375q0 0.28125 -0.1875 0.46875q-0.171875 0.1875 -0.4375 0.1875zm10.887924 6.015625q-0.546875 0 -0.625 -0.625l-0.1875 -1.421875q-0.09375 -0.765625 -0.09375 -1.421875q0 -0.1875 0.015625 -0.609375q0.03125 -0.4375 0.03125 -0.625q0 -1.40625 -0.515625 -1.40625q-0.734375 0 -1.390625 0.859375q-0.59375 0.796875 -0.9375 2.0q-0.015625 0.25 -0.0625 0.640625q-0.03125 0.3125 -0.03125 0.625q0 0.1875 0.03125 0.578125q0.046875 0.390625 0.046875 0.59375q0 0.296875 -0.1875 0.46875q-0.171875 0.1875 -0.453125 0.1875q-0.28125 0 -0.46875 -0.1875q-0.171875 -0.171875 -0.171875 -0.46875q0 -0.203125 -0.046875 -0.59375q-0.03125 -0.390625 -0.03125 -0.578125q0 -0.671875 0.09375 -1.859375q0.09375 -1.1875 0.09375 -1.859375q0 -0.203125 -0.03125 -0.609375q-0.015625 -0.421875 -0.015625 -0.625q0 -0.28125 0.1875 -0.453125q0.1875 -0.1875 0.453125 -0.1875q0.59375 0 0.65625 0.84375l0.015625 0.765625q1.09375 -1.453125 2.25 -1.453125q1.046875 0 1.453125 0.90625q0.28125 0.625 0.3125 1.8125l0 0.65625l-0.015625 0.609375q0 0.546875 0.140625 1.40625q0.140625 0.84375 0.140625 1.375q0 0.296875 -0.1875 0.46875q-0.1875 0.1875 -0.46875 0.1875zm7.0701904 -0.046875q-0.125 0 -0.453125 -0.28125q-0.28125 -0.265625 -0.421875 -0.46875q-0.625 0.328125 -1.109375 0.5q-0.46875 0.171875 -0.796875 0.171875q-1.515625 0 -2.21875 -0.84375q-0.65625 -0.8125 -0.65625 -2.484375q0 -1.578125 1.078125 -2.6875q1.09375 -1.125 2.59375 -1.125q0.5625 0 1.265625 0.296875q0.890625 0.359375 0.890625 0.875q0 0.171875 -0.125 0.3125q-0.0625 0.25 -0.109375 0.8125q-0.03125 0.5625 -0.03125 1.453125q-0.015625 0.8125 0.109375 1.28125q0.0625 0.28125 0.40625 1.140625q0.046875 0.125 0.140625 0.34375l0.046875 0.109375q0 0.265625 -0.1875 0.421875q-0.171875 0.171875 -0.421875 0.171875zm-1.34375 -4.515625q0 -0.28125 0.03125 -0.609375q0.03125 -0.328125 0.109375 -0.703125q-0.25 -0.125 -0.421875 -0.171875q-0.171875 -0.0625 -0.265625 -0.0625q-1.015625 0 -1.75 0.828125q-0.734375 0.8125 -0.734375 1.890625q0 1.0625 0.375 1.609375q0.390625 0.53125 1.140625 0.53125q0.625 0 1.0625 -0.234375q0.234375 -0.125 0.65625 -0.5q-0.203125 -1.71875 -0.203125 -2.578125zm11.351501 4.640625q-0.53125 0 -0.625 -0.578125q-0.125 -0.703125 -0.234375 -2.015625l-0.21875 -2.015625q-0.0625 -0.453125 -0.21875 -0.875q-0.234375 -0.59375 -0.484375 -0.59375q-0.25 0 -0.90625 0.421875q-0.625 0.375 -0.8125 0.59375q-0.015625 0.625 0.03125 1.234375l0.1875 1.734375q0.125 1.03125 0.125 1.703125q0 0.28125 -0.1875 0.46875q-0.171875 0.18749237 -0.453125 0.18749237q-0.265625 0 -0.453125 -0.18749237q-0.171875 -0.1875 -0.171875 -0.46875q0 -0.796875 -0.171875 -2.328125q-0.15625 -1.546875 -0.15625 -2.328125q0 -0.6875 -0.1875 -1.078125q-0.453125 0.203125 -0.921875 0.671875l-0.78125 0.859375q-0.09375 0.15625 -0.328125 0.421875q0 0.390625 -0.078125 1.15625q-0.0625 0.75 -0.0625 1.109375q0 0.203125 0.0625 0.5625q0.0625 0.34375 0.0625 0.5q0 0.265625 -0.203125 0.4375q-0.1875 0.1875 -0.46875 0.1875q-0.734375 0 -0.734375 -1.671875q0 -0.390625 0.078125 -1.15625q0.078125 -0.78125 0.078125 -1.171875q0 -0.34375 -0.0625 -1.03125q-0.0625 -0.6875 -0.0625 -1.046875q0 -1.46875 0.65625 -1.46875q0.25 0 0.453125 0.21875q0.21875 0.21875 0.21875 0.484375q0 0.125 -0.03125 0.390625q-0.03125 0.25 -0.03125 0.390625l0.015625 0.671875q0.34375 -0.6875 1.0 -1.25q0.65625 -0.5625 1.109375 -0.5625q1.03125 0 1.40625 1.015625q0.359375 -0.484375 0.859375 -0.71875q0.5 -0.234375 1.125 -0.234375q1.09375 0 1.484375 1.171875q0.078125 0.234375 0.28125 1.828125q0.171875 1.125 0.46875 3.734375q0.015625 0.25 -0.1875 0.4375q-0.1875 0.1875 -0.46875 0.1875zm5.1196594 -0.25q-1.46875 0 -2.375 -0.734375q-1.0 -0.8125 -1.0 -2.28125q0 -1.6875 0.828125 -2.828125q0.890625 -1.25 2.375 -1.25q1.078125 0 1.765625 0.359375q0.84375 0.453125 0.84375 1.375q0 0.65625 -0.734375 1.1875q-0.328125 0.234375 -1.390625 0.734375l-2.484375 1.171875q0.375 0.546875 0.90625 0.828125q0.546875 0.265625 1.265625 0.265625q0.453125 0 1.0625 -0.171875q0.765625 -0.21875 0.984375 -0.5625q0.21875 -0.34375 0.484375 -0.34375q0.21875 0 0.390625 0.171875q0.1875 0.171875 0.1875 0.390625q0 0.734375 -1.15625 1.25q-1.0 0.4375 -1.953125 0.4375zm-0.171875 -5.921875q-0.796875 0 -1.328125 0.609375q-0.515625 0.609375 -0.78125 1.859375l2.0 -0.953125q1.171875 -0.578125 1.6875 -1.0q-0.5625 -0.515625 -1.578125 -0.515625z" fill-rule="nonzero"/><path fill="#000000" fill-opacity="0.0" d="m83.13386 201.42783l174.07874 0l0 31.370071l-174.07874 0z" fill-rule="evenodd"/><path fill="#000000" d="m99.75886 214.89969q-0.15625 0.25 -0.421875 0.765625l-1.109375 2.765625q-0.65625 1.5625 -1.21875 2.71875l-0.828125 1.453125l-0.34375 0.703125q-0.203125 0.375 -0.578125 0.375q-0.25 0 -0.46875 -0.1875q-0.203125 -0.1875 -0.203125 -0.46875q0 -0.21875 0.625 -1.390625l0.796875 -1.453125q-1.171875 -1.515625 -1.515625 -2.375q-0.296875 -0.734375 -0.96875 -1.765625q-0.9375 -1.40625 -1.109375 -1.703125q-0.09375 -0.171875 -0.09375 -0.34375q0 -0.28125 0.203125 -0.46875q0.203125 -0.203125 0.46875 -0.203125q0.3125 0 0.53125 0.3125l0.515625 0.8125q0.703125 1.015625 0.921875 1.390625q0.484375 0.796875 0.75 1.484375q0.21875 0.53125 0.921875 1.46875l1.5 -3.625q0.25 -0.453125 0.703125 -1.390625q0.171875 -0.4375 0.59375 -0.4375q0.265625 0 0.46875 0.1875q0.203125 0.171875 0.203125 0.46875q0 0.296875 -0.34375 0.90625zm4.185501 8.71875q-1.09375 0 -1.875 -0.8125q-0.890625 -0.90625 -0.921875 -2.421875q-0.046875 -1.46875 0.734375 -2.578125q0.90625 -1.328125 2.53125 -1.328125q1.3125 0 1.984375 1.1875q0.53125 0.96875 0.515625 2.328125q-0.03125 1.4375 -0.765625 2.453125q-0.828125 1.171875 -2.203125 1.171875zm0.390625 -5.8125q-0.953125 -0.015625 -1.484375 0.90625q-0.421875 0.734375 -0.421875 1.671875q0 0.953125 0.515625 1.484375q0.421875 0.421875 1.0 0.421875q0.671875 0 1.171875 -0.484375q0.546875 -0.546875 0.578125 -1.484375q0.09375 -2.515625 -1.359375 -2.515625zm9.493362 1.625q0 0.46875 0 1.40625q0.015625 0.9375 0.015625 1.40625q0 0.140625 0.015625 0.4375q0.03125 0.28125 0.03125 0.4375q0 0.265625 -0.203125 0.4375q-0.1875 0.1875 -0.453125 0.1875q-0.5 0 -0.640625 -0.609375q-0.8125 0.421875 -1.875 0.421875q-0.84375 0 -1.40625 -0.375q-0.625 -0.421875 -0.734375 -1.21875q-0.265625 -1.734375 -0.265625 -3.078125q0 -0.890625 0.203125 -2.03125q0.09375 -0.5625 0.609375 -0.5625q0.28125 0 0.46875 0.1875q0.203125 0.171875 0.203125 0.453125q0 0.296875 -0.109375 0.953125q-0.09375 0.65625 -0.09375 1.0q0 1.09375 0.078125 1.875q0.078125 0.765625 0.21875 1.234375q0.21875 0.109375 0.421875 0.171875q0.203125 0.0625 0.40625 0.0625q0.875 0 1.84375 -0.28125l0 -1.3125l-0.015625 -1.265625q0 -1.40625 0.125 -2.4375q0.0625 -0.59375 0.625 -0.59375q0.28125 0 0.46875 0.1875q0.1875 0.171875 0.171875 0.4375l-0.109375 2.46875zm6.680893 -1.015625q-0.046875 0.8125 -0.65625 0.8125q-0.5625 0 -0.5625 -0.640625q0 -0.125 -0.015625 -0.453125l-0.015625 -0.546875q-1.03125 0.125 -1.640625 0.578125q-0.578125 0.421875 -0.96875 1.28125l0.015625 3.5625q0 0.65625 -0.640625 0.65625q-0.578125 0 -0.578125 -0.65625l0 -4.578125q0 -0.203125 0.015625 -0.625q0.015625 -0.4375 0.015625 -0.65625q0 -0.65625 0.578125 -0.65625q0.625 0 0.640625 1.078125q1.25 -1.203125 2.765625 -1.203125q0.53125 0 0.78125 0.40625q0.265625 0.390625 0.265625 1.1875q0 0.34375 0 0.453125zm6.980316 -0.296875l-0.109375 3.234375q0 0.515625 -0.046875 1.5q-0.0625 0.65625 -0.640625 0.65625q-0.640625 0 -0.640625 -0.671875q0 -0.78125 0.078125 -2.359375q0.078125 -1.578125 0.078125 -2.359375q0 -1.03125 0.03125 -2.359375q0.03125 -1.328125 0.03125 -2.359375q0 -0.640625 0.640625 -0.640625q0.640625 0 0.640625 0.640625q0 1.03125 -0.03125 2.359375q-0.03125 1.328125 -0.03125 2.359375zm7.0728073 5.53125q-0.125 0 -0.453125 -0.28125q-0.28125 -0.265625 -0.421875 -0.46875q-0.625 0.328125 -1.109375 0.5q-0.46875 0.171875 -0.796875 0.171875q-1.515625 0 -2.21875 -0.84375q-0.65625 -0.8125 -0.65625 -2.484375q0 -1.578125 1.078125 -2.6875q1.09375 -1.125 2.59375 -1.125q0.5625 0 1.265625 0.296875q0.890625 0.359375 0.890625 0.875q0 0.171875 -0.125 0.3125q-0.0625 0.25 -0.109375 0.8125q-0.03125 0.5625 -0.03125 1.453125q-0.015625 0.8125 0.109375 1.28125q0.0625 0.28125 0.40625 1.140625q0.046875 0.125 0.140625 0.34375l0.046875 0.109375q0 0.265625 -0.1875 0.421875q-0.171875 0.171875 -0.421875 0.171875zm-1.34375 -4.515625q0 -0.28125 0.03125 -0.609375q0.03125 -0.328125 0.109375 -0.703125q-0.25 -0.125 -0.421875 -0.171875q-0.171875 -0.0625 -0.265625 -0.0625q-1.015625 0 -1.75 0.828125q-0.734375 0.8125 -0.734375 1.890625q0 1.0625 0.375 1.609375q0.390625 0.53125 1.140625 0.53125q0.625 0 1.0625 -0.234375q0.234375 -0.125 0.65625 -0.5q-0.203125 -1.71875 -0.203125 -2.578125zm7.4765015 -0.921875q-0.359375 0 -0.5 -0.234375q-0.09375 -0.171875 -0.171875 -0.703125q-0.484375 0.125 -1.5 0.453125q-1.046875 0.421875 -1.0625 1.03125q0.203125 0.0625 0.390625 0.109375q1.5 0.265625 2.21875 0.734375q1.0625 0.671875 1.0625 1.96875q0 1.0625 -0.90625 1.609375q-0.765625 0.4375 -1.9375 0.4375q-0.84375 0 -1.625 -0.28125q-1.0 -0.375 -1.0 -1.015625q0 -0.265625 0.203125 -0.453125q0.203125 -0.203125 0.46875 -0.203125q0.203125 0 0.515625 0.3125q0.15625 0.15625 0.703125 0.25q0.4375 0.078125 0.734375 0.078125q0.546875 0 0.96875 -0.125q0.609375 -0.203125 0.609375 -0.609375q0 -0.875 -1.234375 -1.1875l-0.6875 -0.15625q-0.859375 -0.1875 -1.21875 -0.4375q-0.53125 -0.375 -0.53125 -1.109375q0 -1.359375 1.28125 -1.9375q0.390625 -0.171875 1.25 -0.40625q0.859375 -0.25 1.234375 -0.421875q0.265625 -0.125 0.578125 -0.125q0.28125 0 0.453125 0.1875q0.171875 0.1875 0.171875 0.46875q0 0.1875 0.078125 0.5625q0.09375 0.359375 0.09375 0.546875q0 0.296875 -0.1875 0.484375q-0.171875 0.171875 -0.453125 0.171875zm6.4571075 -0.53125q-0.140625 0 -0.328125 -0.015625q-0.1875 -0.015625 -0.328125 -0.015625q-0.140625 0 -0.875 0.109375l0.125 3.84375l0 0.28125l0 0.328125q0.03125 1.4375 -0.671875 1.4375q-0.265625 0 -0.46875 -0.171875q-0.1875 -0.171875 -0.1875 -0.421875q0 -0.25 0.015625 -0.734375q0.03125 -0.5 0.03125 -0.75l-0.125 -3.796875q-0.484375 -0.03125 -1.453125 -0.125q-0.578125 -0.078125 -0.578125 -0.640625q0 -0.28125 0.171875 -0.46875q0.1875 -0.1875 0.453125 -0.1875l1.375 0.109375q0 -0.328125 -0.03125 -0.890625q-0.03125 -0.5625 -0.03125 -0.796875q0 -0.28125 0.1875 -0.453125q0.1875 -0.1875 0.453125 -0.1875q0.59375 0 0.6875 0.953125q0.015625 0.25 0.015625 0.578125l0 0.390625l-0.015625 0.390625q0.8125 -0.09375 0.921875 -0.09375q0.6875 0 0.890625 0.0625q0.390625 0.125 0.390625 0.609375q0 0.28125 -0.1875 0.46875q-0.171875 0.1875 -0.4375 0.1875zm10.887924 6.015625q-0.546875 0 -0.625 -0.625l-0.1875 -1.421875q-0.09375 -0.765625 -0.09375 -1.421875q0 -0.1875 0.015625 -0.609375q0.03125 -0.4375 0.03125 -0.625q0 -1.40625 -0.515625 -1.40625q-0.734375 0 -1.390625 0.859375q-0.59375 0.796875 -0.9375 2.0q-0.015625 0.25 -0.0625 0.640625q-0.03125 0.3125 -0.03125 0.625q0 0.1875 0.03125 0.578125q0.046875 0.390625 0.046875 0.59375q0 0.296875 -0.1875 0.46875q-0.171875 0.1875 -0.453125 0.1875q-0.28125 0 -0.46875 -0.1875q-0.171875 -0.171875 -0.171875 -0.46875q0 -0.203125 -0.046875 -0.59375q-0.03125 -0.390625 -0.03125 -0.578125q0 -0.671875 0.09375 -1.859375q0.09375 -1.1875 0.09375 -1.859375q0 -0.203125 -0.03125 -0.609375q-0.015625 -0.421875 -0.015625 -0.625q0 -0.28125 0.1875 -0.453125q0.1875 -0.1875 0.453125 -0.1875q0.59375 0 0.65625 0.84375l0.015625 0.765625q1.09375 -1.453125 2.25 -1.453125q1.046875 0 1.453125 0.90625q0.28125 0.625 0.3125 1.8125l0 0.65625l-0.015625 0.609375q0 0.546875 0.140625 1.40625q0.140625 0.84375 0.140625 1.375q0 0.296875 -0.1875 0.46875q-0.1875 0.1875 -0.46875 0.1875zm7.0701904 -0.046875q-0.125 0 -0.453125 -0.28125q-0.28125 -0.265625 -0.421875 -0.46875q-0.625 0.328125 -1.109375 0.5q-0.46875 0.171875 -0.796875 0.171875q-1.515625 0 -2.21875 -0.84375q-0.65625 -0.8125 -0.65625 -2.484375q0 -1.578125 1.078125 -2.6875q1.09375 -1.125 2.59375 -1.125q0.5625 0 1.265625 0.296875q0.890625 0.359375 0.890625 0.875q0 0.171875 -0.125 0.3125q-0.0625 0.25 -0.109375 0.8125q-0.03125 0.5625 -0.03125 1.453125q-0.015625 0.8125 0.109375 1.28125q0.0625 0.28125 0.40625 1.140625q0.046875 0.125 0.140625 0.34375l0.046875 0.109375q0 0.265625 -0.1875 0.421875q-0.171875 0.171875 -0.421875 0.171875zm-1.34375 -4.515625q0 -0.28125 0.03125 -0.609375q0.03125 -0.328125 0.109375 -0.703125q-0.25 -0.125 -0.421875 -0.171875q-0.171875 -0.0625 -0.265625 -0.0625q-1.015625 0 -1.75 0.828125q-0.734375 0.8125 -0.734375 1.890625q0 1.0625 0.375 1.609375q0.390625 0.53125 1.140625 0.53125q0.625 0 1.0625 -0.234375q0.234375 -0.125 0.65625 -0.5q-0.203125 -1.71875 -0.203125 -2.578125zm11.351501 4.640625q-0.53125 0 -0.625 -0.578125q-0.125 -0.703125 -0.234375 -2.015625l-0.21875 -2.015625q-0.0625 -0.453125 -0.21875 -0.875q-0.234375 -0.59375 -0.484375 -0.59375q-0.25 0 -0.90625 0.421875q-0.625 0.375 -0.8125 0.59375q-0.015625 0.625 0.03125 1.234375l0.1875 1.734375q0.125 1.03125 0.125 1.703125q0 0.28125 -0.1875 0.46875q-0.171875 0.1875 -0.453125 0.1875q-0.265625 0 -0.453125 -0.1875q-0.171875 -0.1875 -0.171875 -0.46875q0 -0.796875 -0.171875 -2.328125q-0.15625 -1.546875 -0.15625 -2.328125q0 -0.6875 -0.1875 -1.078125q-0.453125 0.203125 -0.921875 0.671875l-0.78125 0.859375q-0.09375 0.15625 -0.328125 0.421875q0 0.390625 -0.078125 1.15625q-0.0625 0.75 -0.0625 1.109375q0 0.203125 0.0625 0.5625q0.0625 0.34375 0.0625 0.5q0 0.265625 -0.203125 0.4375q-0.1875 0.1875 -0.46875 0.1875q-0.734375 0 -0.734375 -1.671875q0 -0.390625 0.078125 -1.15625q0.078125 -0.78125 0.078125 -1.171875q0 -0.34375 -0.0625 -1.03125q-0.0625 -0.6875 -0.0625 -1.046875q0 -1.46875 0.65625 -1.46875q0.25 0 0.453125 0.21875q0.21875 0.21875 0.21875 0.484375q0 0.125 -0.03125 0.390625q-0.03125 0.25 -0.03125 0.390625l0.015625 0.671875q0.34375 -0.6875 1.0 -1.25q0.65625 -0.5625 1.109375 -0.5625q1.03125 0 1.40625 1.015625q0.359375 -0.484375 0.859375 -0.71875q0.5 -0.234375 1.125 -0.234375q1.09375 0 1.484375 1.171875q0.078125 0.234375 0.28125 1.828125q0.171875 1.125 0.46875 3.734375q0.015625 0.25 -0.1875 0.4375q-0.1875 0.1875 -0.46875 0.1875zm5.1196594 -0.25q-1.46875 0 -2.375 -0.734375q-1.0 -0.8125 -1.0 -2.28125q0 -1.6875 0.828125 -2.828125q0.890625 -1.25 2.375 -1.25q1.078125 0 1.765625 0.359375q0.84375 0.453125 0.84375 1.375q0 0.65625 -0.734375 1.1875q-0.328125 0.234375 -1.390625 0.734375l-2.484375 1.171875q0.375 0.546875 0.90625 0.828125q0.546875 0.265625 1.265625 0.265625q0.453125 0 1.0625 -0.171875q0.765625 -0.21875 0.984375 -0.5625q0.21875 -0.34375 0.484375 -0.34375q0.21875 0 0.390625 0.171875q0.1875 0.171875 0.1875 0.390625q0 0.734375 -1.15625 1.25q-1.0 0.4375 -1.953125 0.4375zm-0.171875 -5.921875q-0.796875 0 -1.328125 0.609375q-0.515625 0.609375 -0.78125 1.859375l2.0 -0.953125q1.171875 -0.578125 1.6875 -1.0q-0.5625 -0.515625 -1.578125 -0.515625z" fill-rule="nonzero"/></g></svg>