<svg version="1.1" viewBox="0.0 0.0 319.750656167979 314.12073490813646" fill="none" stroke="none" stroke-linecap="square" stroke-miterlimit="10" xmlns:xlink="http://www.w3.org/1999/xlink" xmlns="http://www.w3.org/2000/svg"><clipPath id="p.0"><path d="m0 0l319.75067 0l0 314.12073l-319.75067 0l0 -314.12073z" clip-rule="nonzero"/></clipPath><g clip-path="url(#p.0)"><path fill="#000000" fill-opacity="0.0" d="m0 0l319.75067 0l0 314.12073l-319.75067 0z" fill-rule="evenodd"/><path fill="#ffffff" d="m71.57481 151.94751l159.18109 0l0 24.440948l-159.18109 0z" fill-rule="evenodd"/><path stroke="#000000" stroke-width="1.0" stroke-linejoin="round" stroke-linecap="butt" d="m71.57481 151.94751l159.18109 0l0 24.440948l-159.18109 0z" fill-rule="evenodd"/><path fill="#ffffff" d="m74.42519 71.94751l159.18109 0l0 24.44094l-159.18109 0z" fill-rule="evenodd"/><path stroke="#000000" stroke-width="1.0" stroke-linejoin="round" stroke-linecap="butt" d="m74.42519 71.94751l159.18109 0l0 24.44094l-159.18109 0z" fill-rule="evenodd"/><path fill="#000000" fill-opacity="0.0" d="m63.574802 33.27034l174.07875 0l0 38.67717l-174.07875 0z" fill-rule="evenodd"/><path fill="#000000" d="m84.41856 54.674713q-0.5625 2.796875 -2.375 4.46875q-1.8125 1.671875 -4.265625 1.671875q-2.25 0 -3.375 -1.25q-1.109375 -1.25 -1.109375 -3.75q0 -2.359375 1.109375 -4.859375q1.125 -2.5 2.875 -4.046875q1.15625 -1.03125 2.46875 -1.03125q0.828125 0 2.1875 0.546875q1.65625 0.65625 1.65625 1.453125q0 0.375 -0.28125 0.671875q-0.265625 0.28125 -0.65625 0.28125q-0.1875 0 -0.5625 -0.234375q-1.390625 -0.84375 -2.34375 -0.84375q-0.6875 0 -1.4375 0.71875q-0.375 0.34375 -1.0625 1.28125q-2.109375 2.796875 -2.109375 6.0625q0 1.703125 0.53125 2.390625q0.5625 0.75 2.109375 0.75q1.625 0 2.828125 -1.03125q1.265625 -1.09375 1.765625 -3.125q-2.515625 0.125 -4.328125 0.96875q-0.203125 0.109375 -0.40625 0.109375q-0.390625 0 -0.65625 -0.3125q-0.25 -0.28125 -0.25 -0.65625q0 -0.5 0.484375 -0.796875q1.96875 -1.203125 6.78125 -1.203125q0.390625 0 0.65625 0.265625q0.265625 0.25 0.265625 0.65625q0 0.59375 -0.5 0.84375zm3.83667 -6.015625q-0.4375 0 -0.75 -0.3125q-0.3125 -0.3125 -0.3125 -0.75q0 -0.4375 0.3125 -0.734375q0.3125 -0.3125 0.75 -0.3125q0.4375 0 0.75 0.3125q0.328125 0.296875 0.328125 0.734375q0 0.4375 -0.328125 0.75q-0.3125 0.3125 -0.75 0.3125zm0.421875 7.390625q0 0.546875 0.03125 1.640625q0.03125 1.09375 0.03125 1.640625q0 0.390625 -0.25 0.65625q-0.25 0.25 -0.640625 0.25q-0.390625 0 -0.65625 -0.25q-0.25 -0.265625 -0.25 -0.65625q0 -0.546875 -0.03125 -1.640625q-0.03125 -1.09375 -0.03125 -1.640625q0 -0.84375 0.09375 -2.125q0.09375 -1.28125 0.09375 -2.140625q0 -0.40625 0.25 -0.65625q0.25 -0.265625 0.640625 -0.265625q0.390625 0 0.640625 0.265625q0.25 0.25 0.25 0.65625q0 0.859375 -0.09375 2.140625q-0.078125 1.28125 -0.078125 2.125zm7.2757263 3.671875q-0.03125 0.828125 -0.828125 0.828125q-0.671875 0 -0.96875 -0.78125l-1.390625 -3.703125l-1.625 -4.171875q-0.09375 -0.234375 -0.09375 -0.421875q0 -0.375 0.28125 -0.640625q0.28125 -0.265625 0.65625 -0.265625q0.546875 0 0.78125 0.5625l2.3125 6.359375q0.6875 -1.453125 1.734375 -4.21875q0.234375 -0.734375 0.765625 -2.0625q0.28125 -0.578125 0.796875 -0.578125q0.375 0 0.65625 0.265625q0.296875 0.265625 0.296875 0.625q0 0.34375 -1.515625 3.90625l-1.859375 4.296875zm9.119934 0.890625q-2.046875 0 -3.328125 -1.03125q-1.390625 -1.140625 -1.390625 -3.1875q0 -2.375 1.140625 -3.96875q1.25 -1.75 3.34375 -1.75q1.5 0 2.46875 0.5q1.171875 0.640625 1.171875 1.9375q0 0.90625 -1.03125 1.65625q-0.453125 0.328125 -1.9375 1.015625l-3.46875 1.65625q0.5 0.75 1.265625 1.140625q0.765625 0.375 1.765625 0.375q0.640625 0 1.484375 -0.234375q1.078125 -0.296875 1.375 -0.78125q0.3125 -0.484375 0.671875 -0.484375q0.3125 0 0.5625 0.234375q0.25 0.234375 0.25 0.5625q0 1.015625 -1.625 1.734375q-1.390625 0.625 -2.71875 0.625zm-0.234375 -8.296875q-1.125 0 -1.859375 0.859375q-0.734375 0.859375 -1.09375 2.59375l2.796875 -1.328125q1.640625 -0.8125 2.34375 -1.40625q-0.78125 -0.71875 -2.1875 -0.71875zm13.189606 8.515625q-0.78125 0 -0.875 -0.84375l-0.265625 -2.0q-0.125 -1.0625 -0.125 -2.0q0 -0.25 0.03125 -0.859375q0.03125 -0.609375 0.03125 -0.875q0 -1.953125 -0.71875 -1.953125q-1.03125 0 -1.953125 1.203125q-0.84375 1.109375 -1.3125 2.78125q-0.015625 0.359375 -0.078125 0.90625q-0.0625 0.453125 -0.0625 0.875q0 0.28125 0.046875 0.828125q0.0625 0.546875 0.0625 0.8125q0 0.40625 -0.25 0.65625q-0.25 0.265625 -0.640625 0.265625q-0.40625 0 -0.65625 -0.265625q-0.234375 -0.25 -0.234375 -0.65625q0 -0.265625 -0.0625 -0.8125q-0.0625 -0.546875 -0.0625 -0.828125q0 -0.9375 0.125 -2.59375q0.140625 -1.671875 0.140625 -2.609375q0 -0.28125 -0.03125 -0.859375q-0.03125 -0.578125 -0.03125 -0.875q0 -0.390625 0.25 -0.640625q0.265625 -0.25 0.65625 -0.25q0.828125 0 0.921875 1.1875l0.015625 1.0625q1.53125 -2.03125 3.15625 -2.03125q1.453125 0 2.03125 1.28125q0.390625 0.859375 0.421875 2.53125l0 0.921875l-0.015625 0.84375q0 0.765625 0.203125 1.96875q0.203125 1.1875 0.203125 1.9375q0 0.390625 -0.265625 0.640625q-0.265625 0.25 -0.65625 0.25zm21.121635 -2.65625q0 0.4375 -0.140625 1.453125q-0.140625 0.921875 -0.96875 0.921875q-0.5 0 -1.203125 -0.65625q-3.703125 -3.515625 -8.5 -10.125l-0.046875 2.0625l-0.03125 2.078125q0 0.765625 0.03125 2.28125q0.03125 1.5 0.03125 2.265625q0 2.453125 -0.9374924 2.453125q-0.5 0 -0.796875 -0.3125q-0.265625 -0.28125 -0.265625 -0.671875q0 -0.390625 0.0625 -1.15625q0.0625 -0.78125 0.0625 -1.171875q0 -0.5625 0.03125 -1.6875q0.03125 -1.125 0.03125 -1.6875q0 -0.59375 -0.03125 -1.8125q-0.015625 -1.21875 -0.015625 -1.8125q0 -0.578125 -0.109375 -1.703125q-0.109375 -1.140625 -0.109375 -1.71875q0 -0.421875 0.359375 -0.765625q0.359375 -0.34375 0.8125 -0.34375q0.484375 0 1.1874924 1.046875q2.265625 3.40625 4.078125 5.65625q2.171875 2.671875 4.75 5.09375q0.015625 -0.390625 0 -1.15625l-0.03125 -1.140625q0 -4.0 -0.3125 -6.375q-0.03125 -0.234375 -0.25 -0.953125q-0.171875 -0.625 -0.171875 -0.96875q0 -1.046875 0.953125 -1.046875q1.59375 0 1.59375 5.90625q0 1.015625 -0.03125 3.03125q-0.03125 2.0 -0.03125 3.015625zm9.210449 2.609375q-0.171875 0 -0.625 -0.390625q-0.40625 -0.375 -0.609375 -0.671875q-0.875 0.484375 -1.546875 0.71875q-0.65625 0.234375 -1.109375 0.234375q-2.125 0 -3.09375 -1.1875q-0.921875 -1.140625 -0.921875 -3.46875q0 -2.203125 1.515625 -3.765625q1.515625 -1.578125 3.625 -1.578125q0.78125 0 1.765625 0.421875q1.25 0.5 1.25 1.21875q0 0.25 -0.1875 0.4375q-0.09375 0.34375 -0.140625 1.140625q-0.046875 0.796875 -0.0625 2.03125q-0.015625 1.125 0.15625 1.78125q0.09375 0.40625 0.578125 1.609375q0.0625 0.171875 0.203125 0.484375l0.0625 0.15625q0 0.359375 -0.265625 0.59375q-0.25 0.234375 -0.59375 0.234375zm-1.890625 -6.328125q0 -0.390625 0.046875 -0.84375q0.0625 -0.46875 0.15625 -0.984375q-0.34375 -0.171875 -0.59375 -0.25q-0.234375 -0.078125 -0.375 -0.078125q-1.40625 0 -2.4375 1.15625q-1.015625 1.140625 -1.015625 2.640625q0 1.5 0.515625 2.25q0.53125 0.734375 1.59375 0.734375q0.875 0 1.484375 -0.3125q0.328125 -0.171875 0.921875 -0.6875q-0.296875 -2.421875 -0.296875 -3.625zm15.890503 6.484375q-0.734375 0 -0.875 -0.78125q-0.15625 -1.0 -0.3125 -2.828125l-0.3125 -2.828125q-0.09375 -0.625 -0.3125 -1.234375q-0.3125 -0.8125 -0.671875 -0.8125q-0.34375 0 -1.265625 0.578125q-0.875 0.53125 -1.140625 0.84375q-0.015625 0.859375 0.046875 1.71875l0.265625 2.421875q0.171875 1.4375 0.171875 2.375q0 0.40625 -0.25 0.65625q-0.25 0.265625 -0.640625 0.265625q-0.390625 0 -0.640625 -0.265625q-0.25 -0.25 -0.25 -0.65625q0 -1.09375 -0.234375 -3.25q-0.21875 -2.15625 -0.21875 -3.25q0 -0.96875 -0.265625 -1.515625q-0.640625 0.296875 -1.296875 0.953125l-1.078125 1.203125q-0.140625 0.21875 -0.453125 0.578125q0 0.546875 -0.109375 1.609375q-0.09375 1.0625 -0.09375 1.578125q0 0.265625 0.078125 0.765625q0.09375 0.484375 0.09375 0.703125q0 0.375 -0.28125 0.625q-0.28125 0.265625 -0.65625 0.265625q-1.015625 0 -1.015625 -2.34375q0 -0.546875 0.09375 -1.625q0.09375 -1.09375 0.09375 -1.640625q0 -0.484375 -0.09375 -1.4375q-0.078125 -0.96875 -0.078125 -1.46875q0 -2.0625 0.9375 -2.0625q0.34375 0 0.640625 0.3125q0.296875 0.3125 0.296875 0.671875q0 0.171875 -0.046875 0.546875q-0.03125 0.359375 -0.03125 0.546875l0.015625 0.953125q0.46875 -0.96875 1.390625 -1.75q0.921875 -0.796875 1.5625 -0.796875q1.4375 0 1.96875 1.421875q0.5 -0.671875 1.1875 -1.0q0.703125 -0.328125 1.59375 -0.328125q1.515625 0 2.078125 1.640625q0.109375 0.328125 0.375 2.546875q0.25 1.578125 0.65625 5.21875q0.03125 0.375 -0.25 0.625q-0.265625 0.25 -0.671875 0.25zm7.18071 -0.328125q-2.046875 0 -3.328125 -1.03125q-1.390625 -1.140625 -1.390625 -3.1875q0 -2.375 1.140625 -3.96875q1.25 -1.75 3.34375 -1.75q1.5 0 2.46875 0.5q1.171875 0.640625 1.171875 1.9375q0 0.90625 -1.03125 1.65625q-0.453125 0.328125 -1.9375 1.015625l-3.46875 1.65625q0.5 0.75 1.265625 1.140625q0.765625 0.375 1.765625 0.375q0.640625 0 1.484375 -0.234375q1.078125 -0.296875 1.375 -0.78125q0.3125 -0.484375 0.671875 -0.484375q0.3125 0 0.5625 0.234375q0.25 0.234375 0.25 0.5625q0 1.015625 -1.625 1.734375q-1.390625 0.625 -2.71875 0.625zm-0.234375 -8.296875q-1.125 0 -1.859375 0.859375q-0.734375 0.859375 -1.09375 2.59375l2.796875 -1.328125q1.640625 -0.8125 2.34375 -1.40625q-0.78125 -0.71875 -2.1875 -0.71875z" fill-rule="nonzero"/><path fill="#000000" fill-opacity="0.0" d="m136.22047 199.6483l127.401566 0l0 38.677155l-127.401566 0z" fill-rule="evenodd"/><path fill="#000000" d="m153.57985 219.83392q-0.0625 1.140625 -0.921875 1.140625q-0.78125 0 -0.78125 -0.90625q0 -0.171875 -0.03125 -0.625l-0.015625 -0.765625q-1.4375 0.171875 -2.3125 0.796875q-0.8125 0.59375 -1.34375 1.796875l0.015625 4.984375q0 0.921875 -0.90625 0.921875q-0.796875 0 -0.796875 -0.921875l0 -6.390625q0 -0.296875 0.015625 -0.890625q0.03125 -0.609375 0.03125 -0.921875q0 -0.90625 0.796875 -0.90625q0.890625 0 0.90625 1.5q1.75 -1.671875 3.875 -1.671875q0.75 0 1.109375 0.5625q0.359375 0.546875 0.359375 1.65625q0 0.484375 0 0.640625zm6.119995 7.15625q-2.046875 0 -3.328125 -1.03125q-1.390625 -1.140625 -1.390625 -3.1875q0 -2.375 1.140625 -3.96875q1.25 -1.75 3.34375 -1.75q1.5 0 2.46875 0.5q1.171875 0.640625 1.171875 1.9375q0 0.90625 -1.03125 1.65625q-0.453125 0.328125 -1.9375 1.015625l-3.46875 1.65625q0.5 0.75 1.265625 1.140625q0.765625 0.375 1.765625 0.375q0.640625 0 1.484375 -0.234375q1.078125 -0.296875 1.375 -0.78125q0.3125 -0.484375 0.671875 -0.484375q0.3125 0 0.5625 0.234375q0.25 0.234375 0.25 0.5625q0 1.015625 -1.625 1.734375q-1.390625 0.625 -2.71875 0.625zm-0.234375 -8.296875q-1.125 0 -1.859375 0.859375q-0.734375 0.859375 -1.09375 2.59375l2.796875 -1.328125q1.640625 -0.8125 2.34375 -1.40625q-0.78125 -0.71875 -2.1875 -0.71875zm13.705231 3.953125l-0.21875 3.0625q-0.046875 1.8125 -0.359375 2.96875q-0.421875 1.484375 -1.3125 2.1875q-1.09375 0.84375 -3.171875 0.84375q-1.203125 0 -2.03125 -0.171875q-1.140625 -0.21875 -1.140625 -0.9375q0 -0.8125 0.796875 -0.8125q0.328125 0 1.078125 0.15625q0.765625 0.15625 1.703125 0.140625q1.75 -0.03125 2.40625 -1.6875q0.4375 -1.125 0.46875 -3.421875q-0.484375 0.90625 -1.171875 1.375q-0.671875 0.453125 -1.546875 0.453125q-1.65625 0 -2.6875 -1.125q-1.03125 -1.125 -1.03125 -2.921875q0 -2.46875 1.40625 -3.96875q1.46875 -1.546875 3.984375 -1.546875q0.84375 0 1.40625 0.21875q0.578125 0.21875 0.875 0.65625q0.984375 0.03125 0.984375 1.078125q0 0.65625 -0.1875 1.734375q-0.21875 1.265625 -0.25 1.71875zm-2.921875 -3.953125q-1.734375 0 -2.6875 1.203125q-0.84375 1.0625 -0.84375 2.734375q0 1.3125 0.5 1.984375q0.5 0.65625 1.5 0.65625q0.921875 0 1.796875 -1.03125q0.78125 -0.953125 0.890625 -1.90625q0.1875 -0.96875 0.40625 -3.078125q-0.359375 -0.28125 -0.75 -0.421875q-0.390625 -0.140625 -0.8125 -0.140625zm7.0582733 -3.65625q-0.4375 0 -0.75 -0.3125q-0.3125 -0.3125 -0.3125 -0.75q0 -0.4375 0.3125 -0.734375q0.3125 -0.3125 0.75 -0.3125q0.4375 0 0.75 0.3125q0.328125 0.296875 0.328125 0.734375q0 0.4375 -0.328125 0.75q-0.3125 0.3125 -0.75 0.3125zm0.421875 7.390625q0 0.546875 0.03125 1.640625q0.03125 1.09375 0.03125 1.640625q0 0.390625 -0.25 0.65625q-0.25 0.25 -0.640625 0.25q-0.390625 0 -0.65625 -0.25q-0.25 -0.265625 -0.25 -0.65625q0 -0.546875 -0.03125 -1.640625q-0.03125 -1.09375 -0.03125 -1.640625q0 -0.84375 0.09375 -2.125q0.09375 -1.28125 0.09375 -2.140625q0 -0.40625 0.25 -0.65625q0.25 -0.265625 0.640625 -0.265625q0.390625 0 0.640625 0.265625q0.25 0.25 0.25 0.65625q0 0.859375 -0.09375 2.140625q-0.078125 1.28125 -0.078125 2.125zm9.228851 -2.875q-0.5 0 -0.703125 -0.328125q-0.140625 -0.25 -0.234375 -0.984375q-0.6875 0.171875 -2.109375 0.625q-1.46875 0.59375 -1.484375 1.4375q0.28125 0.109375 0.546875 0.15625q2.09375 0.375 3.109375 1.03125q1.484375 0.953125 1.484375 2.765625q0 1.484375 -1.28125 2.234375q-1.0625 0.625 -2.703125 0.625q-1.1875 0 -2.265625 -0.40625q-1.40625 -0.5 -1.40625 -1.421875q0 -0.359375 0.28125 -0.625q0.296875 -0.28125 0.65625 -0.28125q0.28125 0 0.734375 0.4375q0.21875 0.203125 0.984375 0.34375q0.609375 0.109375 1.015625 0.109375q0.765625 0 1.359375 -0.171875q0.84375 -0.265625 0.84375 -0.84375q0 -1.234375 -1.734375 -1.671875l-0.9375 -0.21875q-1.21875 -0.265625 -1.734375 -0.609375q-0.734375 -0.515625 -0.734375 -1.546875q0 -1.90625 1.796875 -2.71875q0.546875 -0.234375 1.75 -0.578125q1.203125 -0.34375 1.71875 -0.578125q0.375 -0.171875 0.8125 -0.171875q0.390625 0 0.640625 0.265625q0.25 0.25 0.25 0.65625q0 0.265625 0.109375 0.78125q0.125 0.5 0.125 0.765625q0 0.40625 -0.25 0.671875q-0.25 0.25 -0.640625 0.25zm9.019669 -0.75q-0.1875 0 -0.453125 -0.015625q-0.25 -0.015625 -0.453125 -0.015625q-0.203125 0 -1.234375 0.140625l0.171875 5.375l0.015625 0.40625l0 0.46875q0.046875 1.984375 -0.953125 1.984375q-0.359375 0 -0.640625 -0.234375q-0.265625 -0.234375 -0.265625 -0.59375q0 -0.34375 0.03125 -1.03125q0.03125 -0.703125 0.03125 -1.046875l-0.1875 -5.3125q-0.65625 -0.03125 -2.015625 -0.15625q-0.8125 -0.109375 -0.8125 -0.90625q0 -0.390625 0.234375 -0.65625q0.25 -0.265625 0.640625 -0.265625l1.90625 0.15625q0 -0.46875 -0.046875 -1.25q-0.03125 -0.78125 -0.03125 -1.125q0 -0.375 0.265625 -0.625q0.265625 -0.25 0.640625 -0.25q0.828125 0 0.96875 1.328125q0.015625 0.34375 0.015625 0.8125l-0.015625 0.53125l0 0.5625q1.125 -0.140625 1.28125 -0.140625q0.953125 0 1.25 0.09375q0.546875 0.171875 0.546875 0.84375q0 0.40625 -0.25 0.671875q-0.25 0.25 -0.640625 0.25zm6.9469147 8.1875q-2.046875 0 -3.328125 -1.03125q-1.390625 -1.140625 -1.390625 -3.1875q0 -2.375 1.140625 -3.96875q1.25 -1.75 3.34375 -1.75q1.5 0 2.46875 0.5q1.171875 0.640625 1.171875 1.9375q0 0.90625 -1.03125 1.65625q-0.453125 0.328125 -1.9375 1.015625l-3.46875 1.65625q0.5 0.75 1.265625 1.140625q0.765625 0.375 1.765625 0.375q0.640625 0 1.484375 -0.234375q1.078125 -0.296875 1.375 -0.78125q0.3125 -0.484375 0.671875 -0.484375q0.3125 0 0.5625 0.234375q0.25 0.234375 0.25 0.5625q0 1.015625 -1.625 1.734375q-1.390625 0.625 -2.71875 0.625zm-0.234375 -8.296875q-1.125 0 -1.859375 0.859375q-0.734375 0.859375 -1.09375 2.59375l2.796875 -1.328125q1.640625 -0.8125 2.34375 -1.40625q-0.78125 -0.71875 -2.1875 -0.71875zm13.298981 1.140625q-0.0625 1.140625 -0.921875 1.140625q-0.78125 0 -0.78125 -0.90625q0 -0.171875 -0.03125 -0.625l-0.015625 -0.765625q-1.4375 0.171875 -2.3125 0.796875q-0.8125 0.59375 -1.34375 1.796875l0.015625 4.984375q0 0.921875 -0.90625 0.921875q-0.796875 0 -0.796875 -0.921875l0 -6.390625q0 -0.296875 0.015625 -0.890625q0.03125 -0.609375 0.03125 -0.921875q0 -0.90625 0.796875 -0.90625q0.890625 0 0.90625 1.5q1.75 -1.671875 3.875 -1.671875q0.75 0 1.109375 0.5625q0.359375 0.546875 0.359375 1.65625q0 0.484375 0 0.640625zm6.119995 7.15625q-2.046875 0 -3.328125 -1.03125q-1.390625 -1.140625 -1.390625 -3.1875q0 -2.375 1.140625 -3.96875q1.25 -1.75 3.34375 -1.75q1.5 0 2.46875 0.5q1.171875 0.640625 1.171875 1.9375q0 0.90625 -1.03125 1.65625q-0.453125 0.328125 -1.9375 1.015625l-3.46875 1.65625q0.5 0.75 1.265625 1.140625q0.765625 0.375 1.765625 0.375q0.640625 0 1.484375 -0.234375q1.078125 -0.296875 1.375 -0.78125q0.3125 -0.484375 0.671875 -0.484375q0.3125 0 0.5625 0.234375q0.25 0.234375 0.25 0.5625q0 1.015625 -1.625 1.734375q-1.390625 0.625 -2.71875 0.625zm-0.234375 -8.296875q-1.125 0 -1.859375 0.859375q-0.734375 0.859375 -1.09375 2.59375l2.796875 -1.328125q1.640625 -0.8125 2.34375 -1.40625q-0.78125 -0.71875 -2.1875 -0.71875zm14.595856 -0.171875q-0.109375 1.34375 -0.109375 2.6875q0 3.03125 0.28125 4.578125q0.015625 0.125 0.015625 0.203125q0 0.375 -0.25 0.609375q-0.25 0.234375 -0.59375 0.234375q-0.5625 0 -0.828125 -0.828125q-0.65625 0.484375 -1.359375 0.734375q-0.703125 0.25 -1.46875 0.25q-1.890625 0 -3.125 -1.265625q-1.28125 -1.28125 -1.28125 -3.296875q0 -2.421875 1.28125 -3.890625q1.296875 -1.46875 3.359375 -1.46875q1.046875 0 1.625 0.328125l0.859375 0.625q0.125 -3.828125 0.296875 -5.15625q0.125 -0.8125 0.828125 -0.8125q0.828125 0 0.828125 0.875q0 1.265625 -0.359375 5.59375zm-4.046875 0.234375q-1.53125 0 -2.296875 0.90625q-0.765625 0.90625 -0.765625 2.734375q0 1.171875 0.828125 2.03125q0.84375 0.84375 1.96875 0.84375q0.765625 0 1.28125 -0.28125q0.3125 -0.171875 1.015625 -0.765625q0.140625 -0.109375 0.265625 -0.28125l-0.03125 -1.578125l0.015625 -1.046875l0.015625 -1.078125q-0.34375 -0.734375 -0.921875 -1.109375q-0.578125 -0.375 -1.375 -0.375z" fill-rule="nonzero"/><path fill="#000000" fill-opacity="0.0" d="m17.296587 13.913385l290.14172 0l0 280.97638l-290.14172 0z" fill-rule="evenodd"/><path stroke="#000000" stroke-width="1.0" stroke-linejoin="round" stroke-linecap="butt" stroke-dasharray="1.0,3.0" d="m17.296587 13.913385l290.14172 0l0 280.97638l-290.14172 0z" fill-rule="evenodd"/><path fill="#000000" fill-opacity="0.0" d="m65.40666 211.40945l48.92946 0l0 0c6.409889 0 11.60614 5.4711456 11.60614 12.220154c0 6.749008 -5.196251 12.220154 -11.60614 12.220154l-48.92946 0l0 0c-6.409893 0 -11.606136 -5.4711456 -11.606136 -12.220154c0 -6.749008 5.1962433 -12.220154 11.606136 -12.220154z" fill-rule="evenodd"/><path stroke="#000000" stroke-width="1.0" stroke-linejoin="round" stroke-linecap="butt" d="m65.40666 211.40945l48.92946 0l0 0c6.409889 0 11.60614 5.4711456 11.60614 12.220154c0 6.749008 -5.196251 12.220154 -11.60614 12.220154l-48.92946 0l0 0c-6.409893 0 -11.606136 -5.4711456 -11.606136 -12.220154c0 -6.749008 5.1962433 -12.220154 11.606136 -12.220154z" fill-rule="evenodd"/><path fill="#000000" d="m103.8294 223.62466l0 0c0 -6.749176 4.949539 -12.220459 11.055115 -12.220459l0 0c2.9319992 0 5.7439117 1.2875061 7.8171463 3.5792847c2.0732422 2.2917786 3.237976 5.400116 3.237976 8.641174l0 0c0 6.7491913 -4.949547 12.220474 -11.055122 12.220474l0 0c-6.1055756 0 -11.055115 -5.471283 -11.055115 -12.220474z" fill-rule="evenodd"/><path stroke="#000000" stroke-width="1.0" stroke-linejoin="round" stroke-linecap="butt" d="m103.8294 223.62466l0 0c0 -6.749176 4.949539 -12.220459 11.055115 -12.220459l0 0c2.9319992 0 5.7439117 1.2875061 7.8171463 3.5792847c2.0732422 2.2917786 3.237976 5.400116 3.237976 8.641174l0 0c0 6.7491913 -4.949547 12.220474 -11.055122 12.220474l0 0c-6.1055756 0 -11.055115 -5.471283 -11.055115 -12.220474z" fill-rule="evenodd"/><path fill="#000000" fill-opacity="0.0" d="m72.94226 54.031498l-25.79528 -0.2519722" fill-rule="evenodd"/><path stroke="#000000" stroke-width="1.0" stroke-linejoin="round" stroke-linecap="butt" d="m72.94226 54.031498l-25.79528 -0.2519722" fill-rule="evenodd"/><path fill="#000000" fill-opacity="0.0" d="m47.154854 54.031498l0.2519722 52.062992" fill-rule="evenodd"/><path stroke="#000000" stroke-width="1.0" stroke-linejoin="round" stroke-linecap="butt" d="m47.154854 54.031498l0.2519722 52.062992" fill-rule="evenodd"/><path fill="#000000" fill-opacity="0.0" d="m48.3832 106.09974l221.03937 0.9763794" fill-rule="evenodd"/><path stroke="#000000" stroke-width="1.0" stroke-linejoin="round" stroke-linecap="butt" d="m48.3832 106.09974l221.03937 0.9763794" fill-rule="evenodd"/><path fill="#000000" fill-opacity="0.0" d="m180.02362 55.259842l88.409454 0.25196838" fill-rule="evenodd"/><path stroke="#000000" stroke-width="1.0" stroke-linejoin="round" stroke-linecap="butt" d="m180.02362 55.259842l88.409454 0.25196838" fill-rule="evenodd"/><path fill="#000000" fill-opacity="0.0" d="m268.1942 55.50656l0 51.086617" fill-rule="evenodd"/><path stroke="#000000" stroke-width="1.0" stroke-linejoin="round" stroke-linecap="butt" d="m268.1942 55.50656l0 51.086617" fill-rule="evenodd"/><path fill="#000000" fill-opacity="0.0" d="m63.574802 113.27034l174.07875 0l0 38.67717l-174.07875 0z" fill-rule="evenodd"/><path fill="#000000" d="m73.79356 137.92471q0 -0.390625 0.265625 -0.625q0.265625 -0.25 0.65625 -0.25q0.453125 0 0.78125 0.515625q0.46875 0.6875 0.828125 0.9375q0.78125 0.515625 2.25 0.515625q1.421875 0 2.625 -0.609375q1.546875 -0.78125 1.546875 -2.1875q0 -1.140625 -1.296875 -1.8125q-1.109375 -0.5625 -2.71875 -0.609375q-1.453125 -0.0625 -2.453125 -0.625q-1.296875 -0.75 -1.296875 -2.125q0 -1.625 1.84375 -2.953125q1.75 -1.265625 3.625 -1.265625q0.890625 0 2.0 0.296875q1.46875 0.390625 1.46875 1.0q0 0.796875 -0.8125 0.796875q-0.359375 0 -1.28125 -0.1875q-0.90625 -0.203125 -1.40625 -0.1875q-1.421875 0.015625 -2.421875 0.703125q-1.015625 0.703125 -1.015625 1.703125q0 0.75 1.34375 1.0625q0.515625 0.125 1.953125 0.21875q2.078125 0.15625 3.25 1.3125q1.078125 1.0625 1.078125 2.578125q0 2.171875 -2.0 3.46875q-1.734375 1.109375 -4.03125 1.109375q-1.671875 0 -3.0625 -0.640625q-1.6875 -0.78125 -1.71875 -2.140625zm20.41986 -3.046875q0 0.640625 0 1.953125q0.015625 1.3125 0.015625 1.96875q0 0.203125 0.03125 0.625q0.03125 0.40625 0.03125 0.609375q0 0.390625 -0.265625 0.640625q-0.265625 0.25 -0.640625 0.25q-0.703125 0 -0.890625 -0.875q-1.140625 0.59375 -2.625 0.59375q-1.203125 0 -1.984375 -0.53125q-0.859375 -0.578125 -1.03125 -1.703125q-0.34375 -2.40625 -0.34375 -4.296875q0 -1.25 0.265625 -2.84375q0.125 -0.78125 0.859375 -0.78125q0.390625 0 0.65625 0.25q0.265625 0.25 0.265625 0.640625q0 0.40625 -0.140625 1.328125q-0.125 0.921875 -0.125 1.40625q0 1.515625 0.09375 2.609375q0.109375 1.078125 0.3125 1.734375q0.296875 0.171875 0.59375 0.265625q0.296875 0.078125 0.578125 0.078125q1.21875 0 2.578125 -0.390625l-0.015625 -1.859375l-0.015625 -1.765625q0 -1.96875 0.171875 -3.40625q0.09375 -0.84375 0.890625 -0.84375q0.390625 0 0.640625 0.265625q0.265625 0.25 0.25 0.625l-0.15625 3.453125zm9.357864 -1.421875q-0.0625 1.140625 -0.921875 1.140625q-0.78125 0 -0.78125 -0.90625q0 -0.171875 -0.03125 -0.625l-0.015625 -0.765625q-1.4375 0.171875 -2.3125 0.796875q-0.8125 0.59375 -1.34375 1.796875l0.015625 4.984375q0 0.921875 -0.90625 0.921875q-0.796875 0 -0.796875 -0.921875l0 -6.390625q0 -0.296875 0.015625 -0.890625q0.03125 -0.609375 0.03125 -0.921875q0 -0.90625 0.796875 -0.90625q0.890625 0 0.90625 1.5q1.75 -1.671875 3.875 -1.671875q0.75 0 1.109375 0.5625q0.359375 0.546875 0.359375 1.65625q0 0.484375 0 0.640625zm8.85437 7.375q-0.78125 0 -0.875 -0.84375l-0.265625 -2.0q-0.125 -1.0625 -0.125 -2.0q0 -0.25 0.03125 -0.859375q0.03125 -0.609375 0.03125 -0.875q0 -1.953125 -0.71875 -1.953125q-1.03125 0 -1.953125 1.203125q-0.84375 1.109375 -1.3125 2.78125q-0.015625 0.359375 -0.078125 0.90625q-0.0625 0.453125 -0.0625 0.875q0 0.28125 0.046875 0.828125q0.0625 0.546875 0.0625 0.8125q0 0.40625 -0.25 0.65625q-0.25 0.265625 -0.640625 0.265625q-0.40625 0 -0.65625 -0.265625q-0.234375 -0.25 -0.234375 -0.65625q0 -0.265625 -0.0625 -0.8125q-0.0625 -0.546875 -0.0625 -0.828125q0 -0.9375 0.125 -2.59375q0.140625 -1.671875 0.140625 -2.609375q0 -0.28125 -0.03125 -0.859375q-0.03125 -0.578125 -0.03125 -0.875q0 -0.390625 0.25 -0.640625q0.265625 -0.25 0.65625 -0.25q0.828125 0 0.921875 1.1875l0.015625 1.0625q1.53125 -2.03125 3.15625 -2.03125q1.453125 0 2.03125 1.28125q0.390625 0.859375 0.421875 2.53125l0 0.921875l-0.015625 0.84375q0 0.765625 0.203125 1.96875q0.203125 1.1875 0.203125 1.9375q0 0.390625 -0.265625 0.640625q-0.265625 0.25 -0.65625 0.25zm9.890381 -0.046875q-0.171875 0 -0.625 -0.390625q-0.40625 -0.375 -0.609375 -0.671875q-0.875 0.484375 -1.546875 0.71875q-0.65625 0.234375 -1.109375 0.234375q-2.125 0 -3.09375 -1.1875q-0.921875 -1.140625 -0.921875 -3.46875q0 -2.203125 1.515625 -3.765625q1.515625 -1.578125 3.625 -1.578125q0.78125 0 1.765625 0.421875q1.25 0.5 1.25 1.21875q0 0.25 -0.1875 0.4375q-0.09375 0.34375 -0.140625 1.140625q-0.046875 0.796875 -0.0625 2.03125q-0.015625 1.125 0.15625 1.78125q0.09375 0.40625 0.578125 1.609375q0.0625 0.171875 0.203125 0.484375l0.0625 0.15625q0 0.359375 -0.265625 0.59375q-0.25 0.234375 -0.59375 0.234375zm-1.890625 -6.328125q0 -0.390625 0.046875 -0.84375q0.0625 -0.46875 0.15625 -0.984375q-0.34375 -0.171875 -0.59375 -0.25q-0.234375 -0.078125 -0.375 -0.078125q-1.40625 0 -2.4375 1.15625q-1.015625 1.140625 -1.015625 2.640625q0 1.5 0.515625 2.25q0.53125 0.734375 1.59375 0.734375q0.875 0 1.484375 -0.3125q0.328125 -0.171875 0.921875 -0.6875q-0.296875 -2.421875 -0.296875 -3.625zm15.890495 6.484375q-0.734375 0 -0.875 -0.78125q-0.15625 -1.0 -0.3125 -2.828125l-0.3125 -2.828125q-0.09375 -0.625 -0.3125 -1.234375q-0.3125 -0.8125 -0.671875 -0.8125q-0.34375 0 -1.265625 0.578125q-0.875 0.53125 -1.140625 0.84375q-0.015625 0.859375 0.046875 1.71875l0.265625 2.421875q0.171875 1.4375 0.171875 2.375q0 0.40625 -0.25 0.65625q-0.25 0.265625 -0.640625 0.265625q-0.390625 0 -0.640625 -0.265625q-0.25 -0.25 -0.25 -0.65625q0 -1.09375 -0.234375 -3.25q-0.21875 -2.15625 -0.21875 -3.25q0 -0.96875 -0.265625 -1.515625q-0.640625 0.296875 -1.296875 0.953125l-1.0781174 1.203125q-0.140625 0.21875 -0.453125 0.578125q0 0.546875 -0.109375 1.609375q-0.09375 1.0625 -0.09375 1.578125q0 0.265625 0.078125 0.765625q0.09375 0.484375 0.09375 0.703125q0 0.375 -0.28125 0.625q-0.28125 0.265625 -0.65625 0.265625q-1.015625 0 -1.015625 -2.34375q0 -0.546875 0.09375 -1.625q0.09375 -1.09375 0.09375 -1.640625q0 -0.484375 -0.09375 -1.4375q-0.078125 -0.96875 -0.078125 -1.46875q0 -2.0625 0.9375 -2.0625q0.34375 0 0.640625 0.3125q0.296875 0.3125 0.296875 0.671875q0 0.171875 -0.046875 0.546875q-0.03125 0.359375 -0.03125 0.546875l0.015625 0.953125q0.46875 -0.96875 1.390625 -1.75q0.9218674 -0.796875 1.5624924 -0.796875q1.4375 0 1.96875 1.421875q0.5 -0.671875 1.1875 -1.0q0.703125 -0.328125 1.59375 -0.328125q1.515625 0 2.078125 1.640625q0.109375 0.328125 0.375 2.546875q0.25 1.578125 0.65625 5.21875q0.03125 0.375 -0.25 0.625q-0.265625 0.25 -0.671875 0.25zm7.18071 -0.328125q-2.046875 0 -3.328125 -1.03125q-1.390625 -1.140625 -1.390625 -3.1875q0 -2.375 1.140625 -3.96875q1.25 -1.75 3.34375 -1.75q1.5 0 2.46875 0.5q1.171875 0.640625 1.171875 1.9375q0 0.90625 -1.03125 1.65625q-0.453125 0.328125 -1.9375 1.015625l-3.46875 1.65625q0.5 0.75 1.265625 1.140625q0.765625 0.375 1.765625 0.375q0.640625 0 1.484375 -0.234375q1.078125 -0.296875 1.375 -0.78125q0.3125 -0.484375 0.671875 -0.484375q0.3125 0 0.5625 0.234375q0.25 0.234375 0.25 0.5625q0 1.015625 -1.625 1.734375q-1.390625 0.625 -2.71875 0.625zm-0.234375 -8.296875q-1.125 0 -1.859375 0.859375q-0.734375 0.859375 -1.09375 2.59375l2.796875 -1.328125q1.640625 -0.8125 2.34375 -1.40625q-0.78125 -0.71875 -2.1875 -0.71875z" fill-rule="nonzero"/><path fill="#000000" fill-opacity="0.0" d="m70.98163 134.23622l-22.110237 -0.25196838" fill-rule="evenodd"/><path stroke="#000000" stroke-width="1.0" stroke-linejoin="round" stroke-linecap="butt" d="m70.98163 134.23622l-22.110237 -0.25196838" fill-rule="evenodd"/><path fill="#000000" fill-opacity="0.0" d="m48.879265 133.9895l0.724411 51.81102" fill-rule="evenodd"/><path stroke="#000000" stroke-width="1.0" stroke-linejoin="round" stroke-linecap="butt" d="m48.879265 133.9895l0.724411 51.81102" fill-rule="evenodd"/><path fill="#000000" fill-opacity="0.0" d="m49.614174 185.81102l221.29135 -0.25196838" fill-rule="evenodd"/><path stroke="#000000" stroke-width="1.0" stroke-linejoin="round" stroke-linecap="butt" d="m49.614174 185.81102l221.29135 -0.25196838" fill-rule="evenodd"/><path fill="#000000" fill-opacity="0.0" d="m271.39108 185.81102l0.25195312 -50.582672" fill-rule="evenodd"/><path stroke="#000000" stroke-width="1.0" stroke-linejoin="round" stroke-linecap="butt" d="m271.39108 185.81102l0.25195312 -50.582672" fill-rule="evenodd"/><path fill="#000000" fill-opacity="0.0" d="m153.01312 134.72704l118.39371 0" fill-rule="evenodd"/><path stroke="#000000" stroke-width="1.0" stroke-linejoin="round" stroke-linecap="butt" d="m153.01312 134.72704l118.39371 0" fill-rule="evenodd"/></g></svg>